/* XPM */
static xpm_row_t const hammer_1_small_xpm[] = {
"35 35 463 2",
"  	c None",
". 	c #003436",
"+ 	c #00524D",
"@ 	c #003B3A",
"# 	c #001E20",
"$ 	c #001D1D",
"% 	c #00484A",
"& 	c #010704",
"* 	c #0F1607",
"= 	c #003A3A",
"- 	c #003A40",
"; 	c #00A7B3",
"> 	c #00B3BB",
", 	c #00A5AF",
"' 	c #00110E",
") 	c #14082D",
"! 	c #663F00",
"~ 	c #19535A",
"{ 	c #005E6E",
"] 	c #00575E",
"^ 	c #00ACBD",
"/ 	c #00AFC0",
"( 	c #00AEBA",
"_ 	c #00AFB9",
": 	c #02231E",
"< 	c #130B0E",
"[ 	c #7E5700",
"} 	c #E1A400",
"| 	c #58442F",
"1 	c #00646E",
"2 	c #004543",
"3 	c #00ADBC",
"4 	c #00AFBF",
"5 	c #00AFBE",
"6 	c #00AEB2",
"7 	c #01201C",
"8 	c #0D0C2A",
"9 	c #463501",
"0 	c #544607",
"a 	c #0C0804",
"b 	c #774901",
"c 	c #E59D00",
"d 	c #E19900",
"e 	c #724B04",
"f 	c #008EA1",
"g 	c #00929D",
"h 	c #003D44",
"i 	c #00AFBA",
"j 	c #00B3BA",
"k 	c #00B0BA",
"l 	c #00ADB6",
"m 	c #011416",
"n 	c #825C02",
"o 	c #EBBC00",
"p 	c #806C00",
"q 	c #EA9E00",
"r 	c #EB9C00",
"s 	c #A97500",
"t 	c #E5B200",
"u 	c #545C47",
"v 	c #00A1B4",
"w 	c #00423F",
"x 	c #00AEB9",
"y 	c #00ABBE",
"z 	c #00B2BB",
"A 	c #00B0B9",
"B 	c #00AFBB",
"C 	c #020703",
"D 	c #A38200",
"E 	c #8D6A01",
"F 	c #825E00",
"G 	c #F09B00",
"H 	c #E19A00",
"I 	c #AB7B00",
"J 	c #EFC500",
"K 	c #F8C700",
"L 	c #CAB000",
"M 	c #214E4B",
"N 	c #00AEB7",
"O 	c #007781",
"P 	c #005F51",
"Q 	c #00A9B5",
"R 	c #00B0BB",
"S 	c #00ADB9",
"T 	c #004C49",
"U 	c #2D2700",
"V 	c #835500",
"W 	c #EA9D00",
"X 	c #E39900",
"Y 	c #A77B00",
"Z 	c #EDC600",
"` 	c #FBC500",
" .	c #F8D900",
"..	c #B29903",
"+.	c #17686D",
"@.	c #00A3B4",
"#.	c #004E54",
"$.	c #006752",
"%.	c #00ABB4",
"&.	c #00B1B9",
"*.	c #00B2C1",
"=.	c #00ADB5",
"-.	c #001E24",
";.	c #11051F",
">.	c #835600",
",.	c #EA9900",
"'.	c #E29B00",
").	c #A67E00",
"!.	c #F3BE00",
"~.	c #FBC900",
"{.	c #F6DC00",
"].	c #F3D900",
"^.	c #F8CB00",
"/.	c #B48B06",
"(.	c #144C5F",
"_.	c #007788",
":.	c #005259",
"<.	c #00513C",
"[.	c #00ACBB",
"}.	c #00B4BB",
"|.	c #004246",
"1.	c #0D0C1F",
"2.	c #845B00",
"3.	c #EF9E00",
"4.	c #E19800",
"5.	c #A87E00",
"6.	c #EDC700",
"7.	c #F8CD00",
"8.	c #F8D200",
"9.	c #F4D900",
"0.	c #FAC100",
"a.	c #EBA600",
"b.	c #AB7303",
"c.	c #1A4B4E",
"d.	c #007A86",
"e.	c #005D65",
"f.	c #002F3C",
"g.	c #0D2420",
"h.	c #855C00",
"i.	c #EA9F00",
"j.	c #E39600",
"k.	c #A98100",
"l.	c #F5C100",
"m.	c #FEC400",
"n.	c #F6DB00",
"o.	c #F8DA00",
"p.	c #FAC700",
"q.	c #FBBB00",
"r.	c #EEA200",
"s.	c #EE9C00",
"t.	c #B67A02",
"u.	c #343D3D",
"v.	c #00768E",
"w.	c #0098A7",
"x.	c #00585C",
"y.	c #004542",
"z.	c #003128",
"A.	c #160D03",
"B.	c #8B6000",
"C.	c #ED9F00",
"D.	c #E19B00",
"E.	c #A17D00",
"F.	c #C9A700",
"G.	c #F3C800",
"H.	c #F6D900",
"I.	c #F8D500",
"J.	c #FCC400",
"K.	c #FABD00",
"L.	c #ECA600",
"M.	c #F29F00",
"N.	c #EFA000",
"O.	c #D69600",
"P.	c #6D6332",
"Q.	c #017E8C",
"R.	c #006C74",
"S.	c #005E6C",
"T.	c #00434E",
"U.	c #020C13",
"V.	c #0C1520",
"W.	c #633E01",
"X.	c #E99C00",
"Y.	c #E49700",
"Z.	c #AD7B00",
"`.	c #E9C600",
" +	c #271C07",
".+	c #BEB200",
"++	c #F5C600",
"@+	c #F3BA00",
"#+	c #EEA400",
"$+	c #ECA100",
"%+	c #EC9F00",
"&+	c #ED9A00",
"*+	c #EE9900",
"=+	c #EEA900",
"-+	c #FDC300",
";+	c #F5C900",
">+	c #7F5601",
",+	c #624B20",
"'+	c #233D47",
")+	c #002932",
"!+	c #2B1108",
"~+	c #003A4A",
"{+	c #624319",
"]+	c #E69900",
"^+	c #A87B00",
"/+	c #F5CA00",
"(+	c #F7C500",
"_+	c #564A0B",
":+	c #878202",
"<+	c #F6D100",
"[+	c #F6C300",
"}+	c #947101",
"|+	c #8C6500",
"1+	c #EBA200",
"2+	c #F19B00",
"3+	c #F09C00",
"4+	c #EFA200",
"5+	c #EEA800",
"6+	c #FAC600",
"7+	c #F4C600",
"8+	c #B28300",
"9+	c #D39500",
"0+	c #DF9E00",
"a+	c #5C3C02",
"b+	c #0C1011",
"c+	c #005B69",
"d+	c #273A33",
"e+	c #9F7500",
"f+	c #EFC900",
"g+	c #F8C600",
"h+	c #F8E100",
"i+	c #848002",
"j+	c #4C3A06",
"k+	c #F3C300",
"l+	c #A18D02",
"m+	c #201003",
"n+	c #7A5500",
"o+	c #653D00",
"p+	c #8B5A00",
"q+	c #FCC900",
"r+	c #AA8500",
"s+	c #DB9900",
"t+	c #E39800",
"u+	c #6F4003",
"v+	c #00333E",
"w+	c #004D5C",
"x+	c #AA8304",
"y+	c #FCC600",
"z+	c #F4DF00",
"A+	c #CCB700",
"B+	c #180C08",
"C+	c #917C00",
"D+	c #1C1406",
"E+	c #9E7501",
"F+	c #4F3600",
"G+	c #0A0806",
"H+	c #140105",
"I+	c #633F00",
"J+	c #EEC000",
"K+	c #F2C800",
"L+	c #AF8000",
"M+	c #DF8900",
"N+	c #E09800",
"O+	c #664D03",
"P+	c #031A1E",
"Q+	c #00A3AE",
"R+	c #266B6F",
"S+	c #D0AE00",
"T+	c #F6D800",
"U+	c #F6CC00",
"V+	c #795F02",
"W+	c #020910",
"X+	c #804F04",
"Y+	c #DA9900",
"Z+	c #151317",
"`+	c #160A09",
" @	c #230102",
".@	c #530203",
"+@	c #A68700",
"@@	c #AC8800",
"#@	c #DC9100",
"$@	c #E49800",
"%@	c #644400",
"&@	c #6D4D02",
"*@	c #00696D",
"=@	c #3F482F",
"-@	c #E4C000",
";@	c #FDC600",
">@	c #F8C000",
",@	c #C88D00",
"'@	c #6E4401",
")@	c #DC9800",
"!@	c #A66B00",
"~@	c #290B2F",
"{@	c #210205",
"]@	c #420302",
"^@	c #D20205",
"/@	c #402001",
"(@	c #D89700",
"_@	c #6D4800",
":@	c #AD9800",
"<@	c #6D5D04",
"[@	c #120308",
"}@	c #140C09",
"|@	c #0092B7",
"1@	c #645C3E",
"2@	c #E7B100",
"3@	c #EDA500",
"4@	c #F09D00",
"5@	c #BF8D00",
"6@	c #2C1B14",
"7@	c #24310D",
"8@	c #380404",
"9@	c #580703",
"0@	c #E1000D",
"a@	c #553303",
"b@	c #DF9800",
"c@	c #634200",
"d@	c #A47500",
"e@	c #826406",
"f@	c #00686C",
"g@	c #004045",
"h@	c #131722",
"i@	c #009496",
"j@	c #008D94",
"k@	c #564226",
"l@	c #E79200",
"m@	c #EF9F00",
"n@	c #F39900",
"o@	c #D38E00",
"p@	c #9D7901",
"q@	c #4E3A02",
"r@	c #300205",
"s@	c #2C0803",
"t@	c #7B020C",
"u@	c #5F4205",
"v@	c #987F00",
"w@	c #7E6505",
"x@	c #015461",
"y@	c #008894",
"z@	c #00B9C1",
"A@	c #00494A",
"B@	c #032025",
"C@	c #006071",
"D@	c #006479",
"E@	c #5B4226",
"F@	c #D58D00",
"G@	c #EDA000",
"H@	c #EAA700",
"I@	c #FBC200",
"J@	c #E7C100",
"K@	c #614703",
"L@	c #633202",
"M@	c #885A01",
"N@	c #483100",
"O@	c #19080F",
"P@	c #0A1814",
"Q@	c #00797E",
"R@	c #008993",
"S@	c #008994",
"T@	c #00ADB8",
"U@	c #003F43",
"V@	c #02191A",
"W@	c #005E65",
"X@	c #006F8D",
"Y@	c #3B403F",
"Z@	c #B87E01",
"`@	c #EFC400",
" #	c #AE7900",
".#	c #DD9900",
"+#	c #DA9300",
"@#	c #633E00",
"##	c #142124",
"$#	c #008080",
"%#	c #00818B",
"&#	c #008C95",
"*#	c #00B0B3",
"=#	c #004A4B",
"-#	c #15111B",
";#	c #004A5C",
">#	c #007F91",
",#	c #087286",
"'#	c #826B1D",
")#	c #897100",
"!#	c #DE9000",
"~#	c #D79500",
"{#	c #5F4403",
"]#	c #041F21",
"^#	c #007B7F",
"/#	c #008190",
"(#	c #008899",
"_#	c #00B7BA",
":#	c #004A4C",
"<#	c #170706",
"[#	c #005358",
"}#	c #009DA8",
"|#	c #005A66",
"1#	c #054C4D",
"2#	c #36382F",
"3#	c #362002",
"4#	c #011E1C",
"5#	c #007E81",
"6#	c #008494",
"7#	c #008B95",
"8#	c #00B2C0",
"9#	c #00434B",
"0#	c #141015",
"a#	c #062528",
"b#	c #004149",
"c#	c #012636",
"d#	c #171E22",
"e#	c #008589",
"f#	c #007F96",
"g#	c #008A9C",
"h#	c #00B3BE",
"i#	c #00494F",
"j#	c #0A1A1F",
"k#	c #007A7F",
"l#	c #008392",
"m#	c #008599",
"n#	c #00B5BE",
"o#	c #004E4D",
"p#	c #01191E",
"q#	c #007B7A",
"r#	c #00818F",
"s#	c #008A95",
"t#	c #00B6BC",
"u#	c #00474F",
"v#	c #21090F",
"w#	c #101B17",
"x#	c #008886",
"y#	c #008098",
"z#	c #008498",
"A#	c #00B1BF",
"B#	c #004851",
"C#	c #1A0B05",
"D#	c #091621",
"E#	c #007A7C",
"F#	c #008593",
"G#	c #008699",
"H#	c #00B4C0",
"I#	c #005454",
"J#	c #221607",
"K#	c #011719",
"L#	c #007979",
"M#	c #008696",
"N#	c #00B1BC",
"O#	c #004F54",
"P#	c #090D15",
"Q#	c #091618",
"R#	c #018385",
"S#	c #008796",
"T#	c #008790",
"U#	c #00AEC7",
"V#	c #01353F",
"W#	c #131217",
"X#	c #007A79",
"Y#	c #00848B",
"Z#	c #00707D",
"`#	c #03262B",
" $	c #01161A",
".$	c #004F5B",
"+$	c #002120",
"                                                                      ",
"                              . + @ #                                 ",
"                            $         % &                             ",
"                        * = -   ; > ,     '                           ",
"                      ) ! ~ { ]   ^ / ( _   :                         ",
"                    < [ } | 1 2   3 4 5 ( 6   7                       ",
"            8 9 0 a b c d e f g h   i ( j k l   m                     ",
"            n o p [ q r s t u v   w   x y z A B   C                   ",
"            D E F G H I J K L M N O P   Q R S x   T                   ",
"            U V W X Y Z `  .  ..+.@.#.$.  %.&.*.=.  -.                ",
"          ;.>.,.'.).!.~.{.  ].^./.(._.:.<.  Q [.}.  |.                ",
"        1.2.3.4.5.6.7.8.  9.~.0.a.b.c.d.e.f.    6                     ",
"      g.h.i.j.k.l.m.n.  o.p.q.r.3.s.t.u.v.w.x.y.    z.                ",
"    A.B.C.D.E.F.G.H.  I.J.K.L.C.C.M.N.O.P.Q.R.S.T.U.                  ",
"  V.W.X.Y.Z.`. +.+   .++@+#+$+%+&+*+=+-+;+>+,+'+)+                    ",
"!+~+{+]+^+/+(+_+:+<+[+}+|+1+2+3+4+5+6+7+8+9+0+a+                      ",
"b+c+d+e+f+g+h+i+j+k+l+m+n+o+p+H 4+q+;+r+s+t+u+                        ",
"  v+w+x+y+z+  A+B+C+D+E+F+G+H+I+J+K+L+M+N+O+                          ",
"  P+Q+R+S+  T+U+V+W+X+Y+Z+`+ @.@+@@@#@$@%@&@                          ",
"    *@  =@-@;@>@,@'@)@!@~@{@]@^@/@(@Y+_@:@<@[@                        ",
"    }@  |@1@2@3@r 4@5@6@7@8@9@0@a@b@c@d@e@f@g@                        ",
"      h@i@j@k@l@m@n@o@p@q@r@s@t@p+u@v@w@x@y@z@A@                      ",
"        B@C@D@E@F@G@H@I@J@K@L@M@N@  O@P@Q@R@S@T@U@                    ",
"          V@W@X@Y@Z@J.`@ #.#+#@#        ##$#%#&#*#=#                  ",
"            -#;#>#,#'#)#!#~#{#            ]#^#/#(#_#:#                ",
"              <#[#}#|#1#2#3#                4#5#6#7#8#9#              ",
"                  0#a#b#c#                    d#e#f#g#h#i#            ",
"                                                j#k#l#m#n#o#          ",
"                                                  p#q#r#s#t#u#v#      ",
"                                                    w#x#y#z#A#B#C#    ",
"                                                      D#E#F#G#H#I#J#  ",
"                                                        K#L#f#M#N#O#P#",
"                                                          Q#R#S#T#U#V#",
"                                                            W#X#Y#Z#`#",
"                                                               $.$+$  "};
