/* XPM */
static xpm_row_t const hammer_3_small_xpm[] = {
"35 35 419 2",
"  	c None",
". 	c #C42C0A",
"+ 	c #C92807",
"@ 	c #C42409",
"# 	c #BD1E11",
"$ 	c #C11C06",
"% 	c #CD3505",
"& 	c #BE2C0B",
"* 	c #CC1B07",
"= 	c #D21403",
"- 	c #C1200D",
"; 	c #D34913",
"> 	c #DA2E04",
", 	c #DC1901",
"' 	c #DD3300",
") 	c #D23703",
"! 	c #C42907",
"~ 	c #D86005",
"{ 	c #E47200",
"] 	c #E34B00",
"^ 	c #DF2301",
"/ 	c #D31C00",
"( 	c #D33705",
"_ 	c #C4320A",
": 	c #CF6914",
"< 	c #CF5012",
"[ 	c #CF3A0E",
"} 	c #D95804",
"| 	c #E87C00",
"1 	c #F08D00",
"2 	c #E46700",
"3 	c #DE3B01",
"4 	c #D32100",
"5 	c #CF3101",
"6 	c #C02015",
"7 	c #CB5307",
"8 	c #E48E01",
"9 	c #DF7201",
"0 	c #DF5E01",
"a 	c #EB7D00",
"b 	c #F39100",
"c 	c #F08C00",
"d 	c #EC8C00",
"e 	c #DD6400",
"f 	c #D02E01",
"g 	c #D03C02",
"h 	c #D02A05",
"i 	c #BE2D10",
"j 	c #D76003",
"k 	c #E17100",
"l 	c #E06600",
"m 	c #EE7D00",
"n 	c #F48C00",
"o 	c #EF8E00",
"p 	c #F19F00",
"q 	c #F6B200",
"r 	c #EA9C00",
"s 	c #DB6A00",
"t 	c #D53002",
"u 	c #D43602",
"v 	c #CE3807",
"w 	c #CF3F04",
"x 	c #DB6100",
"y 	c #ED8400",
"z 	c #F18A00",
"A 	c #EF8D00",
"B 	c #F1A000",
"C 	c #F8B600",
"D 	c #F9BF00",
"E 	c #F5C200",
"F 	c #E39400",
"G 	c #DF5D00",
"H 	c #E31F01",
"I 	c #DD2402",
"J 	c #D63101",
"K 	c #C1220C",
"L 	c #D85B03",
"M 	c #ED7F00",
"N 	c #F28B00",
"O 	c #EF8F00",
"P 	c #EFA000",
"Q 	c #F4B500",
"R 	c #F9C200",
"S 	c #FCC900",
"T 	c #FAC200",
"U 	c #F5AF00",
"V 	c #EA8700",
"W 	c #E44B01",
"X 	c #E71701",
"Y 	c #E22101",
"Z 	c #D93202",
"` 	c #CE3208",
" .	c #D95E07",
"..	c #ED8301",
"+.	c #F09000",
"@.	c #F1A200",
"#.	c #F6C200",
"$.	c #F8C800",
"%.	c #FAC500",
"&.	c #FCBB00",
"*.	c #FCB100",
"=.	c #F69A00",
"-.	c #EC7600",
";.	c #E84501",
">.	c #E91702",
",.	c #E02101",
"'.	c #D63300",
").	c #DA5E0D",
"!.	c #EA7C00",
"~.	c #F49000",
"{.	c #F08F00",
"].	c #F1A300",
"^.	c #F6B500",
"/.	c #F6C400",
"(.	c #F6BC00",
"_.	c #FCB200",
":.	c #FCA600",
"<.	c #FD9E00",
"[.	c #F78F00",
"}.	c #ED7400",
"|.	c #E75101",
"1.	c #E52102",
"2.	c #DA1F00",
"3.	c #D22500",
"4.	c #CA2C07",
"5.	c #D85F12",
"6.	c #EA7C01",
"7.	c #F68E00",
"8.	c #EE8900",
"9.	c #E78700",
"0.	c #F2AD00",
"a.	c #F9C000",
"b.	c #FBC800",
"c.	c #FBC600",
"d.	c #F8BB00",
"e.	c #F6B300",
"f.	c #FAA500",
"g.	c #FD9C00",
"h.	c #FD9A00",
"i.	c #F89400",
"j.	c #E56B02",
"k.	c #E54401",
"l.	c #D51F01",
"m.	c #D31501",
"n.	c #D21401",
"o.	c #C61203",
"p.	c #D34C0A",
"q.	c #E87A02",
"r.	c #F49100",
"s.	c #F18D00",
"t.	c #ED9100",
"u.	c #D86501",
"v.	c #E69600",
"w.	c #F7C000",
"x.	c #F8AB00",
"y.	c #F9A400",
"z.	c #F99D00",
"A.	c #FB9900",
"B.	c #FD9800",
"C.	c #FCA000",
"D.	c #FAA700",
"E.	c #F2A100",
"F.	c #E06901",
"G.	c #D94501",
"H.	c #DA2D01",
"I.	c #CF1106",
"J.	c #BA1512",
"K.	c #D21F10",
"L.	c #DB5002",
"M.	c #E87701",
"N.	c #EF9000",
"O.	c #EFA200",
"P.	c #F3AF00",
"Q.	c #DA6B01",
"R.	c #DD7D00",
"S.	c #F1AE00",
"T.	c #F7B300",
"U.	c #EC9500",
"V.	c #E47800",
"W.	c #F59200",
"X.	c #F89500",
"Y.	c #F89700",
"Z.	c #FB9800",
"`.	c #FDA000",
" +	c #FBAD00",
".+	c #F6B000",
"++	c #EE9700",
"@+	c #EE8800",
"#+	c #EB7C01",
"$+	c #D65605",
"%+	c #C01D1A",
"&+	c #DA1705",
"*+	c #DD3601",
"=+	c #E47501",
"-+	c #F7B400",
";+	c #F6B900",
">+	c #E08300",
",+	c #D96600",
"'+	c #ED9C00",
")+	c #E89502",
"!+	c #D65802",
"~+	c #DB4F00",
"{+	c #DD5E01",
"]+	c #E76A01",
"^+	c #F38900",
"/+	c #F8A100",
"(+	c #FAAF00",
"_+	c #F7AE00",
":+	c #EE9B00",
"<+	c #EE8D00",
"[+	c #EF8A00",
"}+	c #DE6509",
"|+	c #CB4C28",
"1+	c #D01203",
"2+	c #D21301",
"3+	c #E37600",
"4+	c #F3A600",
"5+	c #FABE00",
"6+	c #F7C600",
"7+	c #EBA600",
"8+	c #D35C01",
"9+	c #D96201",
"0+	c #DB6101",
"a+	c #D54501",
"b+	c #DA4F01",
"c+	c #D43205",
"d+	c #E43304",
"e+	c #E35F02",
"f+	c #F09B00",
"g+	c #F5AC00",
"h+	c #EE9A00",
"i+	c #DB6402",
"j+	c #CD491B",
"k+	c #C4130C",
"l+	c #D21001",
"m+	c #DF5E00",
"n+	c #E79300",
"o+	c #F6C000",
"p+	c #F9C300",
"q+	c #F5B600",
"r+	c #DC6E00",
"s+	c #CF2901",
"t+	c #DB5101",
"u+	c #E36600",
"v+	c #D64B01",
"w+	c #D62A04",
"x+	c #E50603",
"y+	c #DD2902",
"z+	c #E37801",
"A+	c #EC9200",
"B+	c #EE8C00",
"C+	c #EE8701",
"D+	c #E06F01",
"E+	c #D24F02",
"F+	c #D12105",
"G+	c #D92E00",
"H+	c #D96D00",
"I+	c #E6A100",
"J+	c #F8B800",
"K+	c #FAB200",
"L+	c #E06301",
"M+	c #E77201",
"N+	c #E97501",
"O+	c #D03503",
"P+	c #DA2601",
"Q+	c #E40B01",
"R+	c #E50103",
"S+	c #E15202",
"T+	c #E87A00",
"U+	c #EE8201",
"V+	c #E37402",
"W+	c #D96902",
"X+	c #D15202",
"Y+	c #C23B18",
"Z+	c #D02B04",
"`+	c #D94401",
" @	c #D96C00",
".@	c #EE9E00",
"+@	c #FAA100",
"@@	c #F79000",
"#@	c #EF8200",
"$@	c #E06402",
"%@	c #CF1F06",
"&@	c #E10702",
"*@	c #E50401",
"=@	c #EB0204",
"-@	c #E95103",
";@	c #E87100",
">@	c #E66F01",
",@	c #DC6303",
"'@	c #DF7302",
")@	c #CF4304",
"!@	c #C31F08",
"~@	c #D32004",
"{@	c #E13801",
"]@	c #DE5A00",
"^@	c #F38400",
"/@	c #FB9500",
"(@	c #F08500",
"_@	c #DE6402",
":@	c #D75105",
"<@	c #E62401",
"[@	c #E51501",
"}@	c #E41B02",
"|@	c #E34D02",
"1@	c #DC5402",
"2@	c #D95702",
"3@	c #E16D01",
"4@	c #D93902",
"5@	c #E12602",
"6@	c #DC3201",
"7@	c #CA250B",
"8@	c #C61F08",
"9@	c #DF1B04",
"0@	c #E92B00",
"a@	c #E25000",
"b@	c #F08100",
"c@	c #F79600",
"d@	c #F89E00",
"e@	c #F8A400",
"f@	c #EF9D01",
"g@	c #E05C00",
"h@	c #DC4401",
"i@	c #DA4601",
"j@	c #D3420B",
"k@	c #C93612",
"l@	c #C32F0F",
"m@	c #C83205",
"n@	c #D82102",
"o@	c #EB2001",
"p@	c #C71A06",
"q@	c #CD1E04",
"r@	c #DC1601",
"s@	c #E62700",
"t@	c #E34D01",
"u@	c #ED7B00",
"v@	c #F5A300",
"w@	c #F3AE00",
"x@	c #ED9700",
"y@	c #EB8300",
"z@	c #EB7F01",
"A@	c #D65806",
"B@	c #C74839",
"C@	c #C4250F",
"D@	c #DD2204",
"E@	c #EA2401",
"F@	c #E22C02",
"G@	c #D1250A",
"H@	c #CA0F15",
"I@	c #D80D04",
"J@	c #E52201",
"K@	c #E64F01",
"L@	c #E17600",
"M@	c #E28200",
"N@	c #ED8101",
"O@	c #DB6608",
"P@	c #C61B13",
"Q@	c #DA1905",
"R@	c #EF1F00",
"S@	c #CB2804",
"T@	c #D01908",
"U@	c #D31301",
"V@	c #DA2E00",
"W@	c #E14400",
"X@	c #E15002",
"Y@	c #D65709",
"Z@	c #C64114",
"`@	c #C70F0E",
" #	c #DC1100",
".#	c #EE1E00",
"+#	c #E03100",
"@#	c #C61F03",
"##	c #C71F0A",
"$#	c #D51802",
"%#	c #D80E00",
"&#	c #CD0D04",
"*#	c #BB1B15",
"=#	c #C8221E",
"-#	c #ED1E00",
";#	c #DF2D00",
">#	c #CB1F03",
",#	c #CA110F",
"'#	c #D91305",
")#	c #EC1D00",
"!#	c #E62D03",
"~#	c #CA2404",
"{#	c #C61515",
"]#	c #DE1703",
"^#	c #EF1A01",
"/#	c #E22E01",
"(#	c #C81F08",
"_#	c #C71E13",
":#	c #DD1F05",
"<#	c #EF1A00",
"[#	c #DC2F01",
"}#	c #C82203",
"|#	c #C62014",
"1#	c #DE1A02",
"2#	c #EC1F00",
"3#	c #DF3002",
"4#	c #CC2806",
"5#	c #C3140B",
"6#	c #DE1603",
"7#	c #ED1F01",
"8#	c #DF3402",
"9#	c #CF2B0A",
"0#	c #CC261B",
"a#	c #DE1602",
"b#	c #EC2200",
"c#	c #E13304",
"d#	c #C42511",
"e#	c #CB2516",
"f#	c #DD1801",
"g#	c #EB2000",
"h#	c #E22903",
"i#	c #C52D0F",
"j#	c #CA190F",
"k#	c #DA1C07",
"l#	c #D21B0A",
"                              . + @ #                                 ",
"                            $         % &                             ",
"                          * =             -                           ",
"                        ; > , '           ) !                         ",
"                      ~ { ] ^ /             ( _                       ",
"              : < [ } | 1 2 3 4               5 6                     ",
"            7 8 9 0 a b c d e   f g             h i                   ",
"            j k l m n o p q r s   t u             v                   ",
"            w x y z A B C D E F G H I J             K                 ",
"            L M N O P Q R S T U V W X Y Z           `                 ",
"           ...n +.@.Q #.$.%.&.*.=.-.;.>.,.'.                          ",
"        ).!.~.{.].^.R $./.(._.:.<.[.}.|.1.2.3.      4.                ",
"      5.6.7.8.9.0.a.b.c.d.e.f.g.h.h.i.y j.k.l.m.n.o.                  ",
"    p.q.r.s.t.u.v.w.%.C x.y.z.A.B.h.C.D.E.F.G.H.I.J.                  ",
"  K.L.M.N.O.P.Q.R.S.T.U.V.W.X.Y.Z.`. +.+++@+#+$+%+                    ",
"  &+*+=+B -+;+>+,+'+)+!+~+{+]+^+/+(+_+:+<+[+}+|+                      ",
"  1+2+3+4+5+6+7+8+9+0+a+b+c+d+e+f+g+h+A @+i+j+                        ",
"  k+l+m+n+o+p+q+r+s+t+u+v+w+x+y+z+A+B+C+D+E+                          ",
"    F+G+H+I+J+K+8.L+M+N+O+P+Q+R+S+T+U+V+W+X+Y+                        ",
"      Z+`+ @.@+@Z.@@#@$@%@&@*@=@-@;@>@,@'@)@!@                        ",
"        ~@{@]@^@/@A.(@_@:@<@[@}@|@1@2@3@4@5@6@7@                      ",
"        8@9@0@a@b@c@d@e@f@g@h@i@j@k@l@m@n@o@    p@                    ",
"          q@r@s@t@u@v@w@x@y@z@A@B@      C@D@E@  F@G@                  ",
"            H@I@J@K@L@M@!.N@O@            P@Q@R@    S@                ",
"                T@U@V@W@X@Y@Z@              `@ #.#  +#@#              ",
"                  ##$#%#&#*#                  =# #-#  ;#>#            ",
"                                                ,#'#)#  !#~#          ",
"                                                  {#]#^#  /#(#        ",
"                                                    _#:#<#  [#}#      ",
"                                                      |#1#2#  3#4#    ",
"                                                        5#6#7#  8#9#  ",
"                                                          0#a#b#  c#d#",
"                                                            e#f#g#h#i#",
"                                                              j#k#l#  ",
"                                                                      "};
