/* XPM */
static xpm_row_t const hammer_0_small_xpm[] = {
"35 36 287 2",
"  	c None",
". 	c #000101",
"+ 	c #000001",
"@ 	c #000000",
"# 	c #010201",
"$ 	c #000F26",
"% 	c #000B22",
"& 	c #01030A",
"* 	c #020207",
"= 	c #00091A",
"- 	c #000716",
"; 	c #070005",
"> 	c #080A04",
", 	c #001037",
"' 	c #001744",
") 	c #00142A",
"! 	c #000A1D",
"~ 	c #010101",
"{ 	c #070908",
"] 	c #001239",
"^ 	c #001B50",
"/ 	c #000B2C",
"( 	c #080602",
"_ 	c #130B09",
": 	c #071E0D",
"< 	c #08010D",
"[ 	c #011135",
"} 	c #001A4F",
"| 	c #001238",
"1 	c #00193C",
"2 	c #000816",
"3 	c #000717",
"4 	c #4F4705",
"5 	c #C2A000",
"6 	c #281E05",
"7 	c #001039",
"8 	c #001E55",
"9 	c #000F37",
"0 	c #001B41",
"a 	c #000D20",
"b 	c #000409",
"c 	c #4D3401",
"d 	c #D0A100",
"e 	c #574A05",
"f 	c #001338",
"g 	c #001953",
"h 	c #001237",
"i 	c #001E40",
"j 	c #00142D",
"k 	c #000C1F",
"l 	c #000203",
"m 	c #4F3E06",
"n 	c #CE9A00",
"o 	c #5C3F04",
"p 	c #000E36",
"q 	c #001C55",
"r 	c #001034",
"s 	c #011C48",
"t 	c #000F2A",
"u 	c #000D24",
"v 	c #000404",
"w 	c #9E7F01",
"x 	c #5F5106",
"y 	c #001B57",
"z 	c #00183E",
"A 	c #001D53",
"B 	c #001D51",
"C 	c #000F2C",
"D 	c #01081F",
"E 	c #050502",
"F 	c #01020A",
"G 	c #001A4E",
"H 	c #001137",
"I 	c #001A3F",
"J 	c #001D52",
"K 	c #001A51",
"L 	c #001B52",
"M 	c #001B54",
"N 	c #00113C",
"O 	c #000714",
"P 	c #000306",
"Q 	c #010211",
"R 	c #001031",
"S 	c #001D46",
"T 	c #001A52",
"U 	c #001952",
"V 	c #001B4A",
"W 	c #00091C",
"X 	c #000A28",
"Y 	c #000928",
"Z 	c #010207",
"` 	c #030305",
" .	c #001956",
"..	c #001136",
"+.	c #001B45",
"@.	c #001B51",
"#.	c #001B55",
"$.	c #00163D",
"%.	c #00194C",
"&.	c #01081C",
"*.	c #020206",
"=.	c #000D31",
"-.	c #001C54",
";.	c #010D27",
">.	c #000620",
",.	c #001B53",
"'.	c #001C51",
").	c #001A42",
"!.	c #001139",
"~.	c #001948",
"{.	c #00071E",
"].	c #040202",
"^.	c #001131",
"/.	c #000A1A",
"(.	c #000206",
"_.	c #001C42",
":.	c #001942",
"<.	c #001A53",
"[.	c #001E53",
"}.	c #001A43",
"|.	c #00194F",
"1.	c #010820",
"2.	c #001F54",
"3.	c #00113A",
"4.	c #011639",
"5.	c #00173C",
"6.	c #010106",
"7.	c #010D29",
"8.	c #00174E",
"9.	c #001E57",
"0.	c #001844",
"a.	c #01091A",
"b.	c #000209",
"c.	c #00194E",
"d.	c #001C3E",
"e.	c #010103",
"f.	c #000F2B",
"g.	c #000309",
"h.	c #000416",
"i.	c #000B28",
"j.	c #020104",
"k.	c #020313",
"l.	c #001D56",
"m.	c #001339",
"n.	c #00174A",
"o.	c #000524",
"p.	c #040503",
"q.	c #010004",
"r.	c #001B3E",
"s.	c #010D26",
"t.	c #01020D",
"u.	c #000715",
"v.	c #00173E",
"w.	c #020109",
"x.	c #040611",
"y.	c #280102",
"z.	c #060305",
"A.	c #01173C",
"B.	c #001537",
"C.	c #000720",
"D.	c #9A8106",
"E.	c #2D2501",
"F.	c #010100",
"G.	c #001C41",
"H.	c #001E42",
"I.	c #020205",
"J.	c #010102",
"K.	c #00123D",
"L.	c #001745",
"M.	c #040005",
"N.	c #0B0A0E",
"O.	c #2A0002",
"P.	c #720206",
"Q.	c #0A0D20",
"R.	c #001F4F",
"S.	c #00061C",
"T.	c #9B8002",
"U.	c #987D01",
"V.	c #080305",
"W.	c #001228",
"X.	c #001E50",
"Y.	c #010C2D",
"Z.	c #000D2D",
"`.	c #002057",
" +	c #000C25",
".+	c #190201",
"++	c #220304",
"@+	c #EB0A05",
"#+	c #4B0107",
"$+	c #000B23",
"%+	c #9A7102",
"&+	c #996A04",
"*+	c #080A1E",
"=+	c #02050D",
"-+	c #000204",
";+	c #001A50",
">+	c #001038",
",+	c #030505",
"'+	c #0B030A",
")+	c #280200",
"!+	c #2D0205",
"~+	c #F90609",
"{+	c #630304",
"]+	c #806300",
"^+	c #A48403",
"/+	c #090C18",
"(+	c #001B4E",
"_+	c #000308",
":+	c #000613",
"<+	c #001E52",
"[+	c #001A54",
"}+	c #000E2C",
"|+	c #000516",
"1+	c #0A0204",
"2+	c #2F0102",
"3+	c #1D0102",
"4+	c #C70703",
"5+	c #1C0806",
"6+	c #1A1606",
"7+	c #090407",
"8+	c #00112B",
"9+	c #001D54",
"0+	c #001F53",
"a+	c #030309",
"b+	c #01071B",
"c+	c #001A55",
"d+	c #001950",
"e+	c #001954",
"f+	c #001E54",
"g+	c #001849",
"h+	c #010C28",
"i+	c #02040E",
"j+	c #150102",
"k+	c #0E0002",
"l+	c #020102",
"m+	c #010C2C",
"n+	c #010309",
"o+	c #00194A",
"p+	c #001C50",
"q+	c #001C52",
"r+	c #001941",
"s+	c #000819",
"t+	c #05030D",
"u+	c #020202",
"v+	c #00102C",
"w+	c #001F55",
"x+	c #02030F",
"y+	c #001036",
"z+	c #00153A",
"A+	c #000823",
"B+	c #0F0209",
"C+	c #0D0902",
"D+	c #000F29",
"E+	c #090B03",
"F+	c #000513",
"G+	c #01040A",
"H+	c #00071F",
"I+	c #00071D",
"J+	c #020401",
"K+	c #010308",
"L+	c #0B0A02",
"M+	c #00102D",
"N+	c #001F52",
"O+	c #040306",
"P+	c #050402",
"Q+	c #000F2D",
"R+	c #010307",
"S+	c #000103",
"T+	c #001F56",
"U+	c #010209",
"V+	c #060703",
"W+	c #00112E",
"X+	c #001E51",
"Y+	c #030407",
"Z+	c #010204",
"`+	c #00112F",
" @	c #050503",
".@	c #000104",
"+@	c #000102",
"@@	c #00112C",
"#@	c #001C53",
"$@	c #050304",
"%@	c #00102E",
"&@	c #00143B",
"*@	c #00030E",
"=@	c #030302",
"-@	c #020304",
"                              . +   @                                 ",
"                            # $   %   &                               ",
"                          * =           - ;                           ",
"                        > , ' )           ! ~                         ",
"                      { ] ^ /               = (                       ",
"                _ : < [ } | 1 2               3                       ",
"              4 5 6 7 8 9 0     a               b                     ",
"            c d e f g h i       j k               l                   ",
"          m n o p q r s           t u             v                   ",
"          w x h y h z           A B C D           E                   ",
"          F h G H I           J K L M N O         P                   ",
"        Q R M | S           J L T U T M V W X Y Z                     ",
"      ` r  ...+.          B L L @.L #.A z $.%.&.                      ",
"    *.=.-.;.>.          J L L L @.,.'.).!.~.{.                        ",
"  ].^.B p /.(.      _.:.^ K @.<.'.[.}.h |.1.                          ",
". 9 2.3._.4.+     5.6.7.8.B T [.9.0.h } a.                            ",
"b.c.9 d.    e.f.  g.h.i.j.k.7 l.I m.n.o.p.                            ",
"q.% r.      s.t.u.F v.w.x.y.z.A.B.[.C.D.E.                            ",
"F.G.        H.I.J.K.L.M.N.O.P.Q.R.S.T.U.V.                            ",
"J.W.        X.Y.Z.`. +  .+++@+#+$+%+&+*+  =+                          ",
"  -+      X.@.@.;+>+,+'+)+!+~+{+]+^+/+(+    _+                        ",
"    :+  <+[+@.L T }+|+1+2+3+4+5+6+7+8+9+0+    a+                      ",
"      b+%.c+d+e+,.f+g+h+i+j+k+      l+m+<+'.    n+                    ",
"        h.o+,.p+q+r+, T s+t+          u+v+w+J     n+                  ",
"          x+y+-.+.z+~.A+B+              C+D+q+<+    g.                ",
"            E+F+G+H+I+J+                  + t 2.p+    K+              ",
"                                            L+M+[.N+    O+            ",
"                                              P+Q+p+J     R+          ",
"                                                S+v+T+B     U+        ",
"                                                  V+W+X+N+    Y+      ",
"                                                    Z+Q+<+q+    K+    ",
"                                                      u+`+T+B     g.  ",
"                                                         @8+q+<+    .@",
"                                                          +@@@w+#@  e.",
"                                                            $@%@&@*@  ",
"                                                              =@-@    "};
