/* XPM */
static xpm_row_t const  hammer_2_small_xpm[] = {
"35 35 271 2",
"  	c None",
". 	c #BE1A05",
"+ 	c #BC1C01",
"@ 	c #B92B10",
"# 	c #C11D0F",
"$ 	c #C62E00",
"% 	c #CB3600",
"& 	c #D53600",
"* 	c #C31E00",
"= 	c #BC1822",
"- 	c #BE2016",
"; 	c #CD1000",
"> 	c #D22E00",
", 	c #CD3000",
"' 	c #BC1B01",
") 	c #C01513",
"! 	c #D41100",
"~ 	c #F31500",
"{ 	c #CF2900",
"] 	c #D23500",
"^ 	c #BF1302",
"/ 	c #C0160B",
"( 	c #D31000",
"_ 	c #E11600",
": 	c #CB2D00",
"< 	c #D03600",
"[ 	c #BE1500",
"} 	c #BE2A04",
"| 	c #C22707",
"1 	c #C41210",
"2 	c #D21300",
"3 	c #E51600",
"4 	c #E02900",
"5 	c #CF2A00",
"6 	c #CE3300",
"7 	c #C01110",
"8 	c #00B2F8",
"9 	c #C33504",
"0 	c #E9BB00",
"a 	c #CD6400",
"b 	c #D41300",
"c 	c #DE1604",
"d 	c #E42800",
"e 	c #C62500",
"f 	c #0BB4F4",
"g 	c #C63802",
"h 	c #ECA800",
"i 	c #CD7100",
"j 	c #D71400",
"k 	c #E41600",
"l 	c #E42A00",
"m 	c #E82F00",
"n 	c #CB2C00",
"o 	c #C11805",
"p 	c #C43F00",
"q 	c #EAB400",
"r 	c #D26300",
"s 	c #D61100",
"t 	c #E21701",
"u 	c #E32F00",
"v 	c #E42000",
"w 	c #CC2400",
"x 	c #C0160E",
"y 	c #06B2F4",
"z 	c #CF6300",
"A 	c #D37400",
"B 	c #D50E01",
"C 	c #E31501",
"D 	c #E32B00",
"E 	c #E81800",
"F 	c #CA2500",
"G 	c #C31804",
"H 	c #C10C00",
"I 	c #D71300",
"J 	c #E31800",
"K 	c #E03000",
"L 	c #EF1401",
"M 	c #D01700",
"N 	c #CF3600",
"O 	c #C11901",
"P 	c #C01E04",
"Q 	c #D51200",
"R 	c #DF1600",
"S 	c #E33000",
"T 	c #D51F00",
"U 	c #D31700",
"V 	c #DF0F00",
"W 	c #BE0E01",
"X 	c #E11700",
"Y 	c #E42E00",
"Z 	c #E52E00",
"` 	c #E51400",
" .	c #F11300",
"..	c #C40E00",
"+.	c #C10F03",
"@.	c #D81500",
"#.	c #D91500",
"$.	c #C21000",
"%.	c #E32C00",
"&.	c #E41800",
"*.	c #EE1500",
"=.	c #C41000",
"-.	c #C1120D",
";.	c #DE1703",
">.	c #DB2300",
",.	c #C00A00",
"'.	c #D51300",
").	c #E82900",
"!.	c #E61700",
"~.	c #F21700",
"{.	c #C70D00",
"].	c #BE1707",
"^.	c #D51401",
"/.	c #DF1900",
"(.	c #E53100",
"_.	c #C21700",
":.	c #CF2300",
"<.	c #E22B00",
"[.	c #C00F00",
"}.	c #CF0E00",
"|.	c #DC1700",
"1.	c #E41300",
"2.	c #E41702",
"3.	c #ED1D01",
"4.	c #C71001",
"5.	c #BF301A",
"6.	c #D71100",
"7.	c #DF1700",
"8.	c #E33300",
"9.	c #CA2600",
"0.	c #C31000",
"a.	c #C31100",
"b.	c #CB0D00",
"c.	c #D20D00",
"d.	c #C22200",
"e.	c #CE1400",
"f.	c #D00C00",
"g.	c #E22A00",
"h.	c #E41B00",
"i.	c #F01600",
"j.	c #CB2900",
"k.	c #C02A02",
"l.	c #C71400",
"m.	c #BE0E00",
"n.	c #C41300",
"o.	c #C40C00",
"p.	c #F21A00",
"q.	c #C51400",
"r.	c #EE2100",
"s.	c #CE1500",
"t.	c #CB1700",
"u.	c #E61900",
"v.	c #C72700",
"w.	c #E5AE01",
"x.	c #CC5800",
"y.	c #D21E00",
"z.	c #CD1300",
"A.	c #C20C00",
"B.	c #E31400",
"C.	c #EA1400",
"D.	c #C52F00",
"E.	c #C74800",
"F.	c #ED2200",
"G.	c #E11D00",
"H.	c #CC1700",
"I.	c #E81600",
"J.	c #E79900",
"K.	c #CD7400",
"L.	c #C71900",
"M.	c #BC1A04",
"N.	c #C11600",
"O.	c #DE1500",
"P.	c #D21000",
"Q.	c #C35700",
"R.	c #D72900",
"S.	c #E62200",
"T.	c #F22600",
"U.	c #DC1B00",
"V.	c #C22C00",
"W.	c #E7A600",
"X.	c #D41102",
"Y.	c #D42800",
"Z.	c #BE1804",
"`.	c #C81600",
" +	c #DD1000",
".+	c #C01200",
"++	c #C42F00",
"@+	c #EE2500",
"#+	c #E62100",
"$+	c #D51901",
"%+	c #CD5700",
"&+	c #CE6D01",
"*+	c #CD1F01",
"=+	c #D42D00",
"-+	c #BA170B",
";+	c #CF1B00",
">+	c #F11800",
",+	c #E51E00",
"'+	c #C81000",
")+	c #D11500",
"!+	c #E51F00",
"~+	c #D01200",
"{+	c #BE1A00",
"]+	c #C10E00",
"^+	c #E52A00",
"/+	c #D62D00",
"(+	c #BE1703",
"_+	c #BD2B1E",
":+	c #CE1000",
"<+	c #DF2300",
"[+	c #E51900",
"}+	c #DA1600",
"|+	c #BD0D00",
"1+	c #C21303",
"2+	c #E42400",
"3+	c #D22A00",
"4+	c #BF1602",
"5+	c #C90C00",
"6+	c #EE1200",
"7+	c #E71A00",
"8+	c #E91700",
"9+	c #C60C00",
"0+	c #C01203",
"a+	c #E62700",
"b+	c #D42B00",
"c+	c #BF1905",
"d+	c #C41004",
"e+	c #D81F00",
"f+	c #EA1600",
"g+	c #C61000",
"h+	c #BE1402",
"i+	c #D22D00",
"j+	c #BC1F06",
"k+	c #BF1D03",
"l+	c #C02816",
"m+	c #BE1F12",
"n+	c #BD0E01",
"o+	c #C01501",
"p+	c #E32600",
"q+	c #BD1209",
"r+	c #C01402",
"s+	c #E42900",
"t+	c #D73000",
"u+	c #C01101",
"v+	c #BD1202",
"w+	c #E32700",
"x+	c #D52C00",
"y+	c #BF1501",
"z+	c #BF1403",
"A+	c #E22600",
"B+	c #D92A00",
"C+	c #BD1111",
"D+	c #BE1303",
"E+	c #E42B00",
"F+	c #D72F00",
"G+	c #BD1201",
"H+	c #BD1102",
"I+	c #E02700",
"J+	c #D82C00",
"K+	c #C01102",
"L+	c #BE1004",
"M+	c #D93300",
"N+	c #BC1002",
"O+	c #E12800",
"P+	c #BD1405",
"Q+	c #C21901",
"R+	c #DB2200",
"S+	c #EE1D00",
"T+	c #C90C01",
"U+	c #C02003",
"V+	c #BF1402",
"                              . +   @                                 ",
"                            # $   % & * =                             ",
"                          - ; >         , '                           ",
"                        ) ! ~ {           ] ^                         ",
"                      / (   _ :             < [                       ",
"                } | 1 2   3 4 5               6 7                     ",
"      8       9 0 a b   c d     e               e                     ",
"  f         g h i j   k l       m n               o                   ",
"          p q r s   t u           v w             x                   ",
"y         z A B   C D               E F           G                   ",
"          H I   J K                   L M N       O                   ",
"        P Q   R S                         T U V W                     ",
"      x I   X Y                         Z `  ...                      ",
"    +.@.  #.$.                        %.&.*.=.                        ",
"  -.j   ;.>.,.      4 '.            ).!.~.{.                          ",
"].^.  /.(.  _.:.  <.[.}.|.1.      D 2.3.4.                            ",
"5.6.7.8.    9.0.  a.b.c.d.e.f.  g.h.i.j.k.                            ",
"  l.          m.n.o.p.q.  r.s.t.u.~.v.w.x.                            ",
"  y.          z.A.B.C.D.E.F.G.H.I.v.J.K.L.M.                          ",
"  N.          ~ O.  P.Q.R.S.T.U.V.W.r X.  Y.Z.                        ",
"    `.             +.+++@+#+T.$+%+&+*+      =+-+                      ",
"      ;+          >+,+'+)+!+~+{+    ]+^+      /+(+                    ",
"      _+:+          <+[+}+|+          1+2+      3+4+                  ",
"          5+6+    2+7+8+9+              0+a+      b+c+                ",
"            d+@.e+U f+g+                  h+^+      i+j+              ",
"              k+l+m+n+                      o+p+      /+q+            ",
"                                              r+s+      t+u+          ",
"                                                v+w+      x+y+        ",
"                                                  z+A+      B+C+      ",
"                                                    D+E+      F+G+    ",
"                                                      H+I+      J+K+  ",
"                                                        L+A+      M+N+",
"                                                          v+O+      P+",
"                                                            Q+R+S+T+  ",
"                                                              U+V+    "};
