/* XPM */
static xpm_row_t const  arrow_left_normal_xpm[] = {
"75 32 2 1",
" 	c None",
".	c #000000",
"                                    ...                                    ",
"                                   ...                                     ",
"                                 .....                                     ",
"                               ..  . .                                     ",
"                             ..   . ..                                     ",
"                            ..   ....                                      ",
"                          ..     ...                                       ",
"                        ...     ...                                        ",
"                      ...       ..                                         ",
"                    ...        .............                               ",
"                  ...                  ................................... ",
"                ...                                                     ...",
"              ..                                                          .",
"           ...                                                            .",
"       ....                                                               .",
"........                                                                  .",
" . .....                                                                  .",
" ..... .....                                                              .",
" .......  . ...                                                           .",
"       ....  . ...              .....    ...............................  .",
"          .. . . ...            .  .........  ..  .. .......... ..  .......",
"             .... . ...         .  . .  .   .  .   .  .  .  .     .    ..  ",
"                .. . ....        ......................  ...............   ",
"                 ...  .....      .                                         ",
"                    ..  . ...    .                                         ",
"                      ...    ..   .                                        ",
"                        .. . . .. ..                                       ",
"                           .  .  . .                                       ",
"                             .. . ...                                      ",
"                              ...  ....                                    ",
"                                .. . ..                                    ",
"                                  ...                                      "};
