/* XPM */
static xpm_row_t const  calendar_normal_xpm[] = {
"57 50 43 1",
" 	c None",
".	c #657180",
"+	c #616E7E",
"@	c #ABD4C8",
"#	c #AAD4C8",
"$	c #ABD5C9",
"%	c #ACD5C9",
"&	c #ABD4C9",
"*	c #9BCCBD",
"=	c #81BFAA",
"-	c #637380",
";	c #688488",
">	c #667B84",
",	c #667C84",
"'	c #647782",
")	c #677E86",
"!	c #76A59A",
"~	c #76A59B",
"{	c #698489",
"]	c #6F9591",
"^	c #7BACA0",
"/	c #81BFAB",
"(	c #6F9592",
"_	c #77A79C",
":	c #748B91",
"<	c #667C85",
"[	c #657482",
"}	c #739E97",
"|	c #7BB3A3",
"1	c #6C8E8E",
"2	c #71858D",
"3	c #9FC5BC",
"4	c #729C95",
"5	c #678087",
"6	c #6F9491",
"7	c #6A878A",
"8	c #6D808A",
"9	c #92B4AF",
"0	c #6E9290",
"a	c #677382",
"b	c #6C7886",
"c	c #636F7F",
"d	c #626F7F",
"           .++                             ++.           ",
"           .++                             ++.           ",
"           .++                             ++.           ",
"           .++                             ++.           ",
"  @####### .++  #########################  ++. ########  ",
" ######### .++  #########################  ++. ######### ",
"########## .++  #########################  ++. #########@",
"########## .++  #########################  ++. ##########",
"########## .++  #########################  ++. ##########",
"##########      #########################      $#########",
"##########%$$$&###########################&$$$%##########",
"*********************************************************",
"=========================================================",
"=========================================================",
"#########################################################",
"#########################################################",
"                                                         ",
"+++++++++++++++++++++++++++++++++++++++++++++++++++++++++",
"+++++++++++++++++++++++++++++++++++++++++++++++++++++++++",
"+++++++++++++-;;;;;;;;++>;;;;;;;,++;;;;;;;;-+';;;;;;;)+++",
"+++++++++++++;========++!=======~++========{+]=======^+++",
"+++++++++++++;========++!=======~++========{+]=======^+++",
"+++++++++++++;========++!=======~++========{+]=======^+++",
"+++++++++++++;========++!=======~++========{+]=======^+++",
"+++++++++++++;========++!=======~++========{+]=======^+++",
"+++++++++++++;========++!=======~++========{+]=======^+++",
"+++++++++++++;////////++~///////~++////////{+(///////^+++",
"+++++++++++++++++++++++++++++++++++++++++++++++++++++++++",
"+++++++++++++++++++++++++++++++++++++++++++++++++++++++++",
"+++_=======(+;========++!=======~++########:+]=======^+++",
"+++_=======(+;========++!=======~++########:+]=======^+++",
"+++_=======(+;========++!=======~++########:+]=======^+++",
"+++_=======(+;========++!=======~++########:+]=======^+++",
"+++_=======(+;========++!=======~++########:+]=======^+++",
"+++_=======(+;========++!=======~++########:+]=======^+++",
"+++_=======(+;========++!=======~++########:+]=======^+++",
"+++<;;;;;;;'+-;;;;;;;;++>;;;;;;;,++::::::::[+';;;;;;;)+++",
"+++++++++++++++++++++++++++++++++++++++++++++++++++++++++",
"+++}|||||||1+233333333++4|||||||4++||||||||5+++++++++++++",
"+++_=======(+:########++!=======~++========{+++++++++++++",
"+++_=======(+:########++!=======~++========{+++++++++++++",
"+++_=======(+:########++!=======~++========{+++++++++++++",
"+++_=======(+:########++!=======~++========{+++++++++++++",
"+++_=======(+:########++!=======~++========{+++++++++++++",
"+++_=======(+:########++!=======~++========{+++++++++++++",
"+++6~~~~~~~7+899999999++0~~~~~~~0++~~~~~~~~<+++++++++++++",
"+++++++++++++++++++++++++++++++++++++++++++++++++++++++++",
"a+++++++++++++++++++++++++++++++++++++++++++++++++++++++a",
" +++++++++++++++++++++++++++++++++++++++++++++++++++++++ ",
" bc+++++++++++++++++++++++++++++++++++++++++++++++++++db "};
