/* XPM */
static xpm_row_t const clock_normal_xpm[] = {
"65 64 669 2",
"  	c None",
". 	c #F1DDB0",
"+ 	c #F1DEB2",
"@ 	c #F0DBAA",
"# 	c #EDD59B",
"$ 	c #ECD397",
"% 	c #EDD69D",
"& 	c #F0DCAC",
"* 	c #F1DFB3",
"= 	c #F1DEB0",
"- 	c #F0DCAD",
"; 	c #E8C983",
"> 	c #DFB763",
", 	c #DBAC4C",
"' 	c #DAAA43",
") 	c #DAA83E",
"! 	c #D9A638",
"~ 	c #D8A434",
"{ 	c #D8A331",
"] 	c #D8A432",
"^ 	c #D9A634",
"/ 	c #D9A536",
"( 	c #D9A83C",
"_ 	c #DBAA42",
": 	c #DAAA45",
"< 	c #DCAE50",
"[ 	c #E2BD6C",
"} 	c #EBD195",
"| 	c #F2DFB5",
"1 	c #EFDBA9",
"2 	c #E5C37A",
"3 	c #DDB154",
"4 	c #DAA83D",
"5 	c #D7A022",
"6 	c #D39705",
"7 	c #D19301",
"8 	c #D19300",
"9 	c #D29301",
"0 	c #D19201",
"a 	c #D29401",
"b 	c #D19400",
"c 	c #D19401",
"d 	c #D49A0E",
"e 	c #D7A229",
"f 	c #DBAA44",
"g 	c #DFB561",
"h 	c #E7C781",
"i 	c #E9CD90",
"j 	c #E1BA6A",
"k 	c #DBAA40",
"l 	c #D59B15",
"m 	c #D19202",
"n 	c #D29506",
"o 	c #D69E1C",
"p 	c #DAA731",
"q 	c #DDAF44",
"r 	c #DDAF45",
"s 	c #DCAC3E",
"t 	c #D9A42A",
"u 	c #D3980B",
"v 	c #D09102",
"w 	c #D19302",
"x 	c #D29503",
"y 	c #D29502",
"z 	c #D79F20",
"A 	c #DCAE4B",
"B 	c #E4BF75",
"C 	c #EBD196",
"D 	c #EACF92",
"E 	c #E1B864",
"F 	c #D8A229",
"G 	c #D29402",
"H 	c #D09100",
"I 	c #D49910",
"J 	c #DCAC3F",
"K 	c #E2BC68",
"L 	c #E6C683",
"M 	c #E9CC91",
"N 	c #EACF9A",
"O 	c #ECD49F",
"P 	c #EED8A5",
"Q 	c #F1DDAF",
"R 	c #F1DEB1",
"S 	c #EDD6A1",
"T 	c #EACF96",
"U 	c #EACE97",
"V 	c #E8CB8E",
"W 	c #E0B75C",
"X 	c #D9A62F",
"Y 	c #D39707",
"Z 	c #D29300",
"` 	c #D39704",
" .	c #E4C074",
"..	c #ECD49C",
"+.	c #EED7A3",
"@.	c #E3BF72",
"#.	c #D8A32A",
"$.	c #D19402",
"%.	c #D29400",
"&.	c #D4990E",
"*.	c #DCAD44",
"=.	c #E3BF74",
"-.	c #E9CD93",
";.	c #EFDAAA",
">.	c #F5E7C4",
",.	c #F6E9CA",
"'.	c #F4E7C5",
").	c #F7EBCE",
"!.	c #F3E4BD",
"~.	c #E7C888",
"{.	c #E2BB69",
"].	c #D9A633",
"^.	c #D39605",
"/.	c #D39809",
"(.	c #DAA93C",
"_.	c #E7C782",
":.	c #E8CA88",
"<.	c #DCAD43",
"[.	c #D29505",
"}.	c #D69E19",
"|.	c #DDAF4F",
"1.	c #E6C581",
"2.	c #EFDBAC",
"3.	c #F6EBCD",
"4.	c #E5C379",
"5.	c #E1BB66",
"6.	c #E9CB8B",
"7.	c #F3E2BD",
"8.	c #F5E8C7",
"9.	c #EED6A2",
"0.	c #DAAA3D",
"a.	c #D49A10",
"b.	c #D19200",
"c.	c #D49B15",
"d.	c #E0B65B",
"e.	c #EBD197",
"f.	c #F0DCAF",
"g.	c #E3BE6F",
"h.	c #D59D1A",
"i.	c #D29501",
"j.	c #DCAC47",
"k.	c #E7C884",
"l.	c #F2E0B7",
"m.	c #F5E8C8",
"n.	c #E0B861",
"o.	c #D2960A",
"p.	c #D49A13",
"q.	c #E9CC8F",
"r.	c #F6EACB",
"s.	c #D8A433",
"t.	c #D39604",
"u.	c #D8A430",
"v.	c #E8CA89",
"w.	c #EFD9A7",
"x.	c #DFB459",
"y.	c #D29405",
"z.	c #D8A42F",
"A.	c #F1DEB3",
"B.	c #F5E7C5",
"C.	c #DCAD4A",
"D.	c #E6C582",
"E.	c #EDD5A1",
"F.	c #DFB55A",
"G.	c #D69E1E",
"H.	c #D59C1A",
"I.	c #E6C47B",
"J.	c #EDD59E",
"K.	c #DDAF4C",
"L.	c #D29403",
"M.	c #D39708",
"N.	c #DBAB44",
"O.	c #ECD298",
"P.	c #EFDCAF",
"Q.	c #E8CB89",
"R.	c #D9A738",
"S.	c #D69F24",
"T.	c #EDD5A0",
"U.	c #F4E5C1",
"V.	c #F2E2BC",
"W.	c #F3E4BF",
"X.	c #E7C780",
"Y.	c #D7A12C",
"Z.	c #D49A12",
"`.	c #E2BB64",
" +	c #EDD49C",
".+	c #DDB052",
"++	c #F0DDAF",
"@+	c #DCAD46",
"#+	c #D8A531",
"$+	c #ECD39B",
"%+	c #F6EACA",
"&+	c #EFDAA9",
"*+	c #ECD398",
"=+	c #F2E1B7",
"-+	c #F5E9C9",
";+	c #E4C072",
">+	c #E2BA64",
",+	c #F3E2BB",
"'+	c #ECD299",
")+	c #DAA83C",
"!+	c #D3980F",
"~+	c #E1B960",
"{+	c #EED9A8",
"]+	c #DCAD49",
"^+	c #D29603",
"/+	c #D49A14",
"(+	c #E1B964",
"_+	c #F2E2BB",
":+	c #EACE8E",
"<+	c #D69E1D",
"[+	c #E6C580",
"}+	c #F7EBCF",
"|+	c #F4E6C3",
"1+	c #D8A42A",
"2+	c #EED5A2",
"3+	c #F0DBAC",
"4+	c #DDB04B",
"5+	c #D3980A",
"6+	c #E4BF6E",
"7+	c #DDB152",
"8+	c #D59D19",
"9+	c #E4C071",
"0+	c #F4E4C0",
"a+	c #F0DEB1",
"b+	c #DDB04F",
"c+	c #EDD49D",
"d+	c #F5E9CA",
"e+	c #E4C275",
"f+	c #D8A330",
"g+	c #E4C174",
"h+	c #F0DCAE",
"i+	c #DDB14C",
"j+	c #D4990D",
"k+	c #D49A15",
"l+	c #E0B968",
"m+	c #D3970B",
"n+	c #D39609",
"o+	c #E1BB69",
"p+	c #F3E5C2",
"q+	c #F3E2BA",
"r+	c #F2E0B6",
"s+	c #F4E6C4",
"t+	c #EFDCAD",
"u+	c #DCAF49",
"v+	c #D49A17",
"w+	c #E8C988",
"x+	c #E8CA87",
"y+	c #D69E22",
"z+	c #E0B75F",
"A+	c #F2E1BA",
"B+	c #EED8A7",
"C+	c #D8A534",
"D+	c #DAA939",
"E+	c #EBD298",
"F+	c #DAA83B",
"G+	c #D29604",
"H+	c #DDAF4A",
"I+	c #EACF93",
"J+	c #D7A129",
"K+	c #D29605",
"L+	c #DFB660",
"M+	c #D3970A",
"N+	c #D7A124",
"O+	c #EBD198",
"P+	c #D49C15",
"Q+	c #E6C47F",
"R+	c #ECD195",
"S+	c #DBAB47",
"T+	c #DEB253",
"U+	c #DAA93B",
"V+	c #EFDAAB",
"W+	c #F5E7C7",
"X+	c #E8CC8C",
"Y+	c #F3E3BE",
"Z+	c #E8C986",
"`+	c #D69F22",
" @	c #D49A11",
".@	c #E5C27A",
"+@	c #ECD399",
"@@	c #D49B1D",
"#@	c #E8C985",
"$@	c #F6E9CC",
"%@	c #EBD097",
"&@	c #D7A027",
"*@	c #E4C279",
"=@	c #F2E1B8",
"-@	c #D4980B",
";@	c #F4E5C2",
">@	c #DEB359",
",@	c #DCAC46",
"'@	c #E1BA64",
")@	c #D3980C",
"!@	c #EFDBAB",
"~@	c #E9CB8C",
"{@	c #D39811",
"]@	c #D19304",
"^@	c #E1BB6B",
"/@	c #D9A636",
"(@	c #D7A22F",
"_@	c #EACE91",
":@	c #D6A024",
"<@	c #E6C57E",
"[@	c #D29609",
"}@	c #F6E8C9",
"|@	c #E6C681",
"1@	c #E4C075",
"2@	c #F0DEB2",
"3@	c #E3BD71",
"4@	c #EBD199",
"5@	c #E0B65C",
"6@	c #DEB45E",
"7@	c #E9CD8E",
"8@	c #D39914",
"9@	c #D59D1F",
"0@	c #F5E8C9",
"a@	c #E6C784",
"b@	c #D39709",
"c@	c #D9A739",
"d@	c #EDD7A4",
"e@	c #E0B75B",
"f@	c #D29607",
"g@	c #DEB24F",
"h@	c #F1DFB4",
"i@	c #EED8A2",
"j@	c #DAA836",
"k@	c #D69E1B",
"l@	c #E7C682",
"m@	c #E9CB87",
"n@	c #EBD08F",
"o@	c #F0DDB0",
"p@	c #DDB057",
"q@	c #E9CC8A",
"r@	c #D39610",
"s@	c #D49A1C",
"t@	c #E6C786",
"u@	c #DAA943",
"v@	c #EBD19A",
"w@	c #D3970E",
"x@	c #D59C24",
"y@	c #F0DCB0",
"z@	c #F4E4BD",
"A@	c #E5C370",
"B@	c #E7C67E",
"C@	c #EACF97",
"D@	c #D39603",
"E@	c #E9CD8F",
"F@	c #DAA834",
"G@	c #EFD7A5",
"H@	c #ECD39C",
"I@	c #D8A225",
"J@	c #D7A22C",
"K@	c #EBD092",
"L@	c #E4BE69",
"M@	c #E1B95E",
"N@	c #DEB24E",
"O@	c #DEB149",
"P@	c #D29606",
"Q@	c #D69F1F",
"R@	c #E8CC8A",
"S@	c #E0B655",
"T@	c #D49B14",
"U@	c #E5C476",
"V@	c #F5E7C6",
"W@	c #F2E1B9",
"X@	c #EACF94",
"Y@	c #F2E2B9",
"Z@	c #E1B85A",
"`@	c #E1B75A",
" #	c #DCAD40",
".#	c #D59C19",
"+#	c #E9CB86",
"@#	c #F6EACD",
"##	c #E2BC6C",
"$#	c #D8A536",
"%#	c #DAA73E",
"&#	c #E9CC8D",
"*#	c #DCAC41",
"=#	c #EBD095",
"-#	c #F4E4C1",
";#	c #E1B866",
">#	c #DAA93F",
",#	c #E2BC66",
"'#	c #D4990B",
")#	c #DAA935",
"!#	c #DBA933",
"~#	c #D19403",
"{#	c #D59C1B",
"]#	c #EBCF91",
"^#	c #F7EBD1",
"/#	c #EFD9A6",
"(#	c #D09200",
"_#	c #DDB04E",
":#	c #EACE90",
"<#	c #D39810",
"[#	c #EACE92",
"}#	c #E4C175",
"|#	c #F3E1B9",
"1#	c #EFD9A8",
"2#	c #D69F26",
"3#	c #DDB04A",
"4#	c #F4E6C5",
"5#	c #E3BE6D",
"6#	c #D39808",
"7#	c #D6A01A",
"8#	c #DAA830",
"9#	c #EACD8C",
"0#	c #EFD8A5",
"a#	c #D7A22B",
"b#	c #DEB251",
"c#	c #F2E2BA",
"d#	c #DAA93A",
"e#	c #D39606",
"f#	c #F2E0B8",
"g#	c #F6EBCE",
"h#	c #EACF95",
"i#	c #E1BA6C",
"j#	c #DFB455",
"k#	c #E4C06C",
"l#	c #EAD095",
"m#	c #F3E2BC",
"n#	c #D69E26",
"o#	c #D19100",
"p#	c #F2DFB6",
"q#	c #F5E6C5",
"r#	c #E4BF6D",
"s#	c #D7A220",
"t#	c #DCAD3F",
"u#	c #D59B18",
"v#	c #E8C981",
"w#	c #E6C47C",
"x#	c #DBAA3B",
"y#	c #DDAF49",
"z#	c #EBD299",
"A#	c #E8C984",
"B#	c #D49913",
"C#	c #D3970F",
"D#	c #E5C275",
"E#	c #EBD096",
"F#	c #E3BE72",
"G#	c #DDAF4D",
"H#	c #D7A225",
"I#	c #E7C786",
"J#	c #F4E5C3",
"K#	c #DBAB40",
"L#	c #ECD29A",
"M#	c #F4E6C2",
"N#	c #E3BC66",
"O#	c #DAA936",
"P#	c #E1B859",
"Q#	c #D49912",
"R#	c #E6C375",
"S#	c #D9A432",
"T#	c #D7A121",
"U#	c #DAAA39",
"V#	c #D59D1B",
"W#	c #E5C278",
"X#	c #F0DBAE",
"Y#	c #F6E9CB",
"Z#	c #E1BA61",
"`#	c #E4C06D",
" $	c #D3970C",
".$	c #E1B85D",
"+$	c #E4C171",
"@$	c #D09101",
"#$	c #D6A129",
"$$	c #E1B965",
"%$	c #F6E9CD",
"&$	c #F1DCAE",
"*$	c #DDAF47",
"=$	c #D69F21",
"-$	c #E9CE91",
";$	c #D29509",
">$	c #D39806",
",$	c #F0DDB1",
"'$	c #DCAE4C",
")$	c #EAD094",
"!$	c #ECD39D",
"~$	c #D8A226",
"{$	c #D8A32C",
"]$	c #E9CD89",
"^$	c #D2960C",
"/$	c #D69E24",
"($	c #E4C073",
"_$	c #F3E1BA",
":$	c #EACE96",
"<$	c #D29708",
"[$	c #D39711",
"}$	c #D49B1C",
"|$	c #DAAA47",
"1$	c #D8A22C",
"2$	c #E1BA65",
"3$	c #E1B961",
"4$	c #D29608",
"5$	c #DEB14C",
"6$	c #DAA837",
"7$	c #D69D1A",
"8$	c #E7C784",
"9$	c #D49814",
"0$	c #D59D1D",
"a$	c #EED9A7",
"b$	c #F3E3BD",
"c$	c #E6C583",
"d$	c #D69F25",
"e$	c #D3980D",
"f$	c #E7C67C",
"g$	c #EAD093",
"h$	c #DCAC45",
"i$	c #EACD8E",
"j$	c #DFB457",
"k$	c #DDB25C",
"l$	c #E2BC69",
"m$	c #D7A32C",
"n$	c #E8C987",
"o$	c #D8A32F",
"p$	c #F1DDB1",
"q$	c #E9CC8E",
"r$	c #E7C783",
"s$	c #EDD39C",
"t$	c #D59D20",
"u$	c #E7C882",
"v$	c #D49914",
"w$	c #E5C177",
"x$	c #DDB04D",
"y$	c #DCAC44",
"z$	c #F1E0B7",
"A$	c #DFB55B",
"B$	c #DCAE4E",
"C$	c #D3990C",
"D$	c #EFD8A7",
"E$	c #F5E7C8",
"F$	c #EED8A8",
"G$	c #F0DDB2",
"H$	c #E7C885",
"I$	c #D69E1F",
"J$	c #E4C179",
"K$	c #D59D21",
"L$	c #E3BE6E",
"M$	c #DBAA41",
"N$	c #DDAF4E",
"O$	c #E0B761",
"P$	c #E2BC6B",
"Q$	c #D49B12",
"R$	c #D29602",
"S$	c #D69F20",
"T$	c #E8C989",
"U$	c #DAA93E",
"V$	c #E2BC70",
"W$	c #E7C886",
"X$	c #E0B65D",
"Y$	c #EED6A1",
"Z$	c #DAA736",
"`$	c #E2BB68",
" %	c #E2BC67",
".%	c #F1DFB5",
"+%	c #EFD9AA",
"@%	c #D7A128",
"#%	c #E0B760",
"$%	c #E4BF6F",
"%%	c #DFB555",
"&%	c #DCAC42",
"*%	c #EDD59F",
"=%	c #E5C47A",
"-%	c #DAA937",
";%	c #DEB14D",
">%	c #D59B17",
",%	c #E6C57D",
"'%	c #D59B14",
")%	c #E2BA66",
"!%	c #CF9000",
"~%	c #E5C279",
"{%	c #F6EACE",
"]%	c #F3E5C0",
"^%	c #D9A73E",
"/%	c #ECD49D",
"(%	c #EFD8A6",
"_%	c #DDAF48",
":%	c #E3BD6B",
"<%	c #DEB252",
"[%	c #DDB253",
"}%	c #D9A63D",
"|%	c #ECD49E",
"1%	c #F1DEB4",
"2%	c #E3BF71",
"3%	c #D8A439",
"4%	c #DBAA3C",
"5%	c #E2BC6A",
"6%	c #EDD49F",
"7%	c #F3E4C0",
"8%	c #D29611",
"9%	c #DAAA3F",
"0%	c #E5C47B",
"a%	c #D49B1B",
"b%	c #D59D1C",
"c%	c #DFB65B",
"d%	c #D3980E",
"e%	c #E3BF6E",
"f%	c #DBAB4A",
"g%	c #E7C787",
"h%	c #F4E8C7",
"i%	c #DFB557",
"j%	c #D49811",
"k%	c #D69F23",
"l%	c #E4BF71",
"m%	c #D49813",
"n%	c #D49909",
"o%	c #E0B860",
"p%	c #D49911",
"q%	c #EACD91",
"r%	c #D69F27",
"s%	c #D7A22E",
"t%	c #E9CE90",
"u%	c #DCAE45",
"v%	c #D8A333",
"w%	c #E4BF70",
"x%	c #F1E0B6",
"y%	c #E6C57A",
"z%	c #E1B85B",
"A%	c #EED8A4",
"B%	c #DFB65D",
"C%	c #D4990F",
"D%	c #D59C17",
"E%	c #E0B559",
"F%	c #E5C277",
"G%	c #D49C1C",
"H%	c #D9A635",
"I%	c #E9CC8B",
"J%	c #F4E5C0",
"K%	c #E5C378",
"L%	c #D7A32D",
"M%	c #DFB55F",
"N%	c #EED8A3",
"O%	c #E9CD8C",
"P%	c #DEB258",
"Q%	c #D59C16",
"R%	c #D9A735",
"S%	c #E4C173",
"T%	c #D29504",
"U%	c #D9A632",
"V%	c #DAAA3E",
"W%	c #DBAC42",
"X%	c #DBAC43",
"Y%	c #DBAA3E",
"Z%	c #D9A732",
"`%	c #D7A01F",
" &	c #D39706",
".&	c #E5C37C",
"+&	c #E3BD6C",
"@&	c #D49A0F",
"#&	c #D69D19",
"$&	c #E8CA8C",
"%&	c #E5C37E",
"&&	c #E2BC6D",
"*&	c #E0B85F",
"=&	c #DEB24D",
"-&	c #DBAB3C",
";&	c #DAA730",
">&	c #D9A52C",
",&	c #DCAE43",
"'&	c #DFB452",
")&	c #E3BD6E",
"!&	c #E5C585",
"~&	c #E7C680",
"{&	c #EBD295",
"]&	c #E7C575",
"^&	c #E2BC5E",
"/&	c #E0B853",
"(&	c #E4C069",
"_&	c #E9CB85",
":&	c #EED7A4",
"                                                        . + @ # $ % & * =                                                         ",
"                                              - ; > , ' ) ! ~ { ] ^ / ( _ : < [ } |                                               ",
"                                        1 2 3 4 5 6 7 8 8 9 7 7 0 0 7 a b 8 c d e f g h +                                         ",
"                                    i j k l 8 9 a a m m n o p q r s t u v m w 7 7 x y z A B C                                     ",
"                                D E F x G c H I J K L M N O P Q R - S T U V 2 W X Y 7 8 Z ` ^  ...                                ",
"                            +.@.#.$.%.7 &.*.=.-.;.>.          ,.'.          ).!.S ~.{.].^.8 c /.(._.                              ",
"                          :.<.[.8 a }.|.1.2.3.              + 4.5.6.7.              8.9.@.0.a.7 b.c.d.e.                          ",
"                      f.g.h.i.%.d j.k.l.                  m.n.o.0 p.q.                  r.;.@.s.t.8 y u.v.                        ",
"                    w.x.y.%.t.z.g.A.                      B.C.8 a 8 D.                        E.F.G.8 8 H.I.                      ",
"                  J.K.L.i.M.N.O.      A.P.                  Q.R.S.N.T.                U.;.V.    W.X.Y.y i.Z.`.                    ",
"                 +N.$.6 Z..+.       ++@+#+$+                %+&+*+=+                -+;+S.>+,+      '+)+M.y !+~+                  ",
"              {+]+x ^+/+(+_+        :+<+m [+}+                                      |+N.b.1+2+        3+4+5+%.!+6+                ",
"              7+x b 8+9+0+          a+b+4 c+                                        d+e+f+g+U.          h+i+j+%.k+2               ",
"            l+m+i.n+o+p+              q+=+                                              r+s+              t+u+Y b v+w+            ",
"          x+y+c G z+A+                                                                                      B+C+a c D+E+          ",
"        P F+G+c H+h+                                                                                          I+J+%.K+{.          ",
"        L+M+y N+O+                                                                                              ;+P+%.v+Q+        ",
"      R+y+y 7 ;+s+                                                                                              l.S+9 b.]+        ",
"      T+/.y U+V+  W+$+X+Y+                                                                              A.Z+3+    6.`+b  @.@      ",
"    +@@@y y.#@$@  %@&@k+*@                                                                            =@b+-@N.r+  ;@>@7 c ,@      ",
"    '@)@y ].!@    ~@{@]@^@                                                                            R /@0 (@+     _@:@c o <@    ",
"    S.6 [@h }@    Y+|@1@2@                                                                              $+3@4@      U.5@8 a 6@    ",
"  7@8@i.9@V+                                0@W+                                                                      a@b@8 c@d@  ",
"  e@f@f@g@=+                                h@i@                                                                      9.j@a k@l@  ",
"  F y k+m@                                  Y+n@o@                                                                    m.[ 0 a p@  ",
"q@r@y s@2.                                    e.`.;@                                                                    t@a 9 u@  ",
"v@w@a x@y@                                    z@A@B@                                                                    C@M.8 ! a+",
"B@o.D@(.                                        E@F@G@                                                                  H@I@G J@K@",
"L@)@u M@                                        A.N@@+l.                                                                h+O@P@Q@R@",
"S@n T@U@    V@R W@                                X@a.9+W+                                                    }@=@Y@r.  ,+Z@x  @`@",
" #L..#+#@#'.##$#%#&#                              2@*#e =#                      W.3+@#                      -#;#4 >#7@  ;@,#G '#)#",
"!#~#{#]#^#/#z.(#H _#=@                              :#<#! ;.              7.[#}#$ |#                        1#2#7 0 3#A.4#5#w 6#7#",
"8#G {#9#  0#a#b.H b#c#                              A.d#e#b#f#    g#c#h#i#j#k#l#m#                          &+n#o#0 g@p#q#r#~#6#s#",
"t#L.u#v#  ;@w#x#y#z#                                  A#B#C#D#;.E#F#G#H#_ I#=@                              J#2 K#y#L#  M#N#w 6#O#",
"P#n+Q#R#    W+&++                                     A.S#G+T#U#V#7 s.W#X#                                    m.h++ Y#  ,+e@w Z.Z#",
"`# $5+.$                                                +$c.8 @$#$$$E.%$                                                &$*$$.=$-$",
":.;$>$F+|                                               ,$Y.V#'$)$B.                                                    !$~$8 {$]$",
"T ^$6 /$,$                                                ($_._$                                                        :$<$8 R.  ",
"E@[$a }$V+                                                                                                              D.0 8 |$  ",
"  1$a 8@q@                                                                                                            s+2$7 ^+3   ",
"  3$4$[.5$=+                                                                                                          +.6$Z 7$8$  ",
"  D 9$%.0$a$                                                                                              b$          c$[.b.!     ",
"    d$i.e$f$      _+[ x.f.                                                                              g$h$i$      !.j$b.8 k$    ",
"    l$&.6 m$&+    n$o.[.o+                                                                            h+o$8 Y.p$    q$o 8 G.r$    ",
"    s$t$i.f@u$,.  '+J+v$w$                                                                            =@x${@y$z$  ;@A$%.b.B$      ",
"      L+C$y ].D$  E$F$E.,+                                                                              h@E.G$    H$I$a l J$      ",
"      C K$a x L$U.                                                                                              ,$M$^.L.N$        ",
"        O$&.i.=$E#                                                                                              P$Q$R$S$T$        ",
"          U$R$8 ,@V+                                                                                          [#d$x y V$          ",
"          W$t$8 y X$l.                                                                                      Y$Z$^+c (             ",
"            `$Z.b &. %b$              .%o@                                            U.!@Y+              +%<.^.G @%v.            ",
"              #%e$8 8+$%m#          + %%&%*%                                        }@=%-%$%,+          !@;%b@a >%,%              ",
"                b#6#i.'%)%W@        Q..#!%~%{%                                      ]%^%v H#/%        (%_%M.%.l :%                ",
"                $+H+e#%.&.<%2.      ++[%}%O+                W+!@|%1%                m.2%3%[ W@    B.C 4%Y %.p.5%                  ",
"                  6%H+)@^+G+] =#      U.7%                  A#J+8%9%P                   0+      Y+0%a%x a b%L$                    ",
"                      c%d%6 t.t$e%.                       q#f%8 b 0 g%                      h%a$i%j%i.x k%D#                      ",
"                        l%m%G+n% @{ Z+r+                    o%p%/.V#q%                  V@h+5.r%b@a K+s%t%                        ",
"                          7@u%M+c %.{#v%w%h+E$              x%y%z%i$U.              |+A%B%f+C%i.x D%E%6%                          ",
"                              F%G%L.i.8 T@H%c%I%* '.          d+J%            U.&+K%B$L%b@G+G+0 /@6.                              ",
"                                I+l${#7 c b G+G.F+|.M%2 O.w.h@p#l.r++ N%O%g.P%A H%Q%c 7 7 b.R%0%                                  ",
"                                    [#S%R%T%0 7 b.b.8 j+H#U%V%W%X%W%Y%Z%`% &7 8 8 0 7 a._%.&                                      ",
"                                          T$+&x#@&c b.o#(#(#b.b.H H (#8 a 7 b.b.#&H+($$&                                          ",
"                                                a@%&&&*&=&-&;&>&>&X -%,&'&2$)&!&~&                                                ",
"                                                          {&]&^&/&(&_&:&                                                          "};
