/* XPM */
static xpm_row_t const exit_normal_xpm[] = {
"190 33 226 2",
"  	c #D04000",
". 	c #D03E00",
"+ 	c #CF3600",
"@ 	c #CF3500",
"# 	c #CF3B00",
"$ 	c #D03C00",
"% 	c #CF3800",
"& 	c #D04001",
"* 	c #D03D00",
"= 	c #CF3700",
"- 	c #CF3900",
"; 	c #D03F00",
"> 	c #D76845",
", 	c #E4AEA7",
"' 	c #E6B5B0",
") 	c #E6B6B1",
"! 	c #DE8B7A",
"~ 	c #DD8268",
"{ 	c #E5AFA8",
"] 	c #E6B5AF",
"^ 	c #E2A196",
"/ 	c #D0420E",
"( 	c #D9735A",
"_ 	c #E4AAA1",
": 	c #E29E90",
"< 	c #D25331",
"[ 	c #DA775C",
"} 	c #E6B4AF",
"| 	c #E4ADA4",
"1 	c #DA7860",
"2 	c #D87664",
"3 	c #E5AEA6",
"4 	c #E09A8D",
"5 	c #D45529",
"6 	c #E18A68",
"7 	c #FCF6F4",
"8 	c #FFFFFF",
"9 	c #EFC4B6",
"0 	c #E18E72",
"a 	c #F8E7E1",
"b 	c #FBF0EC",
"c 	c #DF8B74",
"d 	c #D04003",
"e 	c #D24400",
"f 	c #EBBAAC",
"g 	c #FEF9F7",
"h 	c #FFFDFB",
"i 	c #EAB6A7",
"j 	c #D45938",
"k 	c #E7A389",
"l 	c #FDF4F1",
"m 	c #E6A48F",
"n 	c #E3A296",
"o 	c #FEF8F5",
"p 	c #F5DAD1",
"q 	c #D96A42",
"r 	c #E18967",
"s 	c #FCF4F2",
"t 	c #FEFCFC",
"u 	c #F4DAD1",
"v 	c #E4AFA9",
"w 	c #E4AEA8",
"x 	c #DC8774",
"y 	c #D24915",
"z 	c #E6A591",
"A 	c #FDF8F7",
"B 	c #FEFDFC",
"C 	c #F3D5CB",
"D 	c #D34A08",
"E 	c #DF8F7E",
"F 	c #F8E8E3",
"G 	c #F2D0C5",
"H 	c #D66547",
"I 	c #D24A1A",
"J 	c #E6A188",
"K 	c #FEFDFD",
"L 	c #FCF2EF",
"M 	c #D7705D",
"N 	c #E3A79E",
"O 	c #E4AEA9",
"P 	c #E4AFAA",
"Q 	c #FBF6F5",
"R 	c #FFFEFD",
"S 	c #DF9486",
"T 	c #D35327",
"U 	c #FEFBFA",
"V 	c #EDBBA8",
"W 	c #D55A31",
"X 	c #F3D2C7",
"Y 	c #FCF5F3",
"Z 	c #E7AD9E",
"` 	c #CF3A00",
" .	c #D6623C",
"..	c #F0CBC1",
"+.	c #FFFEFE",
"@.	c #FAEBE4",
"#.	c #DE8B76",
"$.	c #D1450D",
"%.	c #D1491A",
"&.	c #E6A590",
"*.	c #F9EFEE",
"=.	c #F3D6CD",
"-.	c #EDBCAA",
";.	c #D04411",
">.	c #D04105",
",.	c #D97963",
"'.	c #F9EBE5",
").	c #F7E4DF",
"!.	c #DB734B",
"~.	c #E4A597",
"{.	c #FDF6F3",
"].	c #FEFAF9",
"^.	c #E7AFA2",
"/.	c #D35128",
"(.	c #D1471E",
"_.	c #F9EFEF",
":.	c #F3D7CE",
"<.	c #D1461A",
"[.	c #EEBFAD",
"}.	c #D25335",
"|.	c #D25031",
"1.	c #D24E2D",
"2.	c #D14618",
"3.	c #D14819",
"4.	c #E6A28D",
"5.	c #FEFBFB",
"6.	c #FDFAF8",
"7.	c #F5DCD2",
"8.	c #F6E0D8",
"9.	c #D86C4D",
"0.	c #FFFFFE",
"a.	c #FDF9F8",
"b.	c #FBF3F3",
"c.	c #FBF4F3",
"d.	c #F8E9E5",
"e.	c #E19B8D",
"f.	c #D04102",
"g.	c #D56143",
"h.	c #F2D0C3",
"i.	c #FFFDFD",
"j.	c #E09481",
"k.	c #D1481A",
"l.	c #E19988",
"m.	c #F4D8CF",
"n.	c #D97252",
"o.	c #D04206",
"p.	c #D87057",
"q.	c #F8E3DB",
"r.	c #FDF7F5",
"s.	c #E5ACA0",
"t.	c #D14716",
"u.	c #D35026",
"v.	c #EDBDAD",
"w.	c #FBF2EE",
"x.	c #EEC2B3",
"y.	c #F6E0D9",
"z.	c #DD846D",
"A.	c #D04107",
"B.	c #E19481",
"C.	c #EFCCC2",
"D.	c #D34500",
"E.	c #E4A495",
"F.	c #EDC2B6",
"G.	c #D45D3E",
"H.	c #CF3400",
"I.	c #CF3300",
"J.	c #D96E4F",
"K.	c #F7E3DC",
"L.	c #FFFDFC",
"M.	c #DB7959",
"N.	c #CF3C00",
"O.	c #D76A4D",
"P.	c #F0CEC5",
"Q.	c #E4A394",
"R.	c #D24D25",
"S.	c #E8BDB8",
"T.	c #E8BCB8",
"U.	c #E8BDB9",
"V.	c #DF9180",
"W.	c #D4511A",
"X.	c #EDC2B5",
"Y.	c #FCF7F5",
"Z.	c #E5A594",
"`.	c #DE8C78",
" +	c #F9E9E4",
".+	c #F8E4DC",
"++	c #DA785D",
"@+	c #D24B1C",
"#+	c #EFC4B5",
"$+	c #E9AC98",
"%+	c #F1CEC2",
"&+	c #D34E1E",
"*+	c #D34A00",
"=+	c #ECBEB1",
"-+	c #FEFAF8",
";+	c #EFC5B8",
">+	c #D55E3F",
",+	c #E7A792",
"'+	c #D1481F",
")+	c #FAF1F1",
"!+	c #F4D9D0",
"~+	c #D6613E",
"{+	c #E1A097",
"]+	c #E2A6A0",
"^+	c #E2A7A1",
"/+	c #DB816D",
"(+	c #DD8977",
"_+	c #E2A49C",
":+	c #E1A49D",
"<+	c #D97459",
"[+	c #D04209",
"}+	c #D86F57",
"|+	c #E19E94",
"1+	c #E2A7A0",
"2+	c #DF9588",
"3+	c #D2512E",
"4+	c #D86F53",
"5+	c #E2A59F",
"6+	c #E19F95",
"7+	c #D87158",
"8+	c #D0430F",
"9+	c #E09D95",
"0+	c #E2A59E",
"a+	c #DD8E80",
"b+	c #D0420C",
"c+	c #D03B00",
"                                                                                                                                                                                                                                                                                                                                                                                            ",
"                                                                                                                                                                                                                                                                                                                                                                                            ",
"                                                                                                                                                                                                                                                                                                                                                                                            ",
"                                                                                                                                                                                                                                                                                                                                                                                            ",
"                                                                                                                                                                                                                                                                                                                                                                                            ",
"                                                                                                                                                                                                                                                                                                                                                                                            ",
"                                                                                                                                                                                                                                                                                                                                                                                            ",
"                                                                                                                                                                                                                                                                                                                                                                                            ",
"                                                                                                                                                      . + @ @ @ @ @ @ @ # $ + @ %         & * = @ - ; * @ = * * + @ @ @ @ @ @ @ @ @ - ;                                                                                                                                                     ",
"                                                                                                                                                      > , ' ' ' ' ' ' ) ! ~ { ] ^ /       $ ( _ ) : < [ } | 1 2 3 ) ' ' ' ' ' ' ' ) 4 5 ;                                                                                                                                                   ",
"                                                                                                                                                    ; 6 7 8 8 8 8 8 8 8 9 0 a 8 b c d   ; e f g h i j k 8 l m n o 8 8 8 8 8 8 8 8 8 p q *                                                                                                                                                   ",
"                                                                                                                                                    ; r s t u v w w w v x y z A B C D   % E F 8 G H I J K L m M N O w P Q R F v w v S T ;                                                                                                                                                   ",
"                                                                                                                                                    ; r s U V $ = = = = $   W X B Y Z `  ...+.@.#.$.%.J K L &.+ % = =   *.B =.. = = ` ;                                                                                                                                                     ",
"                                                                                                                                                    ; r s U -.;.            >.,.'.R ).!.~.{.].^./.; %.J K L &.-       (._.B :.<.                                                                                                                                                            ",
"                                                                                                                                                    ; r s U [.}.|.|.1.2.      3.4.5.6.7.8.8 G 9.;   %.J K L &.-       (._.B :.<.                                                                                                                                                            ",
"                                                                                                                                                    ; r s 0.a.b.b.c.d.e.-     f.g.h.+.B i.@.j.      %.J K L &.-       (._.B :.<.                                                                                                                                                            ",
"                                                                                                                                                    ; r s 0.a.b.b.c.d.e.-       k.l.+.8 8 m.n.*     %.J K L &.-       (._.B :.<.                                                                                                                                                            ",
"                                                                                                                                                    ; r s U [.}.|.|.1.2.      o.p.q.i.g t r.s.t.    %.J K L &.-       (._.B :.<.                                                                                                                                                            ",
"                                                                                                                                                    ; r s U -.;.              u.v.K w.x.y.8 q.z.    %.J K L &.-       (._.B :.<.                                                                                                                                                            ",
"                                                                                                                                                    ; r s U -.;.            A.B.7 U C.D.E.{.R F.G.; %.J K L &.-       (._.B :.<.                                                                                                                                                            ",
"                                                                                                                                                    ; r s U V - H.H.H.I.` ; J.K.L.a M.N.O.P.L.{.Q.R.%.J K L &.-       (._.B :.<.                                                                                                                                                            ",
"                                                                                                                                                    ; r s B 8.S.T.T.T.U.V.W.X.U Y.Z.. & = `. +8 .+++@+J K L &.-       (._.B :.<.                                                                                                                                                            ",
"                                                                                                                                                    ; 6 7 8 8 8 8 8 8 8 #+$+s 0.%+&+    ; *+=+-+8 ;+>+k 8 l ,+-       '+)+0.!+<.                                                                                                                                                            ",
"                                                                                                                                                      ~+{+]+]+]+]+]+]+^+/+(+_+:+<+[+      $ }+|+1+2+3+4+5+6+7+.       8+9+0+a+b+                                                                                                                                                            ",
"                                                                                                                                                      ; ` - - - - - - - * $ - - *           . ` - c+; . - ` .           ` - c+                                                                                                                                                              ",
"                                                                                                                                                                                                                                                                                                                                                                                            ",
"                                                                                                                                                                                                                                                                                                                                                                                            ",
"                                                                                                                                                                                                                                                                                                                                                                                            ",
"                                                                                                                                                                                                                                                                                                                                                                                            ",
"                                                                                                                                                                                                                                                                                                                                                                                            ",
"                                                                                                                                                                                                                                                                                                                                                                                            ",
"                                                                                                                                                                                                                                                                                                                                                                                            ",
"                                                                                                                                                                                                                                                                                                                                                                                            "};
