/* XPM */
static xpm_row_t const main_menu_normal_xpm[] = {
"190 33 315 2",
"  	c #F4B183",
". 	c #F4B082",
"+ 	c #F4AF80",
"@ 	c #F4B081",
"# 	c #F4B182",
"$ 	c #F4B080",
"% 	c #F4B184",
"& 	c #F6C09D",
"* 	c #F9D6C3",
"= 	c #F9D6C4",
"- 	c #F7CBB0",
"; 	c #F5B991",
"> 	c #F9D5C2",
", 	c #F9D7C6",
"' 	c #F8CFB8",
") 	c #F5B990",
"! 	c #F4B285",
"~ 	c #F7C6A7",
"{ 	c #F9D7C4",
"] 	c #F9D7C5",
"^ 	c #F7CAB0",
"/ 	c #F4B284",
"( 	c #F6C19E",
"_ 	c #F9D5C1",
": 	c #F7C4A4",
"< 	c #F5B88E",
"[ 	c #F8CEB5",
"} 	c #F6C3A2",
"| 	c #F4B386",
"1 	c #F6C2A2",
"2 	c #F9D8C7",
"3 	c #F8D0B9",
"4 	c #F5B992",
"5 	c #F5B68C",
"6 	c #F7CBB1",
"7 	c #F9D8C6",
"8 	c #F9D4C0",
"9 	c #F5BA94",
"0 	c #F7C9AD",
"a 	c #F7C4A3",
"b 	c #F7C5A5",
"c 	c #F4B488",
"d 	c #F8CCB2",
"e 	c #F5B68B",
"f 	c #F5B68D",
"g 	c #F8D4C0",
"h 	c #F6C2A1",
"i 	c #F6BF9C",
"j 	c #F8D3BE",
"k 	c #F4B387",
"l 	c #F6BE9C",
"m 	c #F8D5C1",
"n 	c #F6BF9D",
"o 	c #F9D3B9",
"p 	c #FFFEFD",
"q 	c #FFFFFF",
"r 	c #FDF1EA",
"s 	c #F9D8C3",
"t 	c #FFFEFE",
"u 	c #FDF2EA",
"v 	c #F7C3A1",
"w 	c #F4B48A",
"x 	c #FBE9DD",
"y 	c #FDF0E8",
"z 	c #F6BF9A",
"A 	c #F9D5BC",
"B 	c #FFFCFA",
"C 	c #FADAC7",
"D 	c #F6C19C",
"E 	c #FDEEE5",
"F 	c #FCECE3",
"G 	c #F6BF9B",
"H 	c #FEF3EC",
"I 	c #F6BD97",
"J 	c #FCEADE",
"K 	c #F9D9C5",
"L 	c #F6C1A0",
"M 	c #FDEFE6",
"N 	c #FADBC5",
"O 	c #F5B589",
"P 	c #FADCC8",
"Q 	c #F9D5BD",
"R 	c #F5B88F",
"S 	c #FADECC",
"T 	c #FEF6F1",
"U 	c #F5BD99",
"V 	c #FFFBF8",
"W 	c #F9D6C1",
"X 	c #F4AE7E",
"Y 	c #F8D0B8",
"Z 	c #FEF8F5",
"` 	c #FADDC9",
" .	c #F8CFB7",
"..	c #FEFCF9",
"+.	c #F8CFB9",
"@.	c #F9D2B8",
"#.	c #FFFCFB",
"$.	c #FADDCD",
"%.	c #F4AF7F",
"&.	c #F5BB95",
"*.	c #FEF4ED",
"=.	c #FDF0E9",
"-.	c #F7C3A0",
";.	c #FEF8F4",
">.	c #FFFFFE",
",.	c #FEFAF7",
"'.	c #F9D6C0",
").	c #F9D4BB",
"!.	c #FFFDFC",
"~.	c #FEFBF8",
"{.	c #FADAC6",
"].	c #F6C09C",
"^.	c #FCEDE4",
"/.	c #FBE3D6",
"(.	c #F6C4A3",
"_.	c #FCE9DD",
":.	c #FDF4EE",
"<.	c #F6BE9B",
"[.	c #F9D8C4",
"}.	c #FADAC4",
"|.	c #F4B589",
"1.	c #FADCC7",
"2.	c #FEFAF8",
"3.	c #FBE4D7",
"4.	c #F8D3BF",
"5.	c #F5B78D",
"6.	c #FADECA",
"7.	c #FCEFE8",
"8.	c #F6C4A4",
"9.	c #FEF9F6",
"0.	c #F8D0B7",
"a.	c #FEF7F3",
"b.	c #F8CFB6",
"c.	c #FDF2EB",
"d.	c #FADFCE",
"e.	c #FADDCA",
"f.	c #FCEEE4",
"g.	c #FBE5D9",
"h.	c #FADBC9",
"i.	c #FADDCB",
"j.	c #F7C5A6",
"k.	c #FCE8DD",
"l.	c #F6BE9A",
"m.	c #FAE0D0",
"n.	c #FEF7F4",
"o.	c #F4B388",
"p.	c #FCEADF",
"q.	c #F8D3BD",
"r.	c #FDF5EF",
"s.	c #F7CBAF",
"t.	c #F9D2B9",
"u.	c #F6C2A0",
"v.	c #FEFCFA",
"w.	c #FEF8F3",
"x.	c #F8D1B8",
"y.	c #F5B78C",
"z.	c #FBE0CF",
"A.	c #FCE5D7",
"B.	c #FEF4EE",
"C.	c #F7CAAE",
"D.	c #FBE3D4",
"E.	c #FBE5D6",
"F.	c #F8D3BB",
"G.	c #FEFBF9",
"H.	c #F6C3A3",
"I.	c #FEF5F0",
"J.	c #F9D8C5",
"K.	c #FEF3ED",
"L.	c #FBE4D5",
"M.	c #F7C5A7",
"N.	c #FDF3ED",
"O.	c #FCEADD",
"P.	c #FDF4EF",
"Q.	c #F9D2BB",
"R.	c #F4B58A",
"S.	c #F4B489",
"T.	c #FFFAF8",
"U.	c #F9D1B9",
"V.	c #FAD8C1",
"W.	c #FBE2D3",
"X.	c #F8CDB0",
"Y.	c #FFFDFB",
"Z.	c #FBE9DE",
"`.	c #FBE3D3",
" +	c #F6C19D",
".+	c #FBE1D0",
"++	c #FCECE2",
"@+	c #FBE1CF",
"#+	c #FEF9F5",
"$+	c #F7C9AA",
"%+	c #FBE2D1",
"&+	c #FEFBFA",
"*+	c #FEF9F7",
"=+	c #FCF0E8",
"-+	c #F5BA95",
";+	c #FDEFE7",
">+	c #F9D8C0",
",+	c #F7C7AA",
"'+	c #F8D2BB",
")+	c #F8CDB3",
"!+	c #FBE8DD",
"~+	c #F5BC97",
"{+	c #F7C29F",
"]+	c #FFFDFD",
"^+	c #FADECB",
"/+	c #F7CCB2",
"(+	c #FEFAF6",
"_+	c #FBE0CE",
":+	c #F5BB94",
"<+	c #FBE4D6",
"[+	c #FBE3D5",
"}+	c #FCEBE0",
"|+	c #F7C6A8",
"1+	c #F7C5A3",
"2+	c #FDF3EC",
"3+	c #FCEEE5",
"4+	c #F6C29E",
"5+	c #F9D4BE",
"6+	c #F6BD99",
"7+	c #F8CBAD",
"8+	c #FCEBE1",
"9+	c #F6C3A5",
"0+	c #F6C3A4",
"a+	c #F9D6BF",
"b+	c #F5BA93",
"c+	c #F9D0B6",
"d+	c #FBE2D2",
"e+	c #F6C4A2",
"f+	c #F7C4A2",
"g+	c #F9D2BA",
"h+	c #FADCCB",
"i+	c #FEFBF7",
"j+	c #F8CCAE",
"k+	c #FEF6F0",
"l+	c #FDEEE6",
"m+	c #F5B78F",
"n+	c #F5B78E",
"o+	c #FCECE4",
"p+	c #FEF5EF",
"q+	c #F6BE99",
"r+	c #FCE9DE",
"s+	c #F4B286",
"t+	c #F4AF7E",
"u+	c #FBE5D8",
"v+	c #FBE1D1",
"w+	c #F8CEB3",
"x+	c #F8CEB7",
"y+	c #F5BD98",
"z+	c #F8CFB5",
"A+	c #FCEAE2",
"B+	c #FBE7DE",
"C+	c #FBE7DD",
"D+	c #F9D5BF",
"E+	c #F8CBAE",
"F+	c #FEF7F2",
"G+	c #F8CEB4",
"H+	c #F6BF99",
"I+	c #FDF1E9",
"J+	c #F9DAC8",
"K+	c #FBE4D8",
"L+	c #F5B993",
"M+	c #F5BC95",
"N+	c #FCE9DF",
"O+	c #FDEDE3",
"P+	c #FFFBF9",
"Q+	c #FCE7DA",
"R+	c #F4AE7C",
"S+	c #FADECD",
"T+	c #FADBCA",
"U+	c #F8D1B9",
"V+	c #FDECE2",
"W+	c #F5B98F",
"X+	c #F7C6A6",
"Y+	c #F6C29F",
"Z+	c #FCE8DB",
"`+	c #F5B890",
" @	c #F9DAC9",
".@	c #F4B487",
"+@	c #FADFD0",
"@@	c #FBE1D3",
"#@	c #FADBC8",
"$@	c #FCEBE2",
"%@	c #FADFD1",
"&@	c #FADECF",
"*@	c #F7C5A4",
"=@	c #FCEAE0",
"-@	c #FAE0D3",
";@	c #FBE6DA",
">@	c #F8CCB1",
",@	c #F5B488",
"'@	c #F9D9C6",
")@	c #F8CDB2",
"!@	c #F8CBAF",
"~@	c #F5BA92",
"{@	c #F5BB96",
"]@	c #FBE5D7",
"^@	c #F5BB93",
"/@	c #F5B68A",
"(@	c #FADAC5",
"_@	c #F9D6C2",
":@	c #FBE0D0",
"<@	c #FCE7DB",
"[@	c #F7C9AC",
"}@	c #F7C9AE",
"|@	c #F7CCB3",
"1@	c #F7C6A9",
"2@	c #F7CBB2",
"3@	c #F4B58B",
"4@	c #F5BC96",
"5@	c #F6C5A6",
"6@	c #F7CCB4",
"7@	c #F7C8AD",
"8@	c #F7C9AF",
"9@	c #F6BD98",
"0@	c #F7CBB3",
"                                                                                                                                                                                                                                                                                                                                                                                            ",
"                                                                                                                                                                                                                                                                                                                                                                                            ",
"                                                                                                                                                                                                                                                                                                                                                                                            ",
"                                                                                                                                                                                                                                                                                                                                                                                            ",
"                                                                                                                                                                                                                                                                                                                                                                                            ",
"                                                                                                                                                                                                                                                                                                                                                                                            ",
"                                                                                                                                                                                                                                                                                                                                                                                            ",
"                                                                                                                                                                                                                                                                                                                                                                                            ",
"                                                                          . + + @                 # + + @ #           @ + + @             . + $ .     @ + .             . + $ #               @ + $ #                 @ + + .     . + + + + + + + + .   @ + @               + $ .   . $ + .           . $ + .                                                                               ",
"                                                                        % & * = - @               ; > , ' ) #       ! ~ { ] ^ $         / ( * _ : . < [ { } |         . 1 2 3 4             5 6 7 8 9 #             / 0 ] ] a | | b ] ] ] ] ] ] ] * ( c ~ ] d e #         f = g h @ i j ] b k       # l m 7 n #                                                                             ",
"                                                                        ! o p q r ( .           c s t q u v .       w x q q y z .       ! A t B C + D E q F G %       $ = q H : .         # I J q p K e           . L M q q N O e P q q q q q q q q Q R S q T [           U q V W X Y Z q ` e       @  ...q +.@                                                                             ",
"                                                                        ! @.#.q B $.%.          &.*.q q =.-..       G ;.>.p ,.'.+       ! ).!.~.{.+ ].^.q p /.f       $ > q u (..         # I _.q q :.<.            [.B q q }.|.e 1.q 2.3.4.g g g j ].5.6.q q 7.8.@       U p 9.'.X 0.a.q P e       @ b.~.q ' @                                                                             ",
"                                                                        ! @.#.q q c.~ @       k d.!.q q =.-..     ! e.!.,.f.q g.e       ! ).!.~.{.+ ].^.q q B h.c     $ > q u (..         # I _.q q t i.5       @ j.=.q q q }.|.e 1.q a.0.X $ $ $ $ . 5 6.q q p k.l.#     U p 9.'.X 0.a.q P e       @ b.~.q ' @                                                                             ",
"                                                                        ! @.#.p ,.!.m.|       ( n.p ;.q =.-..     o.c.!.p.q.q r.s.@     ! ).!.~.{.+ ].^.q q q 9.t.!   $ > q u (..         # I _.q 2.!.;.u./     O h.>.,.v.q }.|.e 1.q w.x.$           y.6.q q q !.z.;     U p 9.'.X 0.a.q P e       @ b.~.q ' @                                                                             ",
"                                                                        ! @.#.,.A.!.B.C.@   | D.!.;.E.q =.-..     F.~.G.@.H.I.!.J.@     ! ).!.~.{.+ ].^.q f.,.>.K.-.% $ > q u (..         # I _.q J *.p L.5     M.N.t O.P.q }.|.e 1.q ;.Q.o.R.R.S.%   y.6.q I.c.q T.U.c   U p 9.'.X 0.a.q P e       @ b.~.q ' @                                                                             ",
"                                                                        ! @.#.Z V.M t W.R . X.;.Y.E.e.q =.-..   ! Z.!.N.f ; `.q F  +.   ! ).!.~.{.+ ].^.q .+` 2.p ++&.+ > q u (..         # I _.q L.@+2.#+$+/ ; %+q N.}.c.q }.|.e 1.q t &+*+*+*+=+-+  y.6.q ;+>+c.q I.,+! U p 9.'.X 0.a.q P e       @ b.~.q ' @                                                                             ",
"                                                                        ! @.#.Z X.'+Y.;.)+k !+!.N.~+P q =.-.. # {+T ]+^+| # /+G.(+ .#   ! ).!.~.{.+ ].^.q _+:+<+Y.#.[+k > q u (..         # I _.q <+( ;+]+}+5 |+;.Y.7 1+2+q }.|.e 1.q t 2.n.n.n.3+9   y.6.q ;+4+5+;.>.;+6+U p 9.'.X 0.a.q P e       @ b.~.q ' @                                                                             ",
"                                                                        ! @.#.#+7+i 8+q W.).a.#.s R P q =.-.. @ i.B Y.[ 9+0+Y 2+q W.)   ! ).!.~.{.+ ].^.q _+< 5 8+t 9.a+{ q u (..         # I _.q E.b+Q 2.2.c+d+q ;+e+f+2+q }.|.e 1.q ;.g+/ k k |     y.6.q ;+4+@ h+G.p L.0+p 9.'.X 0.a.q P e       @ b.i+q ' @                                                                             ",
"                                                                        ! @.#.#+j++ ' 2.;.k+!.l+m+e P q =.-.@ n+o+t q q q q q q q p+j.. ! ).!.~.{.+ ].^.q _+< % q+r q :.r+q u (..         # I _.q E.b+s+F !.*.#+~.{ t+1+2+q }.|.e 1.q w.x.$           y.6.q ;+4+@ |.u+!.!.v+t 9.'.X w+T q z.5.      $  .G.q x+@                                                                             ",
"                                                                        ! @.#.#+j+@ y+!+q q v.z+k e P q =.-.%.g+Z p A+B+B+B+C+^.2.p D+c ! ).!.~.{.+ ].^.q _+<   | E+F+q t q u (..         # I _.q E.b+% G+,.q >.^.I @ 1+2+q }.|.e 1.q w.x.$           y.6.q ;+4+.   H+3+t p q 9.'.%.& M q I+~+    # c J+t B /+@                                                                             ",
"                                                                        ! @.#.#+j+# + [ ;.q J 4   e P q =.-.| K+p F+L+%.%.%.X M+N+q O+q+! ).!.~.{.+ ].^.q _+<     R.W P+q q u (..         # I _.q E.b+  o.Q+q 2.D++ . 1+2+q }.|.e 1.q a.b.R+%.%.%.%.. 5 6.q ;+4+.     $+I.q q 9.'.$ / S+#.#.T+I @ 5.U+K.q V+& #                                                                             ",
"                                                                        ! @.#.#+j+# # W+W [+X+|   e P q =.Y+~ N.q Z+`+        #  @!.G.s..@).!.~.{.+ ].^.q _+<     # R +@p q u (..         # I _.q E.b+  / v @@#@)   . 1+2+q }.|.e 1.q B $@%@%@%@%@&@*@n+6.q ;+4+.       3 ,.q 9.'.$ . & p.p B =@-@;@k+q 2+>@|                                                                               ",
"                                                                        ! o ]+9.j+#   # ,@5./     e ` q r 4+'@Y.B )@|         @ !@k+q <+~@).t B C + D E q @+<       . {@u+t H : .         # I J q ]@^@      y./@#   . *@N.q (@O e P q q q q q q q q A R ^+q y Y+.       | _@V 2.W $   @ h :@B.t q q ;.<@[@c                                                                                 ",
"                                                                          &.6 }@;                 ! G |@1@e n 2@}@3@            5.1@|@j.S.4@6 ^ l.# e 5@6@& |           ~+^ ,+5.            |.H.6@h c                 5.,+|@q+! ! G |@|@|@|@|@|@|@6 4@| i |@|+5           3@7@8@9@#     . ) 8.^ 0@6 1@~+                                                                                    ",
"                                                                            . .                     # . .   # . .                 . . #     . . #     # . #             # . .                 # . #                     . . #     # . . . . . . . .     # . .               . . #           # . . . . #                                                                                     ",
"                                                                                                                                                                                                                                                                                                                                                                                            ",
"                                                                                                                                                                                                                                                                                                                                                                                            ",
"                                                                                                                                                                                                                                                                                                                                                                                            ",
"                                                                                                                                                                                                                                                                                                                                                                                            ",
"                                                                                                                                                                                                                                                                                                                                                                                            ",
"                                                                                                                                                                                                                                                                                                                                                                                            ",
"                                                                                                                                                                                                                                                                                                                                                                                            ",
"                + %.%.%.%.%.%.%.%.%.%.%.%.%.%.%.%.%.%.%.%.%.%.%.%.%.%.%.%.%.%.%.%.%.%.%.%.%.%.%.%.%.%.%.%.%.%.%.%.%.%.%.%.%.%.%.%.%.%.%.%.%.%.%.%.%.%.%.%.%.%.%.%.%.%.%.%.%.%.%.%.%.%.%.%.%.%.%.%.%.%.%.%.%.%.%.%.%.%.%.%.%.%.%.%.%.%.%.%.%.%.%.%.%.%.%.%.%.%.%.%.%.%.%.%.%.%.%.%.%.%.%.%.%.%.%.%.%.%.%.%.%.%.%.%.%.%.%.%.%.%.%.%.%.%.%.%.%.%.%.%.%.%.%.%.%.%.%.%.%.%.%.%.%.%.%.            "};
