/* XPM */
static xpm_row_t const score_close_normal_xpm[] = {
"40 40 872 2",
"  	c None",
". 	c #FCF2CC",
"+ 	c #FCEFC0",
"@ 	c #FDEEBF",
"# 	c #FEEEBF",
"$ 	c #FDEEC0",
"% 	c #FCEEC1",
"& 	c #FCEEC2",
"* 	c #FDEEBC",
"= 	c #FDF6DC",
"- 	c #FCEBB4",
"; 	c #FCE292",
"> 	c #F8DC76",
", 	c #F6D24C",
"' 	c #F7CC38",
") 	c #FBC939",
"! 	c #FCC937",
"~ 	c #FCC939",
"{ 	c #F8CA3F",
"] 	c #F7CA3F",
"^ 	c #FBCB3A",
"/ 	c #FCD056",
"( 	c #FDDD86",
"_ 	c #FDE8AD",
": 	c #FDF1CC",
"< 	c #FCF4D3",
"[ 	c #FCEBBA",
"} 	c #F9D97D",
"| 	c #F8CA32",
"1 	c #F9C41B",
"2 	c #F9C40C",
"3 	c #F5C304",
"4 	c #F0C40B",
"5 	c #F8C205",
"6 	c #FCC002",
"7 	c #FDC002",
"8 	c #FAC104",
"9 	c #F8C206",
"0 	c #FAC006",
"a 	c #FCBD03",
"b 	c #FCBF0D",
"c 	c #FBC72B",
"d 	c #F8D25E",
"e 	c #FCE298",
"f 	c #FAE9AB",
"g 	c #F5D662",
"h 	c #FAC82E",
"i 	c #FCBE14",
"j 	c #F9BD0F",
"k 	c #FABE0B",
"l 	c #FCBF02",
"m 	c #FCC000",
"n 	c #FCBD05",
"o 	c #FDBE09",
"p 	c #FDBE05",
"q 	c #FDBD03",
"r 	c #FDBD05",
"s 	c #FBBF05",
"t 	c #F7C400",
"u 	c #FAC100",
"v 	c #FBC005",
"w 	c #F7C110",
"x 	c #FBBF0A",
"y 	c #FAC41B",
"z 	c #F7CF52",
"A 	c #F9E196",
"B 	c #FCEFC5",
"C 	c #FADB88",
"D 	c #F6CC37",
"E 	c #F5C307",
"F 	c #FBBE06",
"G 	c #FDBE08",
"H 	c #FBC301",
"I 	c #F9C403",
"J 	c #F9C009",
"K 	c #FCC103",
"L 	c #FAC400",
"M 	c #FAC500",
"N 	c #F9C400",
"O 	c #F9C201",
"P 	c #FBC006",
"Q 	c #FBC003",
"R 	c #FBC100",
"S 	c #F9C004",
"T 	c #F6C429",
"U 	c #F8D76F",
"V 	c #FCE7A7",
"W 	c #FDEFC1",
"X 	c #FBD15F",
"Y 	c #F7C31A",
"Z 	c #F9BF0D",
"` 	c #FAC002",
" .	c #FAC007",
"..	c #F9C107",
"+.	c #F7C404",
"@.	c #F8C118",
"#.	c #FDC42C",
"$.	c #FCBD11",
"%.	c #FDBF02",
"&.	c #FABF06",
"*.	c #FABF0B",
"=.	c #FABF0C",
"-.	c #FAC003",
";.	c #FCC201",
">.	c #FBC200",
",.	c #FBC101",
"'.	c #F9C207",
").	c #FBC102",
"!.	c #FDBC00",
"~.	c #F9C00F",
"{.	c #F9CC3D",
"].	c #FCE49C",
"^.	c #FDEDBD",
"/.	c #FCD158",
"(.	c #F9C114",
"_.	c #F8C106",
":.	c #FABE07",
"<.	c #F8C408",
"[.	c #FBC926",
"}.	c #FDC839",
"|.	c #FBC425",
"1.	c #F9BF08",
"2.	c #FABE18",
"3.	c #F3B80B",
"4.	c #EAAF07",
"5.	c #E3A410",
"6.	c #DD9C12",
"7.	c #DA9C14",
"8.	c #E3A40F",
"9.	c #ECAD0F",
"0.	c #F5B714",
"a.	c #F8BD0A",
"b.	c #FABF04",
"c.	c #FABE05",
"d.	c #FDBC01",
"e.	c #F8BF06",
"f.	c #F8C105",
"g.	c #F5C209",
"h.	c #FCBF08",
"i.	c #F9CC38",
"j.	c #F8E39E",
"k.	c #FCECB9",
"l.	c #FBD257",
"m.	c #FDBD09",
"n.	c #F9C104",
"o.	c #FBC004",
"p.	c #F9C41D",
"q.	c #FBCA34",
"r.	c #FBC83F",
"s.	c #FAC82A",
"t.	c #F5BD0D",
"u.	c #E7A413",
"v.	c #C48214",
"w.	c #A06013",
"x.	c #874520",
"y.	c #7A3B1B",
"z.	c #74351C",
"A.	c #74351E",
"B.	c #793D16",
"C.	c #894D14",
"D.	c #A36013",
"E.	c #C58516",
"F.	c #E6A712",
"G.	c #F9BD0B",
"H.	c #F7C00C",
"I.	c #FCBF00",
"J.	c #F8C006",
"K.	c #F7C203",
"L.	c #F5C405",
"M.	c #F3C746",
"N.	c #F6DE9C",
"O.	c #E8D1A0",
"P.	c #F8CE5A",
"Q.	c #FAC20F",
"R.	c #FCC200",
"S.	c #FAC008",
"T.	c #F9C61B",
"U.	c #FBCF37",
"V.	c #FAC63C",
"W.	c #F7C016",
"X.	c #E4AD0F",
"Y.	c #B37614",
"Z.	c #82420C",
"`.	c #662A1D",
" +	c #5F272B",
".+	c #612727",
"++	c #602728",
"@+	c #602729",
"#+	c #5E2923",
"$+	c #5D2C1F",
"%+	c #652923",
"&+	c #834316",
"*+	c #BB7A11",
"=+	c #EDAE16",
"-+	c #F8BF10",
";+	c #F5C402",
">+	c #F9C203",
",+	c #FCBE02",
"'+	c #F9C105",
")+	c #F7C008",
"!+	c #FBBB0C",
"~+	c #F0C446",
"{+	c #DDAE3A",
"]+	c #F8C00B",
"^+	c #FDC001",
"/+	c #FAC105",
"(+	c #FAC425",
"_+	c #FCCC32",
":+	c #FCC724",
"<+	c #F5BE14",
"[+	c #CF9618",
"}+	c #854916",
"|+	c #652624",
"1+	c #622730",
"2+	c #5F282A",
"3+	c #5E2827",
"4+	c #5F2828",
"5+	c #5E2A28",
"6+	c #60272B",
"7+	c #622629",
"8+	c #662827",
"9+	c #884D16",
"0+	c #D79A13",
"a+	c #FCBD08",
"b+	c #FAC201",
"c+	c #F7C205",
"d+	c #FDB900",
"e+	c #FBBA0A",
"f+	c #F4C958",
"g+	c #D58C55",
"h+	c #FBBA15",
"i+	c #FABE04",
"j+	c #FCC001",
"k+	c #F8C218",
"l+	c #FCC938",
"m+	c #F9C830",
"n+	c #F7BE15",
"o+	c #C58D14",
"p+	c #713420",
"q+	c #622432",
"r+	c #5E2926",
"s+	c #5B2A24",
"t+	c #5E2A1E",
"u+	c #602824",
"v+	c #5F272F",
"w+	c #5F272C",
"x+	c #5E2731",
"y+	c #5E292A",
"z+	c #5C2927",
"A+	c #5C292A",
"B+	c #61282A",
"C+	c #75311C",
"D+	c #CD8916",
"E+	c #F9BE07",
"F+	c #FDBF00",
"G+	c #F9C205",
"H+	c #F8C008",
"I+	c #F8C005",
"J+	c #F8C225",
"K+	c #F8DD91",
"L+	c #EBB31A",
"M+	c #FAC206",
"N+	c #F5C401",
"O+	c #F8C207",
"P+	c #FAC929",
"Q+	c #FCCA37",
"R+	c #F7C21E",
"S+	c #CB931C",
"T+	c #6F3221",
"U+	c #5C2B1F",
"V+	c #5D2928",
"W+	c #63252B",
"X+	c #62262B",
"Y+	c #5D2925",
"Z+	c #5F2728",
"`+	c #5E2829",
" @	c #5E272D",
".@	c #5E282B",
"+@	c #5F2825",
"@@	c #5F2821",
"#@	c #5F2928",
"$@	c #6C3319",
"%@	c #CE941F",
"&@	c #FBBE0C",
"*@	c #FBC105",
"=@	c #FDBD01",
"-@	c #FABF07",
";@	c #F8C104",
">@	c #FAC103",
",@	c #FBCC3C",
"'@	c #D69F66",
")@	c #FBC111",
"!@	c #FCC003",
"~@	c #FAC10B",
"{@	c #FBCB2E",
"]@	c #F9C71C",
"^@	c #E5A21F",
"/@	c #72371C",
"(@	c #612826",
"_@	c #5F2829",
":@	c #5E2826",
"<@	c #5E282A",
"[@	c #60262E",
"}@	c #60272C",
"|@	c #5E2A29",
"1@	c #602727",
"2@	c #612729",
"3@	c #612728",
"4@	c #612B2A",
"5@	c #5D282C",
"6@	c #62262A",
"7@	c #5D2A1E",
"8@	c #5E282C",
"9@	c #773814",
"0@	c #E29F1C",
"a@	c #F9AF11",
"b@	c #FCAA0A",
"c@	c #F8AF0C",
"d@	c #F7B007",
"e@	c #FBB002",
"f@	c #F8AF1F",
"g@	c #F2C678",
"h@	c #EBAB28",
"i@	c #FDC000",
"j@	c #FCBF04",
"k@	c #FCC104",
"l@	c #FBBD16",
"m@	c #F2B91D",
"n@	c #975E0F",
"o@	c #612724",
"p@	c #5F2729",
"q@	c #5F272A",
"r@	c #6B4F50",
"s@	c #7B7777",
"t@	c #653D3E",
"u@	c #622628",
"v@	c #6A4D4E",
"w@	c #7C7777",
"x@	c #684B4A",
"y@	c #622727",
"z@	c #63262B",
"A@	c #5E2A1F",
"B@	c #5C2832",
"C@	c #622434",
"D@	c #96581F",
"E@	c #F1A01E",
"F@	c #FCA10D",
"G@	c #F9A511",
"H@	c #F7A30F",
"I@	c #FCA105",
"J@	c #F3A523",
"K@	c #F1B655",
"L@	c #CD925B",
"M@	c #F9C211",
"N@	c #FBBF04",
"O@	c #FCBB09",
"P@	c #D29721",
"Q@	c #5E2F1E",
"R@	c #726263",
"S@	c #7F7F7F",
"T@	c #797373",
"U@	c #612A2C",
"V@	c #633335",
"W@	c #7C7979",
"X@	c #6F5A5A",
"Y@	c #622728",
"Z@	c #63252F",
"`@	c #5F2826",
" #	c #5B2B28",
".#	c #5C2831",
"+#	c #632A22",
"@#	c #D38A2C",
"##	c #FA9F12",
"$#	c #FDA017",
"%#	c #FC9F16",
"&#	c #FD9D0D",
"*#	c #F0A426",
"=#	c #FAA72F",
"-#	c #E0A75A",
";#	c #FAC203",
">#	c #FCBC12",
",#	c #FDC100",
"'#	c #FBBF06",
")#	c #F9BD12",
"!#	c #9B6616",
"~#	c #5C282D",
"{#	c #69494A",
"]#	c #716060",
"^#	c #766A6B",
"/#	c #7E7C7C",
"(#	c #653B3C",
"_#	c #60272A",
":#	c #60272D",
"<#	c #5F2920",
"[#	c #5F2921",
"}#	c #995C23",
"|#	c #F7A11D",
"1#	c #FD9F1A",
"2#	c #FDA016",
"3#	c #FBA012",
"4#	c #F4A316",
"5#	c #FBA423",
"6#	c #F6D093",
"7#	c #E4A83F",
"8#	c #FBC10B",
"9#	c #FCBE13",
"0#	c #FDC200",
"a#	c #FCC006",
"b#	c #E7B41A",
"c#	c #6D3B0F",
"d#	c #62292A",
"e#	c #726262",
"f#	c #7F7E7E",
"g#	c #6D5656",
"h#	c #60262C",
"i#	c #61252F",
"j#	c #60262D",
"k#	c #6F321E",
"l#	c #EB9B20",
"m#	c #FCA017",
"n#	c #FDA112",
"o#	c #F8A312",
"p#	c #FAA007",
"q#	c #F6A220",
"r#	c #F6C680",
"s#	c #EEAF1B",
"t#	c #FABF09",
"u#	c #FCC202",
"v#	c #FAC001",
"w#	c #D49F18",
"x#	c #5D2D16",
"y#	c #5F2924",
"z#	c #61272C",
"A#	c #612B2D",
"B#	c #7A7474",
"C#	c #776D6D",
"D#	c #5F2725",
"E#	c #682521",
"F#	c #D78A1D",
"G#	c #FCA013",
"H#	c #FCA10F",
"I#	c #F6A410",
"J#	c #FD9D0B",
"K#	c #FA9F20",
"L#	c #F8C17B",
"M#	c #F5B817",
"N#	c #FBC202",
"O#	c #FCC102",
"P#	c #C28C15",
"Q#	c #5C2921",
"R#	c #61292A",
"S#	c #664041",
"T#	c #7E7D7D",
"U#	c #7D7A7B",
"V#	c #633637",
"W#	c #602926",
"X#	c #642528",
"Y#	c #C57A1B",
"Z#	c #FDA111",
"`#	c #F5A318",
" $	c #FC9D11",
".$	c #F9A21F",
"+$	c #F9BF6C",
"@$	c #F9BD14",
"#$	c #FAC004",
"$$	c #FABE08",
"%$	c #BA8318",
"&$	c #5D282D",
"*$	c #61262B",
"=$	c #746666",
"-$	c #715F5F",
";$	c #5F2925",
">$	c #60262B",
",$	c #BD7525",
"'$	c #FCA117",
")$	c #FDA00F",
"!$	c #F7A21C",
"~$	c #FD9D12",
"{$	c #F9A31C",
"]$	c #F9C069",
"^$	c #F9BC19",
"/$	c #FABE06",
"($	c #B88119",
"_$	c #61262A",
":$	c #653C3D",
"<$	c #7D7B7B",
"[$	c #643738",
"}$	c #5E2A23",
"|$	c #BB7529",
"1$	c #FCA213",
"2$	c #FDA109",
"3$	c #FBA018",
"4$	c #FD9C0C",
"5$	c #F8A419",
"6$	c #F9C167",
"7$	c #F7BA1B",
"8$	c #FCC108",
"9$	c #FCC500",
"0$	c #FBC10E",
"a$	c #BF881C",
"b$	c #5C2A23",
"c$	c #5C2A22",
"d$	c #60292B",
"e$	c #797171",
"f$	c #776E6F",
"g$	c #61272A",
"h$	c #602928",
"i$	c #5F2827",
"j$	c #BB7D28",
"k$	c #FAA10D",
"l$	c #FD9D14",
"m$	c #FCA012",
"n$	c #FDA006",
"o$	c #F7A41D",
"p$	c #FCC265",
"q$	c #F6B91C",
"r$	c #FCC400",
"s$	c #FBBF08",
"t$	c #FBBD03",
"u$	c #CB8924",
"v$	c #5D2927",
"w$	c #705C5D",
"x$	c #736364",
"y$	c #6F595A",
"z$	c #622724",
"A$	c #CE862F",
"B$	c #F8A214",
"C$	c #FD9F13",
"D$	c #FCA109",
"E$	c #F9A31A",
"F$	c #FCC474",
"G$	c #EEB23E",
"H$	c #FCC301",
"I$	c #FCBD06",
"J$	c #FCAD07",
"K$	c #E4932B",
"L$	c #6C2D1D",
"M$	c #664142",
"N$	c #736565",
"O$	c #746768",
"P$	c #6D2D1A",
"Q$	c #E7932F",
"R$	c #F5A21B",
"S$	c #FAA212",
"T$	c #FD9D15",
"U$	c #F9A311",
"V$	c #FB9F15",
"W$	c #FBC278",
"X$	c #ECB15D",
"Y$	c #FBC106",
"Z$	c #FCBF0C",
"`$	c #FAB607",
" %	c #FCA011",
".%	c #F79F1C",
"+%	c #8F5015",
"@%	c #62262C",
"#%	c #622E30",
"$%	c #622F31",
"%%	c #925318",
"&%	c #F99E22",
"*%	c #F8B42E",
"=%	c #F7A411",
"-%	c #FC9B18",
";%	c #F6A317",
">%	c #FCA018",
",%	c #FCC681",
"'%	c #E6B160",
")%	c #F7BF0A",
"!%	c #FBBC11",
"~%	c #FCBD02",
"{%	c #F7A90F",
"]%	c #FD9D16",
"^%	c #F99F10",
"/%	c #C3821B",
"(%	c #632A24",
"_%	c #60262F",
":%	c #684647",
"<%	c #6E5657",
"[%	c #65252A",
"}%	c #61262C",
"|%	c #5A2A29",
"1%	c #632823",
"2%	c #C7812A",
"3%	c #F2A31A",
"4%	c #F4A516",
"5%	c #F9A214",
"6%	c #FC9C18",
"7%	c #F0A41E",
"8%	c #F9A72D",
"9%	c #F5BD1F",
"0%	c #FCBE07",
"a%	c #FAB402",
"b%	c #F8A412",
"c%	c #FD9F14",
"d%	c #FA9F11",
"e%	c #EAA022",
"f%	c #864818",
"g%	c #5F2A20",
"h%	c #5D282B",
"i%	c #5E2924",
"j%	c #5E2920",
"k%	c #653E3F",
"l%	c #6C5354",
"m%	c #64393A",
"n%	c #602632",
"o%	c #662525",
"p%	c #5D2B25",
"q%	c #5B2C26",
"r%	c #8B4922",
"s%	c #EBAB42",
"t%	c #FAC340",
"u%	c #F9A417",
"v%	c #FDA013",
"w%	c #FD9F12",
"x%	c #F7A216",
"y%	c #F6B149",
"z%	c #ECB767",
"A%	c #F7AA0C",
"B%	c #F8A30F",
"C%	c #FCA00D",
"D%	c #F8A119",
"E%	c #D68329",
"F%	c #6B2D18",
"G%	c #5E2822",
"H%	c #5C2C1D",
"I%	c #64252F",
"J%	c #5E2A24",
"K%	c #592931",
"L%	c #6D2C1E",
"M%	c #D18B26",
"N%	c #F7C94B",
"O%	c #F9C242",
"P%	c #F9A11E",
"Q%	c #FBA20F",
"R%	c #FABB66",
"S%	c #F9B819",
"T%	c #F7A511",
"U%	c #FAA210",
"V%	c #FBA110",
"W%	c #FCA00C",
"X%	c #FCA014",
"Y%	c #FA9D21",
"Z%	c #BB6E27",
"`%	c #6F2C19",
" &	c #5E272F",
".&	c #64291C",
"+&	c #672629",
"@&	c #B97121",
"#&	c #F4B932",
"$&	c #FCCD4E",
"%&	c #F1B42F",
"&&	c #FB9E16",
"*&	c #FD9D11",
"=&	c #F8A111",
"-&	c #FCAB33",
";&	c #F0AD4D",
">&	c #F7A40F",
",&	c #FBA011",
"'&	c #FBA10E",
")&	c #FBA20E",
"!&	c #FCA216",
"~&	c #FCA112",
"{&	c #F79C1D",
"]&	c #B46622",
"^&	c #692A1C",
"/&	c #5D2828",
"(&	c #5E2828",
"_&	c #612829",
":&	c #642A25",
"<&	c #B46B12",
"[&	c #F4A92A",
"}&	c #FBC85C",
"|&	c #F6BF48",
"1&	c #EFA617",
"2&	c #FD9F0A",
"3&	c #FB9E18",
"4&	c #F9A31B",
"5&	c #F9BE75",
"6&	c #F2A12B",
"7&	c #FBA115",
"8&	c #FBA212",
"9&	c #FCA20E",
"0&	c #FBA311",
"a&	c #F79D26",
"b&	c #C16F21",
"c&	c #73341A",
"d&	c #5A2826",
"e&	c #5A2B28",
"f&	c #5C2A25",
"g&	c #602829",
"h&	c #612824",
"i&	c #612726",
"j&	c #612432",
"k&	c #63292B",
"l&	c #75331F",
"m&	c #BC7A1A",
"n&	c #EFA931",
"o&	c #FBC453",
"p&	c #F6C946",
"q&	c #F1AB22",
"r&	c #F9A218",
"s&	c #F7AC43",
"t&	c #EAA76D",
"u&	c #FAA01D",
"v&	c #FD9E1D",
"w&	c #FD9E1B",
"x&	c #FD9F17",
"y&	c #FCA30D",
"z&	c #F8A115",
"A&	c #FAA30A",
"B&	c #F5A111",
"C&	c #D3881E",
"D&	c #9B5719",
"E&	c #6F2A1D",
"F&	c #66232B",
"G&	c #612532",
"H&	c #5C292B",
"I&	c #622723",
"J&	c #5F2922",
"K&	c #5B2A26",
"L&	c #6D2E27",
"M&	c #9B5E12",
"N&	c #E0871A",
"O&	c #F4B231",
"P&	c #F7CB54",
"Q&	c #FBC451",
"R&	c #F9A81A",
"S&	c #FCA00B",
"T&	c #F9A20F",
"U&	c #F3A422",
"V&	c #F7A827",
"W&	c #FAC483",
"X&	c #EFA85D",
"Y&	c #FBA111",
"Z&	c #FD9E0D",
"`&	c #F9A20D",
" *	c #FB9F19",
".*	c #FC9E1F",
"+*	c #FBA216",
"@*	c #F19D12",
"#*	c #D38319",
"$*	c #AD621F",
"%*	c #88461F",
"&*	c #6D3214",
"**	c #662C19",
"=*	c #64291F",
"-*	c #642921",
";*	c #652B1A",
">*	c #6E301C",
",*	c #8E4820",
"'*	c #AB6511",
")*	c #D3851D",
"!*	c #EB9B22",
"~*	c #F5C351",
"{*	c #FBCC4B",
"]*	c #FBC037",
"^*	c #F7A822",
"/*	c #F9A11A",
"(*	c #F9A114",
"_*	c #F6A216",
":*	c #FCA01E",
"<*	c #F5C47C",
"[*	c #EEA456",
"}*	c #FBA213",
"|*	c #FBA214",
"1*	c #FB9F17",
"2*	c #FCA01A",
"3*	c #FDA012",
"4*	c #FCA30E",
"5*	c #FAA311",
"6*	c #F39D18",
"7*	c #E6931E",
"8*	c #DB8A21",
"9*	c #CE7F1A",
"0*	c #C8791C",
"a*	c #C97A21",
"b*	c #CD7F1D",
"c*	c #DC8C20",
"d*	c #E89516",
"e*	c #F0A018",
"f*	c #FAB237",
"g*	c #F4AD32",
"h*	c #F5BA43",
"i*	c #F5B030",
"j*	c #F8A20F",
"k*	c #FBA20D",
"l*	c #F9A21A",
"m*	c #F7A117",
"n*	c #FAA022",
"o*	c #FABF70",
"p*	c #EFA755",
"q*	c #F8A01C",
"r*	c #FB9E17",
"s*	c #FDA10E",
"t*	c #FCA20B",
"u*	c #FCA110",
"v*	c #FD9E1A",
"w*	c #FD9E1C",
"x*	c #FB9F13",
"y*	c #FCA111",
"z*	c #FBA010",
"A*	c #FDA015",
"B*	c #FD9F16",
"C*	c #FDA113",
"D*	c #FAA314",
"E*	c #F9AE26",
"F*	c #F4A51F",
"G*	c #F9AE2B",
"H*	c #F6AC1A",
"I*	c #F6A116",
"J*	c #F4A21D",
"K*	c #F7A40A",
"L*	c #FCA205",
"M*	c #FCA016",
"N*	c #FBA41D",
"O*	c #FDB86D",
"P*	c #EDA561",
"Q*	c #F6A314",
"R*	c #FC9D21",
"S*	c #FDA010",
"T*	c #FDA10C",
"U*	c #FDA110",
"V*	c #FDA014",
"W*	c #F8A519",
"X*	c #F8A416",
"Y*	c #F9A212",
"Z*	c #FBA211",
"`*	c #FD9E07",
" =	c #F9A10D",
".=	c #F4A125",
"+=	c #F89F2A",
"@=	c #F6AC37",
"#=	c #FCC882",
"$=	c #EAB172",
"%=	c #F7A02F",
"&=	c #FBA01B",
"*=	c #FBA019",
"==	c #FBA116",
"-=	c #FCA015",
";=	c #FBA00F",
">=	c #F2A31D",
",=	c #F2A221",
"'=	c #FCA718",
")=	c #F9B45B",
"!=	c #EDAD70",
"~=	c #F1A426",
"{=	c #F8A215",
"]=	c #FB9F1C",
"^=	c #FD9F10",
"/=	c #F9A013",
"(=	c #FAA216",
"_=	c #F6A41B",
":=	c #F5B95A",
"<=	c #F9C987",
"[=	c #F5B073",
"}=	c #F7A753",
"|=	c #FB9F20",
"1=	c #FD9F15",
"2=	c #FC9F13",
"3=	c #FCA113",
"4=	c #F9A01B",
"5=	c #F7A12A",
"6=	c #F5AD5B",
"7=	c #F1B877",
"8=	c #F5A766",
"9=	c #F59D50",
"0=	c #F7AF67",
"a=	c #F7AC53",
"b=	c #F6AB53",
"c=	c #F5AB5A",
"d=	c #F2A446",
"e=	c #F6AC68",
"                                . + @ # $ % & *                                 ",
"                        = - ; > , ' ) ! ~ { ] ^ / ( _ :                         ",
"                    < [ } | 1 2 3 4 5 6 7 8 9 0 a b c d e &                     ",
"                  f g h i j k l m n o p q r s t u v w x y z A                   ",
"              B C D E F G H I J K l L M N N O P Q R R s S P T U V               ",
"            W X Y Z `  ...+.@.#.$.%.&.*.=. .-.K ;.>.,.%.'.).!.~.{.].            ",
"          ^./.(._.:.<.[.}.|.1.2.3.4.5.6.7.8.9.0.a.b.c.d.e.f.,.g.h.i.j.          ",
"        k.l.m.n.o.p.q.r.s.t.u.v.w.x.y.z.A.B.C.D.E.F.G.b.H.Q I.J.K.L.M.N.        ",
"      O.P.Q.R.S.T.U.V.W.X.Y.Z.`. +.+++@+@+@+#+$+%+&+*+=+-+;+>+,+'+)+!+~+        ",
"      {+]+^+/+(+_+:+<+[+}+|+1+2+3+++@+@+@+@+4+5+6+7+8+9+0+!+a+b+` c+d+e+f+      ",
"    g+h+i+j+k+l+m+n+o+p+q+r+s+t+u+v+6+@+@+@+w+x+y+z+A+B+C+D+E+>.F+G+H+I+J+K+    ",
"    L+M+N+O+P+Q+R+S+T+y+U+V+u+W+X+Y+4+@+@+@+Z+`+ @.@+@@@#@$@%@&@*@=@-@;@>@,@    ",
"  '@)@!@h.~@{@]@^@/@(@_@:@<@ @[@}@|@1@@+@+2@3@4@<@5@ +6@7@8@9@0@a@b@c@d@e@f@g@  ",
"  h@l i@j@k@l@m@n@o@@+@+@+p@q@@+r@s@t@@+@+u@v@w@x@3+y@z@A@B@C@D@E@F@G@H@I@J@K@  ",
"L@M@N@^+R.m O@P@Q@2+@+@+@+@+@+R@S@S@T@U@@+V@W@S@S@X@Y@Z@`@ #.#+#@###$#%#&#*#=#  ",
"-#;#>#,#6 '#)#!#~# +@+@+@+@+@+{#S@S@S@]#@+^#S@S@/#(#@+_#:#`@<#[#}#|#1#2#3#4#5#6#",
"7#8#9#0#a#0 b#c#d#_#@+@+@+@+@+@+e#S@S@f#e#S@S@S@g#@+@+++h#i#X+j#k#l#m#n#o#p#q#r#",
"s#t#>.u#P v#w#x#y#z#@+@+@+@+@+@+A#B#S@S@S@S@S@C#@+@+@+@+@+@+@+D#E#F#G#H#I#J#K#L#",
"M#N#>.O#-@a#P#Q#R#z#@+@+@+_@@+@+@+S#T#S@S@S@U#V#@+@+@+@+@+@+@+W#X#Y#m#Z#`# $.$+$",
"@$R.>.,.#$$$%$&$4+*$@+@+@+@+@+@+@+@+=$S@S@S@-$@+@+@+_#6+@+@+@+;$>$,$'$)$!$~${$]$",
"^$a#,.R ,./$($&$y#_$@+@+@+@+@+@+@+:$/#S@S@S@<$[$@+@+ +_#@+@+@+}$`+|$1$2$3$4$5$6$",
"7$P 8$9$0$;#a$b$c$@+@+@+@+@+@+@+d$e$S@S@S@S@S@f$@+@+g$g$@+@+@+h$i$j$k$l$m$n$o$p$",
"q$v#a#r$s$t$u$+@v$@+@+@+@+@+@+@+w$S@S@S@x$S@S@S@y$@+_@@+@+@+@+2+z$A$B$C$C$D$E$F$",
"G$H$P >.I$J$K$L$6+@+@+@+@+@+@+M$T#S@S@N$@+O$S@S@T#S#@+@+@+@+@+ +P$Q$R$S$T$U$V$W$",
"X$Y$Z$o.`$ %.%+%@%@+@+@+@+@+A#B#S@S@s@#%@+$%s@S@S@B#A#@+@+@+@+_@%%&%*%=%-%;%>%,%",
"'%)%!%~%{%]%^%/%(%`@_%[@q@@+d$w$T#f#:%@+@+@+:%f#/#<%@+y#[%}%|%1%2%3%4%5%6%7%8%  ",
"  9%0%a%b%c%d%e%f%g%h%i%j%@+@+@+k%g#@+@+@+@+@+l%m%@+@+n%o%p%q%r%s%t%u%v%w%x%y%  ",
"  z%6 A%B%m$C%D%E%F%G%H%i%@+@+@+@+@+@+@+@+@+@+@+@+@+@+I%J%K%L%M%N%O%P%)$Q%)$R%  ",
"    S%T%U%V%W%X%Y%Z%`%+@ &:#@+p@_@@+p@_@_@`+p@@+@+@+@+.&h%+&@&#&$&%&&&*&=&-&    ",
"    ;&>&,&'&)&!&~&{&]&^&Y+/&(&i$1@@+<@<@`+`+q@g$++_&@+@+:&<&[&}&|&1&2&3&4&5&    ",
"      6&'&7&8&9&$#0&a&b&c&d&e&f&i$}%:#q@4+i$g&h&i&j&k&l&m&n&o&p&q& %r&|#s&      ",
"      t&u&v&w&x&y&z&A&B&C&D&E&F&G&H&3@y@y@I&J&K&6+L&M&N&O&P&Q&R&S&T&U&V&W&      ",
"        X&Y&Z&w&S$`& *.*+*@*#*$*%*&***=*-*;*>*,*'*)*!*~*{*]*^*/*(*_*:*<*        ",
"          [*}*v&|*,&1*2*3*4*5*6*7*8*9*0*a*b*c*d*e*f*g*h*i*j*k*l*m*n*o*          ",
"            p*q*r*s*t*u*v*w*x*y*z*x*n#A*B*C*D*E*F*G*H*I*J*K*L*M*N*O*            ",
"              P*Q*R*w&S*T*U*V*V*V*V*V*V*V*V*7&W*X*Y*Z*`* =.=+=@=#=              ",
"                $=%=&=*===-=V*V*V*V*V*V*V*V*G#;=u*;=u*>=,='=)=                  ",
"                    !=~={=]=V*V*V*V*V*V*V*V*v%^=m$/=(=_=:=<=                    ",
"                        [=}=|=2*1=V*1=B*B*1=2=3=4=5=6=7=                        ",
"                                8=9=0=a=b=c=d=e=                                "};
