/* XPM */
static xpm_row_t const singleplayer_normal_xpm[] = {
"190 33 163 2",
"  	c #FF66FF",
". 	c #FF65FF",
"+ 	c #FF62FF",
"@ 	c #FF60FF",
"# 	c #FF64FF",
"$ 	c #FF63FF",
"% 	c #FF61FF",
"& 	c #FF79FF",
"* 	c #FFACFF",
"= 	c #FFC2FF",
"- 	c #FFC7FF",
"; 	c #FFB2FF",
"> 	c #FF8EFF",
", 	c #FF67FF",
"' 	c #FF6FFF",
") 	c #FFA2FF",
"! 	c #FFC8FF",
"~ 	c #FFB9FF",
"{ 	c #FF84FF",
"] 	c #FF86FF",
"^ 	c #FFC0FF",
"/ 	c #FFBFFF",
"( 	c #FF81FF",
"_ 	c #FFB7FF",
": 	c #FFC6FF",
"< 	c #FFA6FF",
"[ 	c #FF6AFF",
"} 	c #FF8CFF",
"| 	c #FFB0FF",
"1 	c #FFC4FF",
"2 	c #FFBDFF",
"3 	c #FFABFF",
"4 	c #FF8BFF",
"5 	c #FF7CFF",
"6 	c #FFB6FF",
"7 	c #FF77FF",
"8 	c #FF70FF",
"9 	c #FFA4FF",
"0 	c #FFBBFF",
"a 	c #FFA7FF",
"b 	c #FF75FF",
"c 	c #FFAFFF",
"d 	c #FFB1FF",
"e 	c #FF76FF",
"f 	c #FF92FF",
"g 	c #FFB8FF",
"h 	c #FF6BFF",
"i 	c #FFC5FF",
"j 	c #FFC1FF",
"k 	c #FF8DFF",
"l 	c #FF68FF",
"m 	c #FF93FF",
"n 	c #FF71FF",
"o 	c #FF95FF",
"p 	c #FF90FF",
"q 	c #FF6EFF",
"r 	c #FF9BFF",
"s 	c #FF72FF",
"t 	c #FF82FF",
"u 	c #FFD3FF",
"v 	c #FFF3FF",
"w 	c #FFFFFF",
"x 	c #FFF6FF",
"y 	c #FFE2FF",
"z 	c #FF9FFF",
"A 	c #FF78FF",
"B 	c #FFCAFF",
"C 	c #FFECFF",
"D 	c #FFF7FF",
"E 	c #FFFBFF",
"F 	c #FFCDFF",
"G 	c #FFE9FF",
"H 	c #FFD0FF",
"I 	c #FF7EFF",
"J 	c #FFBAFF",
"K 	c #FFF5FF",
"L 	c #FFFCFF",
"M 	c #FFF2FF",
"N 	c #FFE0FF",
"O 	c #FFD8FF",
"P 	c #FFE8FF",
"Q 	c #FFE1FF",
"R 	c #FF7AFF",
"S 	c #FFCEFF",
"T 	c #FFEFFF",
"U 	c #FFCCFF",
"V 	c #FF85FF",
"W 	c #FFDEFF",
"X 	c #FF83FF",
"Y 	c #FF97FF",
"Z 	c #FF69FF",
"` 	c #FFF8FF",
" .	c #FFFDFF",
"..	c #FFCFFF",
"+.	c #FF6CFF",
"@.	c #FFAEFF",
"#.	c #FF73FF",
"$.	c #FF87FF",
"%.	c #FFC9FF",
"&.	c #FFFEFF",
"*.	c #FFA9FF",
"=.	c #FFEBFF",
"-.	c #FFF1FF",
";.	c #FF91FF",
">.	c #FFEAFF",
",.	c #FF9AFF",
"'.	c #FF9EFF",
").	c #FFE4FF",
"!.	c #FFADFF",
"~.	c #FFE7FF",
"{.	c #FFD6FF",
"].	c #FFE5FF",
"^.	c #FFF0FF",
"/.	c #FFAAFF",
"(.	c #FFDAFF",
"_.	c #FFFAFF",
":.	c #FFDDFF",
"<.	c #FFD9FF",
"[.	c #FF96FF",
"}.	c #FFD2FF",
"|.	c #FF6DFF",
"1.	c #FFBEFF",
"2.	c #FFF4FF",
"3.	c #FFB5FF",
"4.	c #FF8FFF",
"5.	c #FFB4FF",
"6.	c #FFF9FF",
"7.	c #FF99FF",
"8.	c #FF89FF",
"9.	c #FFD7FF",
"0.	c #FF8AFF",
"a.	c #FFEEFF",
"b.	c #FFB3FF",
"c.	c #FFE6FF",
"d.	c #FF5FFF",
"e.	c #FFA5FF",
"f.	c #FF94FF",
"g.	c #FFE3FF",
"h.	c #FF98FF",
"i.	c #FFEDFF",
"j.	c #FF9DFF",
"k.	c #FFD4FF",
"l.	c #FF7BFF",
"m.	c #FFBCFF",
"n.	c #FFA0FF",
"o.	c #FF7FFF",
"p.	c #FFCBFF",
"q.	c #FFC3FF",
"r.	c #FF7DFF",
"s.	c #FF88FF",
"t.	c #FFDFFF",
"u.	c #FFD1FF",
"v.	c #FF80FF",
"w.	c #FFDBFF",
"x.	c #FF74FF",
"y.	c #FFA8FF",
"z.	c #FF5EFF",
"A.	c #FFA1FF",
"B.	c #FFD5FF",
"C.	c #FF5DFF",
"D.	c #FF5BFF",
"E.	c #FFDCFF",
"F.	c #FF9CFF",
"                                                                                                                                                                                                                                                                                                                                                                                            ",
"                                                                                                                                                                                                                                                                                                                                                                                            ",
"                                                                                                                                                                                                                                                                                                                                                                                            ",
"                                                                                                                                                                                                                                                                                                                                                                                            ",
"                                                                                                                                                                                                                                                                                                                                                                                            ",
"                                                                                                                                                                                                                                                                                                                                                                                            ",
"                                                                                                                                                                                                                                                                                                                                                                                            ",
"                                                                                                                                                                                                                                                                                                                                                                                            ",
"                                                    . + @ @ @ + #       $ @ % .   . @ @ .             % @ +           # + @ @ @ % + #     . % @ +             . % @ @ @ @ @ @ @ + .               $ @ @ @ @ @ % + .     . + @ + .                   # @ @ %           + @ @ #           # @ @ +   # @ @ @ @ @ @ @ @ #   $ @ @ @ @ @ % + .                                                   ",
"                                                  # & * = - = ; > ,   ' ) ! ~ { # ] ^ / (           . _ : < [     . . } | 1 - : 2 3 4 % . 5 _ - 3 '         . 5 6 ! - - - - - ! | 7 .           8 9 ! - - - - 0 a b . . 7 c ! d e                   f = - g .       h 3 i j k l       $ m ^ - 3 n o - - - - - - - i p q r - - - - - 0 a s .                                                 ",
"                                                . t u v w w w x y z l A B w C r $ z D E F '         $ G w H q   # I J y K w w w L M N * l > G w O 7         # > P w w w w w w w Q ] #           R S w w w w w E T U I # V W w N X                 # B L w v Y .     Z 6 `  ...h       +.F  .L @.#._ w w w w w w w w | b / w w w w w E T H $.,                                               ",
"                                                7 %.&.v 1 *.: =.-.;., A %.w >.,.$ '.K w x J $       $ P &...q . 5 - D &.).j !.@.u -.E i $ > ~.w {.e         # k ~.w ].d 3 3 3 * ,.n             R F w ^.^ /.; (.&._.F h V :.w W X                 A ~.&.L _.B $     . e <.L v [.,   + < ^.w }.7 |.6 &.D F /.3 3 3 /.X #.1.w 2.! *.3.<.E L H Z                                               ",
"                                                { >.L S n + e 4.m [   A %.w >.,.$ '.K w &.T *.#     $ P &...q ' 5.6.w S 4 s . . I 7.d 8.+ > ~.w {.e         # k ~.w 9.b $ $ $ $ #               R F w P o % l 0.).&.a.,.X :.w W X               $ b.x 6.{. .c.& .     . ,.-. .(.Z . 5 u w -.,.l |.6 w v @.d.$ $ $ $ . s 1.w T e.d.[ { c.&.-.t                                               ",
"                                                0.`  .F q l   . .     A %.w >.,.$ '.K w &.&.].f..   $ P &...|.$.g.w ~.h.#         , q l # > ~.w {.e         # k ~.w 9.7                         R F w P [.#   +.~  .2.d t :.w W X               # O  .y z E K 5.$       q F L K *.$ a M  ./ #.  |.6 w v c +           s 1.w T < +   , H L K r                                               ",
"                                                ] i.w K u j.& |.,     A %.w >.,.$ '.K E 9.L  .k.l.  $ P &...q 7. .&.- ,                 # > ~.w {.e         # k ~.w (.] & & A 8                 R F w P [.#   |.m.&.K ; t :.w W X             $ n.a.&._ o.Q  .u .         I C  .:.> {.w ].f     |.6 w 2.3.e & & e l   s 1.w T < + l #.N  .C s                                               ",
"                                                b i E &. .E G m.{ l   A %.w >.,.$ '.K 6.d p. .6.q.s + P &...b 5.w 6.~ %     , r.{ { { r.Z > ~.w {.e         # k ~.w  ._.6.6.K = %               R F w P [.# l o.W &.a.7.X :.w W X             # : _.M $.q 6 &.=.,.$       [ @._.2.9.` ` |       |.6 &.&.E 6.6.6.P X   s 1.w -.b.( f.k._.6.%.Z                                               ",
"                                                  o.! T ` &.w  .y V , A %.w >.,.$ '.K 6.< s.t.w M @., P &...A m.w ` g %     q Q L  . .y s.k ~.w {.e         # k ~.w 6.a.i.i.G J +               R F w C c p r k.L E u.$ V :.w W X           . v.N w U b . s.-.6.^ .         A w. .E &.k.o..     |.6 &. .v i.i.i.:.v.  s 1.w w &. . .&.v S s                                                 ",
"                                                    [ p / W v &. .! +.A %.w >.,.$ '.K 6.<   o >.w c.[.G &...x.@.w _.0 @     +.F ].-.w ).8.k ~.w {.e         # k ~.w 9.A , , ,                   R F w w w w w L 2.9.$.# V :.w W X           % @.v w 1.n.z /.Q w W t .       Z ,.2.w -.*.+       |.6 w v c $ , , ,     s 1.w E i.=.E w - n                                                   ",
"                                                  . . . $ Z * 2.&.).' A %.w >.,.$ '.K 6.< , , y.M w {.M &...|.f x w ..s .     $ q m.w ).8.k ~.w {.e         # k ~.w 9.7                         R F w ` g.w.w.S d n . . V :.w W X         . 8 U &.w w w w w w w v * %         I W w Q s.#       |.6 w v c +           s 1.w T 9 { :. .2.j.l                                                 ",
"                                                h t x.$   . # >.&.W q A %.w >.,.$ '.K 6.< , . 8 1.` &.w  ...|.o.{.w T 3 Z #     ' m.w ).8.k ~.w {.e         # k ~.w 9.7                         R F w P m z.@ % $     . V :.w W X         $ 7.G w t.u.u.u.u.{.^.w p.#..       r.w.w y 8.#       |.6 w v c +           s 1.w T < d.A.^.&.g.t                                                 ",
"                                              , ] 9.%.m Z +.e.M  .g [ A %.w >.,.$ '.K 6.< ,   # r.}.L w  ...q l n.^.w c.3.t $ # h.k.w ).0.k ~.w B.n d.d.d.@ + k ~.w {.s d.d.d.d.% .             R F w P [.#           . V :.w W o.d.d.d.@   ~ E K 7.C.d.d.d.8 i w G h.$       r.w.w y 8.#       |.6 w v * D.d.d.d.d.# n 1.w T < + l ! _.L 1                                                 ",
"                                              +.*  .L ~.{.9.i. .W o.  A %.w >.,.$ '.K 6.< ,     $ 4 Q &.&...q . s c =.w K N k.B.~.` w W I k ~.w ^.{.u u k.! ;.} ~.w ^.{.u u u k.J R .           R F w P [.#           . V :.w v <.u u u p.d (.w t.8..       . e.` L g [       r.w.w y 8.#       |.6 &._.g.u u u u u.Y x.1.w T < + . X ). .M e.#                                             ",
"                                              Z s.J g.6.w w M H f Z   A B w =.,.$ z x _.< ,       + Y ~. .H q   . 8 7.- ~._.w w E G U r Z > P w w w w w w M y.4 P w w w w w w w N ] #           R F w G [.#           . V W w w w w w w D (.K L ~ |.        . } Q w E.$..     r.E.w y 8.#       q 6 w w w w w w w w | b / w ^.< +   . n.v &.].4 .                                           ",
"                                                  8 8.Y F.r m r.l     [ ] j.m b . e h.,.&           , } r s.l         7 4 Y F.F.h.k R , . n f j.F.F.F.F.F.[.& 8 f j.F.F.F.F.F.j.> q             h $.j.f #.              q > j.F.F.F.F.F.h.> ,.7.R .           |.4 j.;.n       +.k j.p '         l I F.F.F.F.F.F.F.r 5 [ ( j.o & .     h f.F.Y b                                             ",
"                                                    . . . . .           . . .       . .               . . .             . . . . . .         . . . . . . . .     . . . . . . . . .                 . . .                   . . . . . . . . . . .                 . . .           . . .               . . . . . . . .       . .           . . .                                               ",
"                                                                                                                                                                                                                                                                                                                                                                                            ",
"                                                                                                                                                                                                                                                                                                                                                                                            ",
"                                                                                                                                                                                                                                                                                                                                                                                            ",
"                                                                                                                                                                                                                                                                                                                                                                                            ",
"                                                                                                                                                                                                                                                                                                                                                                                            ",
"                                                                                                                                                                                                                                                                                                                                                                                            ",
"                                                                                                                                                                                                                                                                                                                                                                                            ",
"                                                                                                                                                                                                                                                                                                                                                                                            "};
