/* XPM */
static xpm_row_t const arrow_right_active_xpm[] = {
"75 32 267 2",
"  	c None",
". 	c #000000",
"+ 	c #020201",
"@ 	c #026A08",
"# 	c #02670C",
"$ 	c #040003",
"% 	c #020501",
"& 	c #01BF15",
"* 	c #01B014",
"= 	c #023B04",
"- 	c #020101",
"; 	c #024A06",
"> 	c #00F219",
", 	c #00F51B",
"' 	c #01A711",
") 	c #023004",
"! 	c #060205",
"~ 	c #01940E",
"{ 	c #00FC1C",
"] 	c #00FD19",
"^ 	c #00E917",
"/ 	c #017A0E",
"( 	c #030502",
"_ 	c #010102",
": 	c #012802",
"< 	c #00EC19",
"[ 	c #00FF18",
"} 	c #00FF1A",
"| 	c #00FA14",
"1 	c #00C314",
"2 	c #014104",
"3 	c #000100",
"4 	c #018609",
"5 	c #00FD17",
"6 	c #00FD16",
"7 	c #00FE16",
"8 	c #00FE1D",
"9 	c #00F71A",
"0 	c #01920E",
"a 	c #011502",
"b 	c #000004",
"c 	c #010001",
"d 	c #021903",
"e 	c #00E716",
"f 	c #00FC19",
"g 	c #00FF16",
"h 	c #00FC17",
"i 	c #01DF1A",
"j 	c #027E0B",
"k 	c #021202",
"l 	c #040403",
"m 	c #010103",
"n 	c #010002",
"o 	c #000103",
"p 	c #010101",
"q 	c #02920F",
"r 	c #00FE1C",
"s 	c #00FC16",
"t 	c #00FE18",
"u 	c #00FE19",
"v 	c #00FD1A",
"w 	c #00E217",
"x 	c #018A0D",
"y 	c #021D02",
"z 	c #010201",
"A 	c #020402",
"B 	c #030B02",
"C 	c #021203",
"D 	c #022504",
"E 	c #022F03",
"F 	c #013E04",
"G 	c #015204",
"H 	c #016507",
"I 	c #016208",
"J 	c #025D07",
"K 	c #025B08",
"L 	c #026008",
"M 	c #016708",
"N 	c #026C09",
"O 	c #01780A",
"P 	c #017F0F",
"Q 	c #01860C",
"R 	c #028A0D",
"S 	c #01890A",
"T 	c #02890B",
"U 	c #018B0A",
"V 	c #008D0A",
"W 	c #02920B",
"X 	c #00990C",
"Y 	c #00A108",
"Z 	c #00A610",
"` 	c #00A711",
" .	c #00A611",
"..	c #00A613",
"+.	c #01A511",
"@.	c #01AB10",
"#.	c #00EA17",
"$.	c #00FF19",
"%.	c #00FE1A",
"&.	c #00FD1B",
"*.	c #00D718",
"=.	c #02890E",
"-.	c #022604",
";.	c #0D0603",
">.	c #025A08",
",.	c #01760D",
"'.	c #01A40F",
").	c #01B311",
"!.	c #00C614",
"~.	c #01D317",
"{.	c #00DD19",
"].	c #00E318",
"^.	c #00EA15",
"/.	c #00EC17",
"(.	c #00EE18",
"_.	c #00F419",
":.	c #00F81B",
"<.	c #00F91A",
"[.	c #00FD18",
"}.	c #00FE17",
"|.	c #00FF1B",
"1.	c #00FE1B",
"2.	c #00EA1A",
"3.	c #028E10",
"4.	c #022703",
"5.	c #08040D",
"6.	c #02A80F",
"7.	c #00FC18",
"8.	c #00FF17",
"9.	c #00F11A",
"0.	c #004604",
"a.	c #01AA0F",
"b.	c #00FC15",
"c.	c #00FB16",
"d.	c #01FC1C",
"e.	c #01CE16",
"f.	c #038509",
"g.	c #022903",
"h.	c #00A90F",
"i.	c #00F315",
"j.	c #01AB16",
"k.	c #016F06",
"l.	c #021B04",
"m.	c #010203",
"n.	c #0A060A",
"o.	c #01AC10",
"p.	c #00FD15",
"q.	c #00FB17",
"r.	c #00FE1E",
"s.	c #00F619",
"t.	c #00C211",
"u.	c #028F0A",
"v.	c #014C02",
"w.	c #01C217",
"x.	c #00FD1D",
"y.	c #00E418",
"z.	c #017706",
"A.	c #013A02",
"B.	c #00D51A",
"C.	c #00F317",
"D.	c #01C213",
"E.	c #00910A",
"F.	c #035706",
"G.	c #021002",
"H.	c #000001",
"I.	c #010000",
"J.	c #00E81E",
"K.	c #00FC1B",
"L.	c #00FC1A",
"M.	c #00FD1C",
"N.	c #00C511",
"O.	c #007A0A",
"P.	c #012302",
"Q.	c #07080E",
"R.	c #00C512",
"S.	c #019C0F",
"T.	c #007C09",
"U.	c #016E0C",
"V.	c #026808",
"W.	c #016608",
"X.	c #016509",
"Y.	c #006308",
"Z.	c #006007",
"`.	c #005D04",
" +	c #015205",
".+	c #024106",
"++	c #013104",
"@+	c #023203",
"#+	c #013804",
"$+	c #015006",
"%+	c #015F07",
"&+	c #006909",
"*+	c #017C0B",
"=+	c #01810B",
"-+	c #01820A",
";+	c #007906",
">+	c #026C06",
",+	c #007606",
"'+	c #00710A",
")+	c #01670B",
"!+	c #016408",
"~+	c #016609",
"{+	c #016F0A",
"]+	c #007F06",
"^+	c #018B09",
"/+	c #01970C",
"(+	c #01A813",
"_+	c #01AF12",
":+	c #02AB0D",
"<+	c #00A708",
"[+	c #019E0B",
"}+	c #019009",
"|+	c #038C0C",
"1+	c #028D0A",
"2+	c #00EB16",
"3+	c #00FB1B",
"4+	c #00DF17",
"5+	c #029A13",
"6+	c #034A05",
"7+	c #020203",
"8+	c #020000",
"9+	c #022503",
"0+	c #00E218",
"a+	c #00F518",
"b+	c #00B613",
"c+	c #026D08",
"d+	c #010A01",
"e+	c #016506",
"f+	c #00FF1C",
"g+	c #00D617",
"h+	c #008707",
"i+	c #022B02",
"j+	c #030602",
"k+	c #03A714",
"l+	c #00FB18",
"m+	c #00C315",
"n+	c #026A09",
"o+	c #030503",
"p+	c #010302",
"q+	c #023803",
"r+	c #00F51C",
"s+	c #01CD12",
"t+	c #036808",
"u+	c #000101",
"v+	c #020104",
"w+	c #020003",
"x+	c #02950D",
"y+	c #00FB19",
"z+	c #00B40B",
"A+	c #015305",
"B+	c #030403",
"C+	c #010202",
"D+	c #021B03",
"E+	c #00E515",
"F+	c #01CF18",
"G+	c #016006",
"H+	c #0E0E04",
"I+	c #0D050C",
"J+	c #028B0F",
"K+	c #00EB18",
"L+	c #02790B",
"M+	c #010B01",
"N+	c #024905",
"O+	c #00A110",
"P+	c #043106",
"Q+	c #021A03",
"R+	c #020303",
"                                                                        . . .                                                                         ",
"                                                                          . . . .                                                                     ",
"                                                                          . + @ # $                                                                   ",
"                                                                          .   % & * = -                                                               ",
"                                                                          . .   ; > , ' ) .                                                           ",
"                                                                            . . ! ~ { ] ^ / (                                                         ",
"                                                                              . _ : < [ } | 1 2 +                                                     ",
"                                                                                . 3 4 5 6 7 8 9 0 a b                                                 ",
"                                                                                  c d e f g g h ] i j k l                                             ",
"                                                              m _ n o _ p _ _ _ _ _ + q r h s t u v v w x y p                                         ",
"  . . . . . . . . . p z A B C D E F G H I J K L M N O P Q R S T U V W X Y Z `  ...+.@.#.} ] 5 $.%.] u } &.*.=.-.;.                                    ",
". >.,.'.).!.~.{.].^./.(._.:.<.%.7 [.v $.u ] ] $.6 ] u $.] f $.}.[.v |.1.v f t 6 [.u } v f } t [.] } %.] v } }.2.3.4.5.                                ",
". 6.7.[.} 1.f &.} 6 7.$.} f f } }.h [.} u f ] $.6 h u } f f } }.h [.} u f ] $.6 h u } ] f } 8.h [.$.%.f ] $.6 7.] 9.'.0.p                             ",
". a.8.6 ] u } u h 7 g h ] } } f b.g 7 ] u } u 7.6 g h ] } } ] s g 7 f u } u h 6 g h ] } } ] c.g 7 7.u } u 7.6 g 5 ] 8 d.e.f.g..                       ",
". h.}.6 5 }.}.6 b.7 7 s 5 }.}.s b.7 6 5 5 }.6 b.6 7 s 5 }.}.s b.7 6 5 5 }.6 b.6 7 s 5 }.}.s b.7 6 5 5 }.6 b.6 7 6 5 }.7 c.h i.j.k.l.m.n.              ",
". o.f 5 $.u [.6 g b.h t $.[.h g 7 c.h $.u [.6 g b.h t $.[.h g 7 c.h $.t [.6 g p.s t $.[.h g g c.h $.t [.6 g p.s t $.[.h g g q.7.r.s.t.u.v.p . . . . . ",
". w.x.u %.%.] 6 7 b.] u %.] [.7 6 h u %.%.] 6 7 p.] u %.] [.7 6 h u %.%.] 6 7 p.] u %.] [.7 7 h u %.%.] 6 7 p.[.u %.] [.7 7 s u ] y.o.z.A.p . .   .   ",
". B.u v ] u } ] [.}.} f ] } } 7.5 $.v ] u } ] [.}.} f ] } } 7.5 $.%.] u } ] [.}.} f ] } } 7.5 [ %.f u } u [.}.$.] ] } %.q.C.D.E.F.G.H.I.  c . . . .   ",
"p J.[.&.t %.&.&.v ] ] v K.x.&.f K.%.L.u u %.x.v [.%.] v 1.%.] ] %.[.v 1.1.M.&.u &.M.M.1.%.u t t %.u u %.] u }.] x.] f N.O.P.m   Q.    . . . . . . .   ",
"G.R.S.T.U.V.W.X.Y.Z.`. +.+++@+#+$+%+&+*+=+-+;+>+,+'+)+!+W.~+{+]+^+/+(+_+:+<+[+}+|+R 1+2+3+} [ [.] } %.] ] $.5 h 4+5+6+7+  .     . . . .               ",
"H.c H.H.8+I..     I.n   H.. H.H.H.I.. H.H.H.  H.H.    . .     H.H.3 . 3 3 I.I.3     9+0+%.u 6 6 6 u u u K.a+b+c+d+c   3   .   . .                     ",
"    . .         .           .     .     .     .       .     .       .     .   .     e+t f+7.s 8.%.7.M.g+h+i+j+  p   . . . .                           ",
"      . . . . . . . . . . . . . . .     . . . . . . . . . . . . . . . . . . . . . p k+6 6 6 6 7.l+m+n+o+p+.   .   . .                                 ",
"                                                                                  q+r+[.L.v M.s+t+z u+v+w+    . . .                                   ",
"                                                                                  x+L.%.y+z+A+B+C+  .     . .                                         ",
"                                                                                D+E+{ F+G+H+        . . .                                             ",
"                                                                              I+J+K+L+M+  -   .   . .                                                 ",
"                                                                              N+O+P+    .     .                                                       ",
"                                                                            . Q+R+  .   . .                                                           ",
"                                                                        . . . .     . . .                                                             ",
"                                                                        . .   .   . .                                                                 ",
"                                                                            . . .                                                                     "};
