/* XPM */
static xpm_row_t const  arrow_left_active_xpm[] = {
"75 32 271 2",
"  	c None",
". 	c #000000",
"+ 	c #020203",
"@ 	c #026308",
"# 	c #016D0E",
"$ 	c #010102",
"% 	c #003903",
"& 	c #00AE10",
"* 	c #00BF11",
"= 	c #020501",
"- 	c #010103",
"; 	c #013203",
"> 	c #01A50F",
", 	c #00F51C",
"' 	c #00F218",
") 	c #014705",
"! 	c #050402",
"~ 	c #02790C",
"{ 	c #00EA19",
"] 	c #00FD17",
"^ 	c #00FC18",
"/ 	c #01960E",
"( 	c #010001",
"_ 	c #000302",
": 	c #010101",
"< 	c #014403",
"[ 	c #01C413",
"} 	c #00FB17",
"| 	c #00FF1A",
"1 	c #00FE1A",
"2 	c #00ED17",
"3 	c #012B04",
"4 	c #000001",
"5 	c #041604",
"6 	c #01910E",
"7 	c #00F618",
"8 	c #00FE18",
"9 	c #00FE17",
"0 	c #00FC15",
"a 	c #00FD1B",
"b 	c #01840B",
"c 	c #100609",
"d 	c #021101",
"e 	c #037E0E",
"f 	c #00DF1A",
"g 	c #00FC1A",
"h 	c #00FD19",
"i 	c #00E81C",
"j 	c #011502",
"k 	c #011F02",
"l 	c #01880B",
"m 	c #00E218",
"n 	c #00FD1C",
"o 	c #00FE19",
"p 	c #00FC19",
"q 	c #03920F",
"r 	c #020102",
"s 	c #000102",
"t 	c #010002",
"u 	c #020003",
"v 	c #010003",
"w 	c #032704",
"x 	c #03870D",
"y 	c #00D917",
"z 	c #00FD18",
"A 	c #00FF1C",
"B 	c #00EB1A",
"C 	c #00AC10",
"D 	c #01A613",
"E 	c #00A612",
"F 	c #00A611",
"G 	c #00A80F",
"H 	c #00A613",
"I 	c #00A311",
"J 	c #00980C",
"K 	c #00910A",
"L 	c #018F09",
"M 	c #028B09",
"N 	c #01890A",
"O 	c #01880A",
"P 	c #038B09",
"Q 	c #00860A",
"R 	c #00800C",
"S 	c #01770F",
"T 	c #006E0A",
"U 	c #016807",
"V 	c #016508",
"W 	c #025D07",
"X 	c #025F08",
"Y 	c #01650A",
"Z 	c #016107",
"` 	c #025306",
" .	c #023F03",
"..	c #022F03",
"+.	c #022503",
"@.	c #021203",
"#.	c #020802",
"$.	c #030401",
"%.	c #0D0D0F",
"&.	c #022003",
"*.	c #018E0F",
"=.	c #00E919",
"-.	c #00FD1A",
";.	c #00FF19",
">.	c #00FA19",
",.	c #00F616",
"'.	c #00F416",
").	c #00ED18",
"!.	c #00EB17",
"~.	c #00EA17",
"{.	c #00E317",
"].	c #00DB14",
"^.	c #00D413",
"/.	c #00C716",
"(.	c #00B30D",
"_.	c #02A50D",
":.	c #01770C",
"<.	c #015706",
"[.	c #040204",
"}.	c #010201",
"|.	c #014A06",
"1.	c #00FB18",
"2.	c #00FC17",
"3.	c #00FC16",
"4.	c #00FF18",
"5.	c #00FB16",
"6.	c #00FF17",
"7.	c #00FD15",
"8.	c #00FF1D",
"9.	c #00FC1B",
"0.	c #01A911",
"a.	c #050406",
"b.	c #032C03",
"c.	c #018009",
"d.	c #00CC15",
"e.	c #00FC1F",
"f.	c #00FE16",
"g.	c #00FD16",
"h.	c #00FF16",
"i.	c #01AA0E",
"j.	c #0B0313",
"k.	c #0A120E",
"l.	c #020404",
"m.	c #021F03",
"n.	c #016F0C",
"o.	c #00AA12",
"p.	c #00F31A",
"q.	c #00AA0F",
"r.	c #000100",
"s.	c #005002",
"t.	c #01900D",
"u.	c #01C419",
"v.	c #00F41B",
"w.	c #00FB1A",
"x.	c #00FB15",
"y.	c #01AD11",
"z.	c #010202",
"A.	c #033D03",
"B.	c #017207",
"C.	c #01AA0B",
"D.	c #00E61B",
"E.	c #02C317",
"F.	c #020303",
"G.	c #020A00",
"H.	c #010000",
"I.	c #000002",
"J.	c #000B00",
"K.	c #015405",
"L.	c #02920D",
"M.	c #00C414",
"N.	c #00FE1C",
"O.	c #01D416",
"P.	c #0C0403",
"Q.	c #040102",
"R.	c #012502",
"S.	c #007A09",
"T.	c #00C411",
"U.	c #00FE1B",
"V.	c #00FD1D",
"W.	c #00E819",
"X.	c #020202",
"Y.	c #020302",
"Z.	c #024304",
"`.	c #02980E",
" +	c #01E11B",
".+	c #00EA1B",
"++	c #028B0B",
"@+	c #038A0C",
"#+	c #038E0E",
"$+	c #02920F",
"%+	c #019F0E",
"&+	c #00A811",
"*+	c #00AD0F",
"=+	c #01AF0E",
"-+	c #00A80E",
";+	c #00970E",
">+	c #018C0E",
",+	c #008007",
"'+	c #016E09",
")+	c #016609",
"!+	c #00660A",
"~+	c #01660A",
"{+	c #026E05",
"]+	c #00760A",
"^+	c #026C09",
"/+	c #017C09",
"(+	c #01810A",
"_+	c #01820B",
":+	c #007A06",
"<+	c #016A06",
"[+	c #015F05",
"}+	c #014D04",
"|+	c #013C04",
"1+	c #013004",
"2+	c #013504",
"3+	c #013E05",
"4+	c #015909",
"5+	c #006004",
"6+	c #006104",
"7+	c #016308",
"8+	c #01670A",
"9+	c #016C08",
"0+	c #017C08",
"a+	c #029B10",
"b+	c #01C415",
"c+	c #011401",
"d+	c #010600",
"e+	c #036D0A",
"f+	c #01B614",
"g+	c #00F519",
"h+	c #00E217",
"i+	c #022403",
"j+	c #020000",
"k+	c #010100",
"l+	c #040203",
"m+	c #012B02",
"n+	c #018206",
"o+	c #00D514",
"p+	c #016407",
"q+	c #070E0A",
"r+	c #020402",
"s+	c #026B07",
"t+	c #00C415",
"u+	c #01A614",
"v+	c #020004",
"w+	c #030103",
"x+	c #020103",
"y+	c #030303",
"z+	c #016A08",
"A+	c #01CF15",
"B+	c #00FE1E",
"C+	c #033C08",
"D+	c #020403",
"E+	c #015407",
"F+	c #00B713",
"G+	c #03940D",
"H+	c #020201",
"I+	c #00CF1A",
"J+	c #00FB1B",
"K+	c #00E61C",
"L+	c #021D02",
"M+	c #000407",
"N+	c #040C04",
"O+	c #03780B",
"P+	c #018D0F",
"Q+	c #08030D",
"R+	c #023003",
"S+	c #01A20F",
"T+	c #014C06",
"U+	c #0A0607",
"V+	c #011A02",
"                                                                        . . .                                                                         ",
"                                                                      . . .                                                                           ",
"                                                                  + @ # . .                                                                           ",
"                                                              $ % & * =   .                                                                           ",
"                                                          - ; > , ' )   . .                                                                           ",
"                                                        ! ~ { ] ^ / ( _ .                                                                             ",
"                                                    : < [ } | 1 2 3 4 .                                                                               ",
"                                                . 5 6 7 8 9 0 a b $ 4                                                                                 ",
"                                            c d e f g h | | h i j .                                                                                   ",
"                                        : k l m n h o 1 h p | q r s s $ t $ $ u t $ $ v                                                               ",
"                                    . w x y z A ] h 1 | h p | B C D E F G H I J K L M N O P Q R S T U V W X Y Z `  ...+.@.#.$.: . . . . . . . . . .   ",
"                                %.&.*.=.-.| h z 9 | p h | | h h 8 h ^ h o h h o | g h 1 | p ] 8 8 ^ h ;.o z ] ;.h h 1 1 >.,.'.).!.~.{.].^./.(._.:.<.[.",
"                            }.|._.' h 1.z | z 2.9 | p p | ;.^ 3.4.1 p h | z 2.9 ;.h p 1 ;.^ 3.4.1 p h | 8 2.9 ;.h p 1 ;.^ 5.6.1 p -.4.7.5.h 8.9.g 0.a.",
"                      : b.c.d.e.f.} h | 1 h g.h.0 p 1 | h ^ h.f.} h | 1 h g.h.0 ^ 1 | h ^ h.h.} h | 1 h g.h.0 ^ 1 | h ^ h.h.5.h | 1 h g.h.7.^ o | i.j.",
"              k.l.m.n.o.p.] p o f.0 3.9 9 ] g.f.7.3.9 9 ] 3.f.f.0 3.9 9 ] g.f.7.3.] 9 ] 3.f.f.0 3.9 9 ] g.f.7.3.g.9 ] 2.f.f.0 3.9 9 ] g.f.7.3.g.9 q.+ ",
". . . . . r.s.t.u.v.;.w.g ;.4.} 0 h.g.z 8 ;.] 5.f.h.2.z ;.4.} 0 h.f.z 8 ;.] 5.g.h.2.z ;.4.} 0 h.f.z 8 ;.] 3.g.h.g.z ;.4.2.x.h.f.^ z ;.] 3.g.h.g.z y.z.",
"  .   . . $ A.B.C.D.f.] h 1 1 h 0 f.g.h o 1 o z g.f.] h 1 1 h 3.f.g.h o 1 o z g.f.] h 1 1 h 3.f.f.h o 1 o z g.f.] h 1 1 h 3.f.f.z h 1 o z g.f.] h E.F.",
"  . . . . G.  H.I.J.K.L.M.' p N.9 z h | 1 h -.;.] z o | h p | 9 z h | 1 h h ;.] z o | h p | 4.z h | 1 h h ;.] z o | h p | 4.2.h | 1 h h ;.] z o | O.r ",
"  . . . . . . .     P.  Q.R.S.T.9.n n 1 1 o h o ] o h 1 o h 1 z -.a U.U.1 g h U.-.o a 1 a n U.a n N.N.h h o 8 N.a o 9 g V.h ^ p a a -.n n a n n o W.X.",
"              . . . .     .   Y.Z.`. +h o | h z 9 | p h | | h .+++@+#+$+%+&+*+=+-+;+>+,+'+)+)+!+~+{+]+^+/+(+_+:+<+[+}+|+1+2+3+4+5+6+7+)+)+8+9+0+a+b+c+",
"                    . .   .   t   s d+e+f+g+n -.g.o o h o 8 g.h+i+    r.H.H.r.r.H.j+4 4     . .     . H.  4 4 4 . 4 I.4 . 4 4   ( .     . . . . 4 t k+",
"                          . . . .   .   l+m+n+o+1.p 8 ;.z 2.h.h p+    .   .     .       .     .       .     .     .     .           .         . .     ",
"                                . .   .   . q+r+s+t+w.] 9 ] 0 ^ u+Y.v . . . . . . . . . . . . . . . . . . . .     . . . . . . . . . . . . . . .       ",
"                                  . . .     v+w+x+y+z+A+B+B+^ 3.7 C+                                                                                  ",
"                                        . .     .   : D+E+F+p ] g G+                                                                                  ",
"                                            . . .         H+X I+J+K+L+                                                                                ",
"                                                . .   .   M+  N+O+!.P+Q+                                                                              ",
"                                                      .     .     R+S+T+                                                                              ",
"                                                          . .   .   U+V+.                                                                             ",
"                                                            . . .     . . . .                                                                         ",
"                                                                . .   .   . .                                                                         ",
"                                                                    . . .                                                                             "};
