/* XPM */
static xpm_row_t const exit_active_xpm[] = {
"190 33 167 2",
"  	c #E79F7F",
". 	c #E7A080",
"+ 	c #E79F7E",
"@ 	c #E79E7E",
"# 	c #E79D7D",
"$ 	c #E79D7C",
"% 	c #E79E7D",
"& 	c #E79D7B",
"* 	c #E8A384",
"= 	c #EDBAA6",
"- 	c #F2D0C4",
"; 	c #F2CFC4",
"> 	c #F1CEC1",
", 	c #ECB59E",
"' 	c #EFC1AF",
") 	c #F1CEC2",
"! 	c #ECB9A4",
"~ 	c #EEBDA9",
"{ 	c #EEBDAA",
"] 	c #E8A487",
"^ 	c #EEBFAD",
"/ 	c #F2D0C5",
"( 	c #F0C7B7",
"_ 	c #E9AA8F",
": 	c #EEBEAC",
"< 	c #E9A78B",
"[ 	c #F5D9CD",
"} 	c #FFFFFF",
"| 	c #F2CCBC",
"1 	c #F2CDBE",
"2 	c #FEFCFA",
"3 	c #F8E6DF",
"4 	c #EBAF96",
"5 	c #EAAB8F",
"6 	c #FAEBE5",
"7 	c #FDF6F4",
"8 	c #F0C4B3",
"9 	c #EAAC91",
"0 	c #F7E2DA",
"a 	c #FCF1EC",
"b 	c #EDB7A2",
"c 	c #F5DACE",
"d 	c #F5D8CC",
"e 	c #FDF9F6",
"f 	c #F6DDD4",
"g 	c #F1CBBE",
"h 	c #F1CCBF",
"i 	c #F0CABD",
"j 	c #EBB098",
"k 	c #E9A98E",
"l 	c #F7E0D7",
"m 	c #FEFAF9",
"n 	c #F2CFC1",
"o 	c #F4D5C8",
"p 	c #FEFBFA",
"q 	c #FEFCFB",
"r 	c #F4D5C9",
"s 	c #E8A182",
"t 	c #EAAC92",
"u 	c #F7E1D8",
"v 	c #FBF0EA",
"w 	c #EDB8A2",
"x 	c #EDBCA8",
"y 	c #F1CBBD",
"z 	c #F3D5CB",
"A 	c #FEFDFC",
"B 	c #F8E7E1",
"C 	c #ECB8A3",
"D 	c #E8A284",
"E 	c #FCF4F0",
"F 	c #E69C79",
"G 	c #E7A081",
"H 	c #EEBCA8",
"I 	c #FCF3EF",
"J 	c #FBEFEA",
"K 	c #EDBBA5",
"L 	c #FCF3F0",
"M 	c #FFFEFD",
"N 	c #F9E9E3",
"O 	c #EBB29B",
"P 	c #F3D5C9",
"Q 	c #E69B78",
"R 	c #FCF4F1",
"S 	c #EFC2B0",
"T 	c #FFFFFE",
"U 	c #F5DBD1",
"V 	c #EBAF94",
"W 	c #F7E4DC",
"X 	c #FEFDFD",
"Y 	c #EBB39D",
"Z 	c #F3D5CA",
"` 	c #FCF5F1",
" .	c #F0C5B4",
"..	c #E8A386",
"+.	c #E8A385",
"@.	c #E79F80",
"#.	c #EAAD93",
"$.	c #F7E1D9",
"%.	c #FDF7F5",
"&.	c #F9E7DF",
"*.	c #FDF8F6",
"=.	c #F3D2C5",
"-.	c #E8A486",
";.	c #FFFEFE",
">.	c #FDFAF9",
",.	c #FDF7F6",
"'.	c #F9EBE5",
").	c #EFC0AD",
"!.	c #FCF2EE",
"~.	c #FFFDFD",
"{.	c #F9E9E2",
"].	c #FDF9F7",
"^.	c #FCF6F4",
"/.	c #F9EAE3",
"(.	c #E9A88C",
"_.	c #F6E0D8",
":.	c #F5D7CB",
"<.	c #E8A588",
"[.	c #E7A182",
"}.	c #E8A283",
"|.	c #F1CABB",
"1.	c #FEF9F7",
"2.	c #FCF6F3",
"3.	c #ECB59F",
"4.	c #ECB6A0",
"5.	c #FAECE6",
"6.	c #F6DED4",
"7.	c #F8E5DC",
"8.	c #E9A98D",
"9.	c #F5D9CF",
"0.	c #E8A485",
"a.	c #F8E3DB",
"b.	c #F1CBBC",
"c.	c #EFC1AE",
"d.	c #E69C7B",
"e.	c #E79C7B",
"f.	c #FEFAF8",
"g.	c #E9AA8E",
"h.	c #FBF2EF",
"i.	c #EDB9A4",
"j.	c #F7E4DD",
"k.	c #F4D7CD",
"l.	c #F4D7CE",
"m.	c #ECB69F",
"n.	c #FAEEE9",
"o.	c #FAECE7",
"p.	c #ECB7A1",
"q.	c #F3D3C5",
"r.	c #F8E5DD",
"s.	c #E9A78A",
"t.	c #F3CFBF",
"u.	c #F7DFD6",
"v.	c #F2CDBF",
"w.	c #F7E2D9",
"x.	c #EDB8A3",
"y.	c #EBB39E",
"z.	c #F3D6CB",
"A.	c #EBB39C",
"B.	c #EFC4B5",
"C.	c #EFC4B4",
"D.	c #EFC2B2",
"E.	c #EBB198",
"F.	c #ECB6A1",
"G.	c #EFC3B3",
"H.	c #ECB7A2",
"I.	c #EFC5B5",
"J.	c #E8A689",
"                                                                                                                                                                                                                                        . . . . .                                                                                                                                           ",
"                                                                                                                                                                                                                    + @ # $ $ $ $ $ $ $ $ $ $ $ $ $ $ $ $ $ $ $ $ $ $ $ $ # @                                                                                                               ",
"                                                                                                                                                                                                                                                                                                                                                                                            ",
"                                                                                                                                                                                                                                                                                                                                                                                            ",
"                                                                                                                                                                                                                                                                                                                                                                                            ",
"                                                                                                                                                                                                                                                                                                                                                                                            ",
"                                                                                                                                                                                                                                                                                                                                                                                            ",
"                                                                                                                                                                                                                                                                                                                                                                                            ",
"                                                                                                                                                      % & $ $ $ $ $ $ $ @ % $ $ %           % $ $ %   % & $ + % $ $ $ $ $ $ $ $ $ & %                                                                                                                                                       ",
"                                                                                                                                                    * = - ; ; ; ; ; ; > , ' - ) ! $       . ~ ) ) { ] ^ / ( _ : ) ; ; ; ; ; ; ; ; - = *                                                                                                                                                     ",
"                                                                                                                                                    < [ } } } } } } } } | 1 2 } 3 4 @     5 6 } 7 8 9 0 } a b 0 } } } } } } } } } } c <                                                                                                                                                     ",
"                                                                                                                                                    < d } e f g h h h i j k l } m n     + o p q r s t u } v w x y h h z } A B g h h C D                                                                                                                                                     ",
"                                                                                                                                                    < d } E ' F $ $ $ $ @ G H I } J = $ K L M N t + t u } v w $ $ $ $ O } 2 P Q $ $ @                                                                                                                                                       ",
"                                                                                                                                                    < d } R S #             D y p T U V W X 7 H . + t u } v w @       Y } 2 Z &                                                                                                                                                             ",
"                                                                                                                                                    < d } `  .D ....+.@.    @ #.$.} %.&.*.X =.-.  + t u } v w @       Y } 2 Z &                                                                                                                                                             ",
"                                                                                                                                                    < d } ;.>.*.*.,.'.k         ).!.} ~.;.{.t     + t u } v w @       Y } 2 Z &                                                                                                                                                             ",
"                                                                                                                                                    < d } M ].^.^.^./.k       + (._.} } } :.<.    + t u } v w @       Y } 2 Z &                                                                                                                                                             ",
"                                                                                                                                                    < d } R 8 [.D D }.        [.|.1.~.q ;.2.3..   + t u } v w @       Y } 2 Z &                                                                                                                                                             ",
"                                                                                                                                                    < d } R S #               4.5.} 6 6.%.;.7.8.  + t u } v w @       Y } 2 Z &                                                                                                                                                             ",
"                                                                                                                                                    < d } R S #           + (.9.} *.( 0.a.~.m b.. + t u } v w @       Y } 2 Z &                                                                                                                                                             ",
"                                                                                                                                                    < d } E c.Q d.d.d.e.@ D ( f.M f g.% ~ h.;.I i.@ t u } v w @       Y } 2 Z &                                                                                                                                                             ",
"                                                                                                                                                    < d } f.j.k.l.l.l.z m.O n.} o.p.#   @ q.q M r.s.t u } v w @       Y } 2 Z &                                                                                                                                                             ",
"                                                                                                                                                    < [ } } } } } } } ;.t.u.} 1.v.+       t 5.} f.n 9 w.} a x.@       y.} A z.&                                                                                                                                                             ",
"                                                                                                                                                    }.A.B.C.C.C.C.C.C.D.E.: B.^ _ @       @.F.G.G.p.+.H.I.{ <         J.C.D.O @                                                                                                                                                             ",
"                                                                                                                                                      @ % % % % % % % % @ @ % %             @ % % @   @ % @             % % @                                                                                                                                                               ",
"                                                                                                                                                                                                                                                                                                                                                                                            ",
"                                                                                                                                                                                                                                                                                                                                                                                            ",
"                                                                                                                                                                                                                                                                                                                                                                                            ",
"                                                                                                                                                                                                                                                                                                                                                                                            ",
"                                                                                                                                                                                                                                                                                                                                                                                            ",
"                                                                                                                                                                                                                                                                                                                                                                                            ",
"                                                                                                                                                                                                                                                                                                                                                                                            ",
"                                                                                                                                                                                                                                                                                                                                                                                            "};
