/* XPM */
static xpm_row_t const instructions_active_xpm[] = {
"190 33 298 2",
"  	c #A9C09A",
". 	c #A8BF98",
"+ 	c #A7BF98",
"@ 	c #A8BF99",
"# 	c #A8C099",
"$ 	c #A9C099",
"% 	c #B9CCAD",
"& 	c #E1E8DC",
"* 	c #EDF1EB",
"= 	c #DBE4D5",
"- 	c #AFC4A2",
"; 	c #ACC29E",
"> 	c #CBD9C3",
", 	c #ECF1EA",
"' 	c #DFE7DA",
") 	c #B6CAAA",
"! 	c #AEC3A0",
"~ 	c #E9EEE6",
"{ 	c #EAEFE7",
"] 	c #CFDBC7",
"^ 	c #C2D2B9",
"/ 	c #E0E7DB",
"( 	c #EBF0E8",
"_ 	c #EDF1EA",
": 	c #E7EDE4",
"< 	c #DCE5D7",
"[ 	c #C2D2B8",
"} 	c #BCCDB2",
"| 	c #E2E9DE",
"1 	c #BACCAE",
"2 	c #B5C9A9",
"3 	c #DDE5D8",
"4 	c #ECF0E9",
"5 	c #E1E8DD",
"6 	c #D1DCC9",
"7 	c #AFC4A1",
"8 	c #C8D6BF",
"9 	c #E8EDE4",
"0 	c #CAD8C1",
"a 	c #ACC29D",
"b 	c #C6D4BD",
"c 	c #EEF2EC",
"d 	c #BFCFB5",
"e 	c #C3D2B9",
"f 	c #DFE7D9",
"g 	c #E5EBE2",
"h 	c #D6E0D0",
"i 	c #B6C9AA",
"j 	c #C4D3BA",
"k 	c #D1DDC9",
"l 	c #EEF1EB",
"m 	c #E4EBE0",
"n 	c #C0D0B6",
"o 	c #B4C8A7",
"p 	c #D4DFCD",
"q 	c #E4EAE0",
"r 	c #E8EEE5",
"s 	c #DBE4D6",
"t 	c #BFD0B5",
"u 	c #ABC19C",
"v 	c #ADC39F",
"w 	c #CDDAC5",
"x 	c #DDE6D8",
"y 	c #C4D3BB",
"z 	c #EBF0E9",
"A 	c #C1D1B7",
"B 	c #BECFB3",
"C 	c #F1F4EE",
"D 	c #FFFFFF",
"E 	c #E9EFE5",
"F 	c #B1C6A4",
"G 	c #D6E0CF",
"H 	c #FBFCFA",
"I 	c #FAFBFA",
"J 	c #FCFDFB",
"K 	c #DAE3D4",
"L 	c #CCD9C4",
"M 	c #F4F7F3",
"N 	c #FCFDFC",
"O 	c #FEFEFD",
"P 	c #FEFEFE",
"Q 	c #FDFEFD",
"R 	c #FBFCFB",
"S 	c #F2F5EF",
"T 	c #C6D5BC",
"U 	c #C2D1B8",
"V 	c #F7F9F6",
"W 	c #F1F5EF",
"X 	c #BFD0B4",
"Y 	c #ECF1E9",
"Z 	c #F9FBF8",
"` 	c #E5ECE1",
" .	c #D2DDCA",
"..	c #CEDAC7",
"+.	c #C6D4BE",
"@.	c #B1C5A3",
"#.	c #DAE4D4",
"$.	c #F5F8F3",
"%.	c #FDFDFD",
"&.	c #F0F4EE",
"*.	c #F1F4EF",
"=.	c #FEFFFE",
"-.	c #CCD9C3",
";.	c #DDE6D7",
">.	c #C7D6BE",
",.	c #D0DCC8",
"'.	c #EFF3ED",
").	c #FAFBF9",
"!.	c #F5F7F3",
"~.	c #B4C8A8",
"{.	c #AEC4A0",
"].	c #D8E2D1",
"^.	c #D9E2D3",
"/.	c #ADC39E",
"(.	c #B1C5A4",
"_.	c #FCFCFB",
":.	c #CFDAC7",
"<.	c #C5D4BB",
"[.	c #D6E0CE",
"}.	c #F8FAF6",
"|.	c #D0DBC8",
"1.	c #DAE3D3",
"2.	c #F0F4ED",
"3.	c #C2D1B9",
"4.	c #B6C9AB",
"5.	c #EFF3EC",
"6.	c #EBEFE8",
"7.	c #AEC4A1",
"8.	c #B5C8A8",
"9.	c #F2F5F1",
"0.	c #BBCDB1",
"a.	c #B4C7A7",
"b.	c #ABC29D",
"c.	c #ECF0E8",
"d.	c #B7C9AB",
"e.	c #E8EEE4",
"f.	c #DAE3D5",
"g.	c #F9FAF8",
"h.	c #D4DFCC",
"i.	c #DCE5D6",
"j.	c #EDF2EB",
"k.	c #D0DCC7",
"l.	c #B9CBAD",
"m.	c #C0D0B5",
"n.	c #F6F8F4",
"o.	c #F2F5F0",
"p.	c #B5C8A9",
"q.	c #DBE3D6",
"r.	c #CAD7C2",
"s.	c #AEC39F",
"t.	c #AAC09B",
"u.	c #F7F9F5",
"v.	c #F3F6F1",
"w.	c #D8E3D2",
"x.	c #BCCDB1",
"y.	c #B8CAAD",
"z.	c #EDF2E9",
"A.	c #FDFEFC",
"B.	c #E0E8DB",
"C.	c #B2C6A5",
"D.	c #C1D0B7",
"E.	c #B7CAAB",
"F.	c #D7E1D0",
"G.	c #C7D5BE",
"H.	c #C9D7C1",
"I.	c #CBD8C3",
"J.	c #A9C09B",
"K.	c #ECF0EA",
"L.	c #B0C5A3",
"M.	c #EDF1E9",
"N.	c #B7C9AA",
"O.	c #BACCAF",
"P.	c #E9EFE6",
"Q.	c #B3C7A6",
"R.	c #AAC19B",
"S.	c #C6D5BD",
"T.	c #E6EDE3",
"U.	c #BDCEB2",
"V.	c #AAC19C",
"W.	c #D5DFCF",
"X.	c #F8FAF7",
"Y.	c #BBCDAF",
"Z.	c #F2F6F0",
"`.	c #BBCDB0",
" +	c #E3EADF",
".+	c #FDFDFC",
"++	c #A7BE97",
"@+	c #CCD9C5",
"#+	c #C8D6C0",
"$+	c #A7BF97",
"%+	c #CDDAC6",
"&+	c #EAF0E7",
"*+	c #F6F8F5",
"=+	c #A6BE96",
"-+	c #D2DECA",
";+	c #F4F7F2",
">+	c #EAEFE6",
",+	c #A6BE97",
"'+	c #D1DCCA",
")+	c #E7EDE3",
"!+	c #FFFFFE",
"~+	c #CEDAC6",
"{+	c #BECEB3",
"]+	c #B6C9A9",
"^+	c #DFE6DA",
"/+	c #F8F9F6",
"(+	c #F3F6F2",
"_+	c #DDE5D7",
":+	c #C9D6C0",
"<+	c #BDCEB3",
"[+	c #B2C6A4",
"}+	c #CBD9C2",
"|+	c #E4EBDF",
"1+	c #F3F6F0",
"2+	c #D1DCCB",
"3+	c #CAD7C3",
"4+	c #D8E2D2",
"5+	c #C4D3B9",
"6+	c #E6ECE2",
"7+	c #C7D5BD",
"8+	c #BCCEB0",
"9+	c #DFE7DB",
"0+	c #C9D7BF",
"a+	c #B0C5A2",
"b+	c #F0F3ED",
"c+	c #CBD9C1",
"d+	c #DEE6D8",
"e+	c #BECFB4",
"f+	c #CAD7C1",
"g+	c #D7E1D1",
"h+	c #EDF2EA",
"i+	c #EEF3EC",
"j+	c #BDCFB2",
"k+	c #BDCEB1",
"l+	c #C8D6BE",
"m+	c #D9E2D2",
"n+	c #C0D0B4",
"o+	c #F1F5EE",
"p+	c #BCCDB0",
"q+	c #DCE4D7",
"r+	c #EBF0E7",
"s+	c #D8E1D1",
"t+	c #BCCEB1",
"u+	c #F5F8F4",
"v+	c #C7D5BF",
"w+	c #F4F6F2",
"x+	c #CBD8C2",
"y+	c #D0DBC9",
"z+	c #C5D4BD",
"A+	c #C4D4BB",
"B+	c #E3E9DF",
"C+	c #DCE5D5",
"D+	c #C1D2B6",
"E+	c #B3C7A7",
"F+	c #B5C9A8",
"G+	c #E3EADE",
"H+	c #B3C7A5",
"I+	c #D5E0CF",
"J+	c #C1D1B6",
"K+	c #B1C6A3",
"L+	c #E6ECE1",
"M+	c #B8CBAC",
"N+	c #DEE6D9",
"O+	c #F8F9F7",
"P+	c #E2E9DD",
"Q+	c #C0D1B5",
"R+	c #EEF2EB",
"S+	c #C3D3B9",
"T+	c #E9EEE5",
"U+	c #CCDAC3",
"V+	c #E1E9DC",
"W+	c #E5EBE0",
"X+	c #DEE7D9",
"Y+	c #B9CCAE",
"Z+	c #CEDBC5",
"`+	c #DBE5D5",
" @	c #F9FAF7",
".@	c #E9EFE4",
"+@	c #D7E2D1",
"@@	c #D9E3D2",
"#@	c #D3DECB",
"$@	c #B2C7A5",
"%@	c #CEDBC7",
"&@	c #EEF2EA",
"*@	c #E8EDE5",
"=@	c #B0C4A2",
"-@	c #F6F9F5",
";@	c #B7CAAA",
">@	c #CFDBC6",
",@	c #D3DECC",
"'@	c #F3F5F1",
")@	c #D3DDCC",
"!@	c #C5D4BC",
"~@	c #D5E0CE",
"{@	c #CFDCC7",
"]@	c #ABC19D",
"^@	c #ADC3A0",
"/@	c #ADC29F",
"                                                                                                                                                                                                                                                                                                                                                                                            ",
"                                                                                                                                                                                                                                                                                                                                                                                            ",
"                                                                                                                                                                                                                                                                                                                                                                                            ",
"                                                                                                                                                                                                                                                                                                                                                                                            ",
"                                                                                                                                                                                                                                                                                                                                                                                            ",
"                                                                                                                                                                                                                                                                                                                                                                                            ",
"                                                                                                                                                                                                                                                                                                                                                                                            ",
"                                                                                                                                                                                                                                                                                                                                                                                            ",
"                                                  . + @     # + @               . . @       $ @ . + . @ $     . + + + + + + + + + .     @ + + + + . . @         # . + #           # . + $           $ @ . + + . @     . + + + + + + + + + . #   @ + . $           @ . + + . @ $           # + @               . . #       # @ . + . @ $                                                     ",
"                                              # % & * = - ; > , ' ) #         ! ~ { ] $   @ ^ / ( _ : < [   } : * _ _ _ _ _ _ _ * | 1 2 3 * _ _ _ 4 5 6 7     @ 8 9 , 0 a       . b ~ c d #       ; e f ~ * * g h i - 5 _ _ _ _ _ _ _ _ _ { j 7 k l m n @       o p q _ * r s t u       v w _ x 2 #         - { ~ w #   @ y & z _ : s A                                                     ",
"                                              @ B C D E F v G D H s v         - I J K # @ L M N O P Q R S T U V P P P D D D P P P W X % Y D D P P P N Z ` % # +  .Z D p ;       + ..H D +.#     @.#.$.J Q P P %.I &.0 *.O P P =.D D P P P I -.F ;.D $.>..   u ,.'.).N P P Q R !.;.~.    {.].D H ^./.        (._.H ].@ @ :.!.N O P Q R &.<.#                                                 ",
"                                              @ B &.D E F v [.D D }.|.        - I R 1.. n 2.D , 3.4.G 5.6.7.; 8.i i 8.c D 9.0.i i a.b.1 c.D 5.A d.8 e.=.J f.. +  .g.=.h.;       + ..I D +.#   7 i.R N j.k.l.m.;.n.o.p.a.i i ~.q.D g.r.p.i p.s.@.;.D $.>.. t.,.u.Q v.w.x.y.-.z.A.N B.C.  {.].D D V w         (.R H ].+ [ W D ( D.E.F.'.~ !                                                   ",
"                                              @ B &.D E F v [.D D D v.G.t.    - I R 1.+ H.).J I.J.  ; 7 7           + K.D *.L.      @ 1 c.D M.N.  u O.u.D P.Q.+  .g.=.h.;       + ..I D +.# R.S.H Q T.Q.b.  R.v U.l.V.      + W.D X.U #       @.;.D $.>.+ Y.o.=.Z.`./.t.  u C. +P .+-.a {.].D D D o.<.t.    (.R H ].++@+I H #+J.  ; - 7.                                                    ",
"                                              @ B &.D E F v [.D O N D c.U.    - I R 1.$+%+P .+h 2 a                 + K.D *.L.      @ 1 c.D M.N.    ~.5.D _ % ++ .g.=.h.;       + ..I D +.# v &+P *+T $         t.          + W.D X.U #       @.;.D $.>.=+< J Q -+a         @ <.;+D c (.{.].D Q N D >+`.    (.R H ].,+'+P N p 8.a                                                           ",
"                                              @ B &.D E F v [.D !.)+J !+' o   - I R 1.+ b u.D H E ~+{+C.            + K.D *.L.      @ 1 c.D Y ]+@ 7.b g.P ^+$++  .g.=.h.;       + ..I D +.# C./+P Y                         + W.D X.U #       @.;.D $.G.u >+D X.Q.            + : D H E.{.].D (+e.N =._+Q.  (.R H ].++:+V D ).e.w <+[+                                                      ",
"                                              @ B &.D E F v [.D W }+|+P J h {.7 I R 1.@ 8.' R D D D n.f d           + K.D *.L.      @ 1 c.D 1+2+3+4+n.D *.S.@ +  .g.=.h.;       + ..I D +.  5+H Q 6+                        + W.D X.U #       @.;.D $.7+8+W D o.F             + 9+.+Q 0+a+].D b+c+` P _.p v (.R H ].. ]+& J D D D $.d+e+#                                                   ",
"                                              @ B &.D E F v [.D o.B U._ D }.f+F ).R 1.# @ E.g+h+X.D D D i+`.        + K.D *.L.      @ 1 c.D D D D D .+9 8 +   +  .g.=.h.;       + ..I D +.  >.H Q 6+                        + W.D X.U #       @.;.D $.7+j+o.D o.F             + 9+.+Q L a+].D &.k+e+c D V l+Q.R H ].@ @ l.m+h+X.D D D _ 1                                                   ",
"                                              @ B &.D E F v [.D o.n+=+y v.D o+j H R 1.#   # R.p+w q+M =.N < #       + K.D *.L.      @ 1 c.D n.^+r+P R s+,+    +  .g.=.h.;       + ..I D +.# i ).P { .                       + W.D X.U #       @.;.D $.G.a+, D n.F             ,+ +O J `.7 ].D &.B =+b ;+D 2.j J H ].@   @ R.t+w 3 u+D _.K @                                                 ",
"                                              @ B &.D E F v [.D o.X @   ] X.D h+O R 1.#   @   @ + b.v+R Q g #       + K.D *.L.      @ 1 c.D Y p.p+2.P w+y @   . x+u.D f !       $+y+N D z+# v o.!+M m.#           #         + W.D X.U #       @.;.D $.>.=+& Q N A+R.        @ p+2.D v.F {.].D &.B @ R.k Z D _ P H ].@   @   @ + a H.N Q B+@                                                 ",
"                                              @ B &.D E F v [.D o.X @   {.C+R D D R 1.@ o D+[+@     E+I N 9+#       + K.D *.L.      @ 1 c.D M.N.R.f+J P P.F+$ $ ) c D S i     # o G+D V A # a 1.O A.G+a #     # o 8+u       + W.D X.U #       @.;.D $.>.$+j *+=.{ H+      $ u K R D I+v {.].D &.B @   7 x J D D H ].. 8.J+K+#     2 R J x @                                                 ",
"                                              @ B &.D E F v [.D o.X @     Q.: Q D R 1.R.~+!.L+<.! M+N+%.O+e         + K.D *.L.      @ 1 c.D M.N.  L.P+D H h .     4+H %.9 Q+a Y.f ).!+N+C.    E.R+D ).m S+v 7.0+>+5.j R.    + W.D X.U #       @.;.D $.>.. ; #.H N T+U+a+; Q+V+X.D >+E.J.{.].D &.B @     o P.O D H ].R.6 !.W+j v l.B.Q *+A $                                                 ",
"                                              @ B &.D E F v [.D o.X @       p.b+P R 1.C.X+Q N O+M *+R H #.;         + K.D *.L.      @ 1 c.D M.N.  t.`.v.D v.>.#   L.V+R .+V M *+R Q ` Y+J.    R.U.R+O .+V M !.X..+Z Z+u     + W.D X.U #       @.;.D $.>..   @.`+ @.+g.!.M V J N .@U.R.  {.].D &.B @       d.*.P H +@Q.B.Q N O+M *+R I @@a                                                   ",
"                                              @ k+, H ` (.v #@I R+B @       J.U.b+u.F.t.$@%@P.V I X.&@k -           . *@I _ =@      # l.9 R T+]+    b.#+-@I m ;@#   a+>@>+/+I X.R+,@Q.R.        R.~.,.i+V I I '@ +A {.      + )@J (+n #       a+1.R C !@.     7 B & *.I I *+e.x+$@R.    ! ~@H Y k+@       t.e+*.*+~@  Q.,.{ V I }._ {@7                                                     ",
"                                                V.! - v J.  a - ! V.          R.! 7 ;     ]@^@7 - 7 ! b.              ! - !           R.! - ! R.      u 7 - ^@R.      ]@! 7 - 7 ! b.                ]@! 7 - - 7.v R.          ; - 7 V.        J.; - 7.u         R./@7.- - 7 v u           ; - ! R.          R.7.7 ;     ]@! 7 - 7 ! b.                                                      ",
"                                                                                                                                                                                                                                                                                                                                                                                            ",
"                                                                                                                                                                                                                                                                                                                                                                                            ",
"                                                                                                                                                                                                                                                                                                                                                                                            ",
"                                                                                                                                                                                                                                                                                                                                                                                            ",
"                                                                                                                                                                                                                                                                                                                                                                                            ",
"                                                                                                                                                                                                                                                                                                                                                                                            ",
"                                                                                                                                                                                                                                                                                                                                                                                            ",
"                                                                                                                                                                                                                                                                                                                                                                                            ",
"                                          R.]@]@]@]@]@]@]@]@]@V.                                                                                                                                                                                                                                                                                                                            "};
