/* XPM */
static xpm_row_t const leaderboard_active_xpm[] = {
"190 33 266 2",
"  	c #FFDF7F",
". 	c #FFE085",
"+ 	c #FFE396",
"@ 	c #FFE49A",
"# 	c #FFE291",
"$ 	c #FFDF80",
"% 	c #FFE084",
"& 	c #FFE394",
"* 	c #FFE18B",
"= 	c #FFE499",
"- 	c #FFE187",
"; 	c #FFE398",
"> 	c #FFE498",
", 	c #FFE392",
"' 	c #FFE186",
") 	c #FFE28C",
"! 	c #FFE18A",
"~ 	c #FFDF81",
"{ 	c #FFE18C",
"] 	c #FFE397",
"^ 	c #FFE28F",
"/ 	c #FFE28D",
"( 	c #FFDF7E",
"_ 	c #FFE28E",
": 	c #FFE395",
"< 	c #FFE081",
"[ 	c #FFE8A4",
"} 	c #FFFAEE",
"| 	c #FFFEFD",
"1 	c #FFF5D9",
"2 	c #FFE188",
"3 	c #FFE69E",
"4 	c #FFF9E8",
"5 	c #FFFFFE",
"6 	c #FFFFFF",
"7 	c #FFF1CA",
"8 	c #FFFEFA",
"9 	c #FFFFFD",
"0 	c #FFF9EA",
"a 	c #FFEAAD",
"b 	c #FFFCF5",
"c 	c #FFFDF8",
"d 	c #FFF9E5",
"e 	c #FFEEC0",
"f 	c #FFE59A",
"g 	c #FFE083",
"h 	c #FFF0C4",
"i 	c #FFFEFC",
"j 	c #FFEEBC",
"k 	c #FFFCF4",
"l 	c #FFF8E3",
"m 	c #FFEBB6",
"n 	c #FFF3D1",
"o 	c #FFFEFB",
"p 	c #FFFAED",
"q 	c #FFF3D2",
"r 	c #FFE189",
"s 	c #FFE7A4",
"t 	c #FFFAEC",
"u 	c #FFFAEB",
"v 	c #FFF2CE",
"w 	c #FFE6A2",
"x 	c #FFF6DA",
"y 	c #FFF2D2",
"z 	c #FFEFC0",
"A 	c #FFF8E4",
"B 	c #FFECB8",
"C 	c #FFE28B",
"D 	c #FFF2CD",
"E 	c #FFFBF1",
"F 	c #FFE9AC",
"G 	c #FFFBEF",
"H 	c #FFF5DA",
"I 	c #FFE79E",
"J 	c #FFF9E9",
"K 	c #FFFDF7",
"L 	c #FFF7E6",
"M 	c #FFF6E4",
"N 	c #FFF7E5",
"O 	c #FFF2D1",
"P 	c #FFE496",
"Q 	c #FFF8E7",
"R 	c #FFEFC1",
"S 	c #FFDF7D",
"T 	c #FFFDF6",
"U 	c #FFFCF3",
"V 	c #FFF7E4",
"W 	c #FFF9EB",
"X 	c #FFFEF9",
"Y 	c #FFF9E6",
"Z 	c #FFE8A9",
"` 	c #FFF0C5",
" .	c #FFF6E2",
"..	c #FFEAAE",
"+.	c #FFF6E3",
"@.	c #FFFBF2",
"#.	c #FFF0C6",
"$.	c #FFE391",
"%.	c #FFFCF2",
"&.	c #FFF8E8",
"*.	c #FFEEBE",
"=.	c #FFE59D",
"-.	c #FFFBED",
";.	c #FFE9AA",
">.	c #FFFAEF",
",.	c #FFF8E6",
"'.	c #FFE086",
").	c #FFF9EC",
"!.	c #FFF7DF",
"~.	c #FFDE7C",
"{.	c #FFDE7B",
"].	c #FFDF7C",
"^.	c #FFEAB0",
"/.	c #FFFBEE",
"(.	c #FFF5DD",
"_.	c #FFF0C8",
":.	c #FFF9E7",
"<.	c #FFE59B",
"[.	c #FFEBB7",
"}.	c #FFDE79",
"|.	c #FFECB7",
"1.	c #FFDE78",
"2.	c #FFE8A8",
"3.	c #FFE598",
"4.	c #FFF7DE",
"5.	c #FFEEBD",
"6.	c #FFECB9",
"7.	c #FFF6E1",
"8.	c #FFEDBB",
"9.	c #FFEBB5",
"0.	c #FFEFC3",
"a.	c #FFEEC2",
"b.	c #FFE080",
"c.	c #FFEDBC",
"d.	c #FFE9AD",
"e.	c #FFFDF5",
"f.	c #FFFBF0",
"g.	c #FFE185",
"h.	c #FFF4DA",
"i.	c #FFF5DB",
"j.	c #FFDF82",
"k.	c #FFF0C7",
"l.	c #FFFDF9",
"m.	c #FFF1CB",
"n.	c #FFF3D4",
"o.	c #FFE8AA",
"p.	c #FFE59C",
"q.	c #FFFCF1",
"r.	c #FFF7E0",
"s.	c #FFF6DF",
"t.	c #FFEDBD",
"u.	c #FFDE7A",
"v.	c #FFF2D0",
"w.	c #FFEBB2",
"x.	c #FFE9AF",
"y.	c #FFE7A0",
"z.	c #FFF0CC",
"A.	c #FFE495",
"B.	c #FFE7A1",
"C.	c #FFE6A1",
"D.	c #FFF6DE",
"E.	c #FFEFC5",
"F.	c #FFF1CE",
"G.	c #FFE9B1",
"H.	c #FFE082",
"I.	c #FFEBB3",
"J.	c #FFFCF6",
"K.	c #FFEDB9",
"L.	c #FFE7A5",
"M.	c #FFEAB1",
"N.	c #FFF5DF",
"O.	c #FFF4DC",
"P.	c #FFF3D9",
"Q.	c #FFECBB",
"R.	c #FFFCF7",
"S.	c #FFE69F",
"T.	c #FFF4D3",
"U.	c #FFE497",
"V.	c #FFF3D7",
"W.	c #FFF8E9",
"X.	c #FFF4DB",
"Y.	c #FFF1D0",
"Z.	c #FFECBA",
"`.	c #FFEBB4",
" +	c #FFF0CB",
".+	c #FFE9B0",
"++	c #FFEAB7",
"@+	c #FFEEC1",
"#+	c #FFF8E5",
"$+	c #FFF1CD",
"%+	c #FFE393",
"&+	c #FFF6E0",
"*+	c #FFF3D5",
"=+	c #FFE8AB",
"-+	c #FFF2D3",
";+	c #FFEDB7",
">+	c #FFE390",
",+	c #FFF4D6",
"'+	c #FFE8AE",
")+	c #FFEAB3",
"!+	c #FFEFC9",
"~+	c #FFE6A0",
"{+	c #FFE8AC",
"]+	c #FFE69B",
"^+	c #FFE6A4",
"/+	c #FFE6A3",
"(+	c #FFF4D7",
"_+	c #FFE289",
":+	c #FFF0C9",
"<+	c #FFE59F",
"[+	c #FFEDBF",
"}+	c #FFF3D3",
"|+	c #FFE9AE",
"1+	c #FFE69D",
"2+	c #FFE492",
"3+	c #FFFBF3",
"4+	c #FFFBF4",
"5+	c #FFE9AB",
"6+	c #FFF5DE",
"7+	c #FFEEC4",
"8+	c #FFEAB6",
"9+	c #FFECBC",
"0+	c #FFEBB8",
"a+	c #FFEFC7",
"b+	c #FFEEC3",
"c+	c #FFEDBE",
"d+	c #FFF5DC",
"e+	c #FFF4D4",
"f+	c #FFE7A7",
"g+	c #FFE088",
"h+	c #FFF6DD",
"i+	c #FFF7E3",
"j+	c #FFEAAF",
"k+	c #FFE7A3",
"l+	c #FFE28A",
"m+	c #FFEDC0",
"n+	c #FFF1CC",
"o+	c #FFE087",
"p+	c #FFF3D0",
"q+	c #FFF3D6",
"r+	c #FFF7E2",
"s+	c #FFE7AA",
"t+	c #FFE5A0",
"u+	c #FFE49B",
"v+	c #FFE6A6",
"w+	c #FFEEBF",
"x+	c #FFFAEA",
"y+	c #FFF2CC",
"z+	c #FFE8A6",
"A+	c #FFF7E1",
"B+	c #FFF6DB",
"C+	c #FFEAB2",
"D+	c #FFEBB0",
"E+	c #FFF1C9",
"F+	c #FFEFC4",
"G+	c #FFE7A2",
"H+	c #FFF1CF",
"I+	c #FFE493",
"J+	c #FFF3DA",
"K+	c #FFF4DD",
"L+	c #FFF2D5",
"M+	c #FFE9A9",
"N+	c #FFEFCA",
"O+	c #FFF0CA",
"P+	c #FFEDC3",
"Q+	c #FFF2D4",
"                                                                                                                                                                                                                                                                                                                                                                                            ",
"                                                                                                                                                                                                                                                                                                                                                                                            ",
"                                                                                                                                                                                                                                                                                                                                                                                            ",
"                                                                                                                                                                                                                                                                                                                                                                                            ",
"                                                                                                                                                                                                                                                                                                                                                                                            ",
"                                                                                                                                                                                                                                                                                                                                                                                            ",
"                                                                                                                                                                                                                                                                                                                                                                                            ",
"                                                                                                                                                                                                                                                                                                                                                                                            ",
"                                                . + @ # $           % & @ @ @ @ @ @ @ & %         * = @ &             - ; @ @ @ @ @ > , '         $ ) @ @ @ @ @ @ @ @ ! ~ { @ @ @ @ @ ] # %       ~ ^ @ @ @ @ @ = & )             $ * & = @ = & ! $               ~ ^ @ @ / (         $ * @ @ @ @ @ ] # %       ~ _ @ @ @ @ @ @ : _ <                                                       ",
"                                              ( [ } | 1 2         ( 3 4 5 5 5 5 5 5 6 4 3 (     $ 7 8 9 0 /           a b 5 5 5 5 6 c d e f g     - h 5 5 5 5 5 5 5 i j ! h 5 5 5 5 6 k l m / $   / n 6 5 5 5 5 o p q @       ( r s n t | 5 i u v w 2 (           _ x 5 5 y %         . z | 5 5 5 6 b A B _ $   C D 6 5 5 5 5 5 E x F ^ (                                                   ",
"                                              ( [ G 6 H r         ( I J 6 K L M M M N O P (     2 Q 5 5 c R S         a T 5 U V M N W X 5 Y Z g   - ` 6 i } M M M M  ...r h 6 i } +.Q @.| o #.%   _ n 6 8 W M M 0 8 9 V $.  ( ! R %.9 k &.V &.b 5 E *.2 (       $ =.k 6 6 -.;.S       . R 5 i >.+.,.E | i 7 '.  C v 6 o ).M M L E 9 c n , (                                                 ",
"                                              ( [ G 6 H r         ( I J 6 !.) ~.~.~.{.].(       ^.K i /.| (.%         a T i n ( {.  f _.@.6 :.<.$ - ` 6 U [.}.~.~.~.~.( - h 6 k |.1.2 ^.} 5 U &   _ n 6 } 2.}.~.3.4.9 c 5.( < 6.k 5 7.B ) S _ 8.,.6 U 9.<       '.0.5 c %.i a.b.      . R 5 b c.1.- d.W 5 e.>   C v 6 f.d.}.{.g...h.| 8 v %                                                 ",
"                                              ( [ G 6 H r         ( I J 6 !.^                 S i.i -.R 6 f.;.S       a T i q j.    ( ( k.l.6 m.- - ` 6 k B ].          - h 6 k 6.].  {.n.i o ..$ _ n 6 /.o.S     h i X k.S p.V 6 t w ( (   ( S Z q.6 r.= (     { t i !.q 6 s.> (     . R 5 b t.].  u.v.o | w.< C v 6 f.x.S     S _ Y 6 @.d.S                                               ",
"                                              ( [ G 6 H r         ( I J 6 !.* u.u.{.].      ( y.f.9 D =.U o z.u.      a T i q j.      ( A.Q 6 f.^ - ` 6 U m 1.u.u.{.(   - h 6 k 6.].  {.n.o c B.$ _ n 6 } 2.1.{.C.D.9 f.2.{.[.8 6 E.'           r F.6 X G.S   H.I.o J.K.m 8 T x.S     . R 5 b t.].  u.v.o 8 L.$ C v 6 f.x.S       H.M.i i y {.                                              ",
"                                              ( [ G 6 H r         ( I J 6 k N.O.O.P.Q.S     ].m.8 R.S.) T.6 V U.(     a T i q j.        {.V.| o C.2 ` 6 o W.X.O.O.Y.^   - h 6 k |.1.2 Z.f.5 Q 2   _ n 6 l.N X.O.J l.A `.g -  +6 l..+S           ~.++o 6 @+g   '.D.9 W./ 3 #+6 $+C     . R 5 b c.1.' [.} 5 J {   C v 6 f.x.S         %+%.6 &+-                                               ",
"                                              ( [ G 6 H r         ( I J 6 6 6 6 6 9 *+].  ( ) V 5 4.! ~ =+8 b Q.~.    a T i q j.        ].-+o | ;+! ` 6 6 6 6 6 6 E >   - h 6 i } M Q b 5 p Z ~   _ n 6 6 6 6 6 6 5 /.*.  >+,+6 T '+S           S )+K 6 n /   <.b 8 D S g !+5 t ~+(   . R 5 i >.M Q k 5 G {+H.  C v 6 f.x.S         %+} 6 4 ]+(                                             ",
"                                              ( [ G 6 H r         ( I J 6 ,.'+^+^+/++ (   S m U 5 M.. j.> #+6 (+_+(   a T i q j.        ].-+i i a r ` 6 T :+w ^+^+<+%   - h 6 6 5 5 6 6 (+w j.    _ n 6 @.[+/+^+9.A i @.t.) }+6 T |+S           S )+K 6 7 2 ~ 7 i k 1+H.$ M.E 5 8.%   . R 5 6 5 5 6 6 H s H.    C v 6 f.x.S         %+/.6 N 2+(                                             ",
"                                              ( [ G 6 H r         ( I J 6 !.^             S y i 6 b 3+3+4+o 6 } 5+S   a T i q j.        ( 6+5 c & - ` 6 k B ~.          - h 6 b 7+^.0 6 G p.$     _ n 6 /.o.S   g @ l.| 6+S [+5 9 8+(           ( 9+9 5 0+( . &.5 | 3+3+@.J.| 6 r.&   . R 5 K a+d.4 6 q.~+      C v 6 f.x.S         = c 6 h.(                                               ",
"                                              ( [ G 6 H r         ( I J 6 !.^           S s 0 6 l.K K K K c | i b+  ( a T i q j.      ( ^.E 6 l { - ` 6 k B ].          - h 6 k 6.S c+b 5 d+^     _ n 6 /.o.S     ! t 5 &.{.d.E 6 e+>+          f r.6 f.Z S |.K 5 c K K K K l.5 K /+$ . R 5 b t.S Z.U 6 D.,     C v 6 f.x.S       2 v 5 c E.~.                                              ",
"                                              ( [ G 6 H 2         S I J 6 !.^           ( b+l.8 f+g+2 2 g+<.h+6 i+p.S a T i q ~     . P (.5 X j+H.- ` 6 k B ~.          - h 6 k 6.~.2 H 9 i c.g   _ n 6 /.o.S   g k+l.| i.S l+O 5 l.Q.^ H.  g >+m+8 5 n+2 H.d+i f.^ 2 2 2 o+F p 6 p+* . R 5 b t.~.' q+| | e .   C v 6 f.|+].  ~ C o.T 5 #+2+(                                               ",
"                                              ( [ G 6 r+s+^+^+^+t+* 3 J 6 ,.'+^+^+^+^+u+3.D.6 4 >         < c+6 K 9.( a T | d+v+^+f+w+x+9 l.y+C   - ` 6 T :+w ^+^+^+/+_ - h 6 k 6.].( z+p 5 f.p.  _ n 6 @.[+/+^+9.4 5 U B ( ( ~+A+i c B+C+v+`.h+i i D.1+S B.@.5 H %         g d+6 G > . R 5 b t.].( k+W 5 %.t+$ C v 6 U a./+^+{+n K 9 p D+(                                                 ",
"                                              ( [ f.6 6 6 6 6 6 k `.1+0 6 6 6 6 6 6 6 4 E+k 6 7 !         S 2.G 6 n._ a K 6 6 6 6 6 5 c W #./     - #.6 6 6 6 6 6 6 5 5.C ` 6 b 6.].  ( F+K 5 r., _ q 6 6 6 6 6 6 8 G E.      S G+,+f.8 6 6 6 8 G n.S.S S F.o 8 `.~         ~.a.c 6 5.! R 6 T t.].  S @+J.6 r+A.) v 6 6 6 6 6 6 i b s.^.                                                    ",
"                                              ( 3.H+O.O.O.O.O.O.y /+I+ +O.O.O.O.O.O.O.:+Q.J+q+u+(         ( >+b+K+ +: 3 L+O.O.O.O.O.q+E.3         % ^.O.O.O.O.O.O.O.h.M+' j+O.-+f+S     ' N+X.V.G+r 6.K+O.O.O.O.X. +j+          ( g a O+h.O.h.:+5+H.(   S P+X.H+o+          ( p.Y.O.@+r d.X.Q+o.S     g.a+X.P.[ 2 m O.O.O.O.O.O.H+8.r (                                                     ",
"                                                ( {.u.u.u.u.u.u.{.( ( ~.u.u.u.u.u.u.u.~.].{.{.(             ( ~.u.~.( ( {.u.u.u.u.u.{.~.(           S u.u.u.u.u.u.u.{.S   S u.{.S         ~.{.{.(   S u.u.u.u.u.{.~.S               S ~.{.u.{.~.S         ].{.{.              ( {.{.].  S {.{.S         ~.{.{.(   S u.u.u.u.u.{.{.].                                                        ",
"                                                                                                                                                                                                                                                                                                                                                                                            ",
"                                                                                                                                                                                                                                                                                                                                                                                            ",
"                                                                                                                                                                                                                                                                                                                                                                                            ",
"                                                                                                                                                                                                                                                                                                                                                                                            ",
"                                                                                                                                                                                                                                                                                                                                                                                            ",
"                                                                                                                                                                                                                                                                                                                                                                                            ",
"                                                                                                                                                                                                                                                                                                                                                                                            ",
"                                                                                                                                                                                                                                                                                                                                                                                            ",
"                                                                                                                                                                                                                                                                                                                                                                                            "};
