/* XPM */
static xpm_row_t const main_menu_active_xpm[] = {
"190 33 160 2",
"  	c #F9D8C1",
". 	c #F9DAC5",
"+ 	c #FADECC",
"@ 	c #FADFCD",
"# 	c #FADDCA",
"$ 	c #F9D9C2",
"% 	c #FADECB",
"& 	c #F9DAC4",
"* 	c #FADBC6",
"= 	c #FADFCC",
"- 	c #FADDC9",
"; 	c #F9DCC8",
"> 	c #F9DBC6",
", 	c #FADCC8",
"' 	c #F9D9C3",
") 	c #F9DBC5",
"! 	c #F9D8C2",
"~ 	c #FBE6D8",
"{ 	c #FEFCFA",
"] 	c #FFFFFE",
"^ 	c #FEF8F4",
"/ 	c #FBE2D2",
"( 	c #FFFBFA",
"_ 	c #FFFFFF",
": 	c #FEFBF8",
"< 	c #FAE4D5",
"[ 	c #FCECE1",
"} 	c #FFFDFC",
"| 	c #FEFAF8",
"1 	c #F9D8C0",
"2 	c #FAE4D4",
"3 	c #FFFEFE",
"4 	c #FDF2EB",
"5 	c #FCEFE5",
"6 	c #FEF6F1",
"7 	c #FAE2D0",
"8 	c #FFFEFD",
"9 	c #FFFCFA",
"0 	c #FCEADF",
"a 	c #F9D7C0",
"b 	c #FBEADE",
"c 	c #FDF3EC",
"d 	c #FBE7D9",
"e 	c #FFFDFD",
"f 	c #FDF7F2",
"g 	c #FAE0CF",
"h 	c #FAE3D3",
"i 	c #FEFAF7",
"j 	c #FDF5F0",
"k 	c #FAE3D2",
"l 	c #FEF9F6",
"m 	c #FCEDE2",
"n 	c #F9D7BF",
"o 	c #FCEFE6",
"p 	c #FADECA",
"q 	c #FDF2EA",
"r 	c #FEFCFB",
"s 	c #FCEEE4",
"t 	c #FDF3ED",
"u 	c #FEFBF9",
"v 	c #FDF5EF",
"w 	c #FDEEE4",
"x 	c #FFFCFB",
"y 	c #FBEBDF",
"z 	c #FCE8DB",
"A 	c #FEF7F3",
"B 	c #FDF4EF",
"C 	c #FDF4EE",
"D 	c #FADDC8",
"E 	c #FBE6D9",
"F 	c #FEF8F5",
"G 	c #FBE5D6",
"H 	c #FBE4D5",
"I 	c #FADBC5",
"J 	c #FCEDE3",
"K 	c #FCE9DC",
"L 	c #FAE2D2",
"M 	c #FDF0E8",
"N 	c #FEF6F0",
"O 	c #FFFAF8",
"P 	c #FCEADE",
"Q 	c #FCE9DD",
"R 	c #FFFDFB",
"S 	c #FCE9DE",
"T 	c #FEFAF6",
"U 	c #FEF6F2",
"V 	c #FAE0CE",
"W 	c #FDF5EE",
"X 	c #FBE3D3",
"Y 	c #FCE8DA",
"Z 	c #FDF4ED",
"` 	c #FDF1E8",
" .	c #FCF1E9",
"..	c #FEF9F5",
"+.	c #FDF1EA",
"@.	c #FADCC6",
"#.	c #FDF0E9",
"$.	c #FDF6F1",
"%.	c #FCEBE0",
"&.	c #FEFDFC",
"*.	c #FAE1CE",
"=.	c #FEF7F2",
"-.	c #FDF0E7",
";.	c #FFFBF9",
">.	c #FDF6F0",
",.	c #FCEEE3",
"'.	c #F9DAC3",
").	c #FAE2D1",
"!.	c #FDF3EE",
"~.	c #FEF5EF",
"{.	c #FBE9DC",
"].	c #FAE1CF",
"^.	c #FEFDFB",
"/.	c #FDEEE5",
"(.	c #FFFEFC",
"_.	c #FCEEE5",
":.	c #FEF8F3",
"<.	c #FDF1E9",
"[.	c #FCEDE4",
"}.	c #FBEBE0",
"|.	c #FAE1D0",
"1.	c #FBE8DA",
"2.	c #FBE3D2",
"3.	c #FBE9DD",
"4.	c #FADCC7",
"5.	c #FDF3EB",
"6.	c #FBE3D4",
"7.	c #FCEBDF",
"8.	c #FBE5D5",
"9.	c #FDEFE6",
"0.	c #F9DBC7",
"a.	c #FAE1D1",
"b.	c #FEFCF9",
"c.	c #FBE2D0",
"d.	c #FCEEE6",
"e.	c #FEFEFC",
"f.	c #FBEADD",
"g.	c #FCECE2",
"h.	c #FEF4EE",
"i.	c #FEFBFA",
"j.	c #FFFCFC",
"k.	c #FAE4D3",
"l.	c #FBEADF",
"m.	c #FBE8DB",
"n.	c #FBE4D6",
"o.	c #F9D9C4",
"p.	c #FCEADD",
"q.	c #FCECE0",
"r.	c #FBE6D7",
"s.	c #FDEFE5",
"t.	c #FAE0CD",
"u.	c #FBE7D8",
"v.	c #FFFEFF",
"w.	c #FCF0E7",
"x.	c #FADFCB",
"y.	c #FEF5F1",
"z.	c #FBE4D4",
"A.	c #FCF0E8",
"B.	c #FAE3D4",
"C.	c #FCEBE1",
"                                                                                                                                                                                                                                                                                                                                                                                            ",
"                                                                                                                                                                                                                                                                                                                                                                                            ",
"                                                                                                                                                                                                                                                                                                                                                                                            ",
"                                                                                                                                                                                                                                                                                                                                                                                            ",
"                                                                                                                                                                                                                                                                                                                                                                                            ",
"                                                                                                                                                                                                                                                                                                                                                                                            ",
"                                                                                                                                                                                                                                                                                                                                                                                            ",
"                                                                                                                                                                                                                                                                                                                                                                                            ",
"                                                                                                                                                                                                                                                                                                                                                                                            ",
"                                                                          . + @ #                 $ + @ % &           * = @ %             & % @ -   $ ; @ - $           $ = + >               > @ = ,                 & = @ # '   & % @ @ @ @ @ @ @ # ' & % = )             , @ # '   - @ % &           - @ + !                                                                             ",
"                                                                          ~ { ] ^ -               / ( _ : <           [ } _ | -         1 2 | 3 4 & > 5 _ 6 7           - 8 9 0 a           ' b 3 3 c )             ' d e _ f g a h i _ _ _ _ _ _ _ j = k l e m .         n o _ 6 p ' q 3 : <           c 3 { &                                                                             ",
"                                                                          ~ r _ e s 1           ' t 3 _ u <         & v 3 _ e w         1 2 | ] 4 & > o _ ] q - 1       - 3 x 0 a           ' y 3 _ 9 z a           , A _ _ f g a h i _ u B C C C C m D k i _ r E         n o _ 6 p ' 4 ] : <           c 3 x &                                                                             ",
"                                                                          ~ r _ _ F @           G ( _ _ u <         H : 3 l 3 6 I       1 2 | ] 4 & > o _ _ 8 J >       - 3 x 0 a           ' y 3 _ _ c -         $ K e _ _ f g a h i _ c ' a a a a a 1 h i _ _ l L       n o _ 6 p ' 4 ] : <           c 3 x &                                                                             ",
"                                                                          ~ r _ 8 8 M $       * N ] } _ u <       n M 8 O P 3 { ~       1 2 | ] 4 & > o _ _ _ 9 Q &     - 3 x 0 a           ' y 3 ] 8 R S         p T ] } _ f g a h i _ c &           1 h i _ _ ] U V     n o _ 6 p ' 4 ] : <           c 3 x &                                                                             ",
"                                                                          ~ r 8 W 3 l X 1   a Y 9 3 Z 3 u <       V ^ _ ` = T 8  .a     1 2 | ] 4 & > o _ 9 u _ l X $   - 3 x 0 a           ' y 3 { 6 _ j @ 1   ! m 8 x v _ f g a h i _ c ' a a a 1   1 h i _ .._ 3 +.@.  n o _ 6 p ' 4 ] : <           c 3 x &                                                                             ",
"                                                                          ~ r } m F 3 #.I 1 = $.] A m 3 u <     a %.} &.L . o ] ^ *.    1 2 | ] 4 & > o _ =.-.;._ >.=   - 3 x 0 a           ' y 3 i ,.| e 0 '.  ).i 3 v o _ f g a h i _ u !.t t 4 E a 1 h i _ 5 ~._ x [ ' n o _ 6 p ' 4 ] : <           c 3 x &                                                                             ",
"                                                                          ~ r } {.K 3 | ~ n %.R &.H b 3 u <     * c _ 6 , ! ].^.R %.a   1 2 | ] 4 & > o _ $.)./.(.3 q ) - 3 x 0 a           ' y 3 i ~ _._ :.].  <.8 i )._._ f g a h i _ _ _ _ _ 8 [.a 1 h i _ }.|..._ : 1.n o _ 6 p ' 4 ] : <           c 3 x &                                                                             ",
"                                                                          ~ r } 1.= U _ <.2.$._ Z , 3.3 u <   a G i _ z . ' - j _ C 4.  1 2 | ] 4 & > o _ $.V ) 5.3 } [ + 3 x 0 a           ' y 3 i h 6.l _ 7.8.| 8 9.0._._ f g a h i _ j a.V V @ ,   1 h i _ }.& L b._ A c.d._ 6 p ' 4 ] : <           c 3 x &                                                                             ",
"                                                                          ~ r } 1.$ G e.: 6 x { ).' f.3 u <     g.8 _ x u u u 8 _ : d a 1 2 | ] 4 & > o _ $.V a p U ] 9 P 3 x 0 a           ' y 3 i h   [ 3 ^ =.8 l - > _._ f g a h i _ c &           1 h i _ }.' ' d e _ 4 Z _ 6 p ' q ] u 8.          t 3 x &                                                                             ",
"                                                                          ~ r } 1.  % h._ ] _ o 0.$ f.3 u < a ].=._ x i.i.i.i.{ 8 3 s   1 2 | ] 4 & > o _ $.V 1   X i ] j._ x 0 a           ' y 3 i k.a 2.^ _ ] 8 l.' > _._ f g a h i _ c &           1 h i _ }.'   > J 3 e e _ 6 p $ %.3 } [         ' $.] | &                                                                             ",
"                                                                          ~ r } 1.    G { _ i a.  $ f.3 u < 1 m.R 3 n.' o.o.' # q _ ^ ).a 2 | ] 4 & > o _ $.V 1   $ p.9 _ _ x 0 a           ' y 3 i k.1 1 [ } _ A ,   > _._ f g a h i _ c &           1 h i _ }.'     % c ] _ _ 6 p   @ ;.] j = $   . K { 3 5.'                                                                             ",
"                                                                          ~ r } 1.    - o i q.)   $ f.3 u < , q _ ..].        $ r.] } P   2 | ] 4 & > o _ $.V 1     ' s.8 _ x 0 a           ' y 3 i k.1   t.c l u.'   > _._ f g a h i _ $.6.).).).).@ ' k i _ }.'       |.A _ _ 6 p   & [.} 3 $.d 6.w ;.v.F c.!                                                                             ",
"                                                                          ~ R 8 1.      * = .     $ f.] u < X u _ w.4.          V .._ Z p 2 u _ c & > o _ f V 1       & 4 3 R 7.a           ' y _ : 2 1     D x.'     > _._ A ].a h | _ _ _ _ _ _ _ $.= k i _ }.'       a H l _ =.p     > _.i 8 _ _ _ R y.z.$                                                                               ",
"                                                                          ].o w.).                ! h M _.@ g A.w.g 1           > {.+.J = = s #.{.' & ~ +.%.-           - _.o 6.1           $ B.#.s =                 & ~ +.C.- 1 = [.<.<.<.<.<.<.+.0 ; = [.<.2 $         $ r.M %.0.      & 8.J #.<.o P #                                                                                   ",
"                                                                          1 a a 1                   1 n a     n a 1               a n a     a n a     a n a               a a 1               1 n a                     1 n a       a n n n n n n n a     a n 1             1 n a           1 a n n a a                                                                                     ",
"                                                                                                                                                                                                                                                                                                                                                                                            ",
"                                                                                                                                                                                                                                                                                                                                                                                            ",
"                                                                                                                                                                                                                                                                                                                                                                                            ",
"                                                                                                                                                                                                                                                                                                                                                                                            ",
"                                                                                                                                                                                                                                                                                                                                                                                            ",
"                                                                                                                                                                                                                                                                                                                                                                                            ",
"                                                                                                                                                                                                                                                                                                                                                                                            ",
"                                                                                                                                                                                                                                                                                                                                                                                            "};
