/* XPM */
static xpm_row_t const multiplayer_active_xpm[] = {
"190 33 173 2",
"  	c #99E4FF",
". 	c #9AE4FF",
"+ 	c #9BE5FF",
"@ 	c #A0E5FF",
"# 	c #9EE5FF",
"$ 	c #9CE5FF",
"% 	c #9FE5FF",
"& 	c #9BE4FF",
"* 	c #9DE5FF",
"= 	c #C1EEFF",
"- 	c #F6FCFF",
"; 	c #F8FDFF",
"> 	c #E1F6FF",
", 	c #B6EBFF",
"' 	c #F5FCFF",
") 	c #FAFDFF",
"! 	c #E7F8FF",
"~ 	c #AFE9FF",
"{ 	c #96E3FF",
"] 	c #C7F0FF",
"^ 	c #F2FBFF",
"/ 	c #C8EFFF",
"( 	c #97E4FF",
"_ 	c #B3EAFF",
": 	c #C9F0FF",
"< 	c #F9FDFF",
"[ 	c #F1FBFF",
"} 	c #C5EFFF",
"| 	c #E5F7FF",
"1 	c #F7FCFF",
"2 	c #C4EEFF",
"3 	c #A1E6FF",
"4 	c #D0F1FF",
"5 	c #EFFAFF",
"6 	c #BEEDFF",
"7 	c #CDF1FF",
"8 	c #E4F8FF",
"9 	c #BDEDFF",
"0 	c #A3E6FF",
"a 	c #D6F3FF",
"b 	c #ECFAFF",
"c 	c #98E4FF",
"d 	c #BCEDFF",
"e 	c #EDFAFF",
"f 	c #ACE8FF",
"g 	c #C6EFFF",
"h 	c #F4FCFF",
"i 	c #B4EAFF",
"j 	c #E6F8FF",
"k 	c #B9ECFF",
"l 	c #D9F4FF",
"m 	c #A5E7FF",
"n 	c #BCECFF",
"o 	c #F3FBFF",
"p 	c #C4EFFF",
"q 	c #A2E6FF",
"r 	c #FBFEFF",
"s 	c #FFFFFF",
"t 	c #F7FDFF",
"u 	c #E3F8FF",
"v 	c #FEFFFF",
"w 	c #ECF9FF",
"x 	c #B1EAFF",
"y 	c #CAF0FF",
"z 	c #CBF0FF",
"A 	c #CCF0FF",
"B 	c #FAFEFF",
"C 	c #B5EAFF",
"D 	c #C8F0FF",
"E 	c #E0F6FF",
"F 	c #F4FBFF",
"G 	c #D3F3FF",
"H 	c #C0EEFF",
"I 	c #D1F2FF",
"J 	c #FDFEFF",
"K 	c #C6F0FF",
"L 	c #A4E6FF",
"M 	c #DAF4FF",
"N 	c #D9F5FF",
"O 	c #ABE8FF",
"P 	c #E3F7FF",
"Q 	c #A0E6FF",
"R 	c #D2F3FF",
"S 	c #D5F3FF",
"T 	c #FCFEFF",
"U 	c #D7F4FF",
"V 	c #A4E7FF",
"W 	c #BAECFF",
"X 	c #C5EEFF",
"Y 	c #C0EDFF",
"Z 	c #F5FDFF",
"` 	c #B0EAFF",
" .	c #A9E8FF",
"..	c #F0FBFF",
"+.	c #DBF5FF",
"@.	c #B8EBFF",
"#.	c #A8E7FF",
"$.	c #DCF5FF",
"%.	c #BFEDFF",
"&.	c #BEEEFF",
"*.	c #EAF9FF",
"=.	c #B7EBFF",
"-.	c #FDFFFF",
";.	c #EBF9FF",
">.	c #C3EEFF",
",.	c #D1F3FF",
"'.	c #D5F4FF",
").	c #F6FDFF",
"!.	c #C3EFFF",
"~.	c #B9EBFF",
"{.	c #F3FCFF",
"].	c #D8F5FF",
"^.	c #CBF1FF",
"/.	c #AAE8FF",
"(.	c #D8F4FF",
"_.	c #B2EAFF",
":.	c #9FE6FF",
"<.	c #D6F4FF",
"[.	c #D0F2FF",
"}.	c #CFF1FF",
"|.	c #E5F8FF",
"1.	c #D1F1FF",
"2.	c #CDF0FF",
"3.	c #B0E9FF",
"4.	c #D2F2FF",
"5.	c #C2EEFF",
"6.	c #94E3FF",
"7.	c #9AE5FF",
"8.	c #EEFAFF",
"9.	c #ADE9FF",
"0.	c #A7E7FF",
"a.	c #C9EFFF",
"b.	c #D9F3FF",
"c.	c #DBF4FF",
"d.	c #AFEAFF",
"e.	c #E1F7FF",
"f.	c #E0F5FF",
"g.	c #E2F6FF",
"h.	c #DFF6FF",
"i.	c #E9F9FF",
"j.	c #C7EFFF",
"k.	c #C7EEFF",
"l.	c #CAF1FF",
"m.	c #E8F8FF",
"n.	c #E8F9FF",
"o.	c #BDECFF",
"p.	c #EFFBFF",
"q.	c #97E3FF",
"r.	c #BFEEFF",
"s.	c #DDF6FF",
"t.	c #B2E9FF",
"u.	c #DAF5FF",
"v.	c #AEE9FF",
"w.	c #F2FCFF",
"x.	c #CEF2FF",
"y.	c #BDEEFF",
"z.	c #A6E7FF",
"A.	c #BBEDFF",
"B.	c #CCF1FF",
"C.	c #B4EBFF",
"D.	c #DEF6FF",
"E.	c #ABE9FF",
"F.	c #D4F3FF",
"G.	c #DFF7FF",
"H.	c #B3EBFF",
"I.	c #E9F8FF",
"J.	c #F0FAFF",
"K.	c #DFF5FF",
"L.	c #DDF5FF",
"M.	c #EDF9FF",
"N.	c #CEF1FF",
"O.	c #CFF2FF",
"P.	c #EAF8FF",
"            . . . . . . . . . . . . . . . . . . . . . . . . . . . . . . . . . . .                                                                                                                                                                                                                                                                                                           ",
"                                                                                                                                                                                                                                                                                                                                                                                            ",
"                                                                                                                                                                                                                                                                                                                                                                                            ",
"                                                                                                                                                                                                                                                                                                                                                                                            ",
"                                                                                                                                                                                                                                                                                                                                                                                            ",
"                                                                                                                                                                                                                                                                                                                                                                                            ",
"                                                                                                                                                                                                                                                                                                                                                                                            ",
"                                                                                                                                                                                                                                                                                                                                                                                            ",
"                                                      + @ @ #                 . @ @ # .   $ % @ $           $ @ @ &     $ @ % $           # @ @ @ @ @ @ @ @ @ @ $   * @ % &             $ @ @ @ @ @ % # &     . * @ % &                   & % @ @ .         $ @ @ * .         . % @ % . & % @ @ @ @ @ @ @ * . & @ @ @ @ @ @ # +                                                             ",
"                                                    . = - ; > $             . , ' ) ! ~ { ] ^ ; / $       ( / ' ) _   * : < [ } (       $ | ; < < < < < < < < 1 2 3 4 ) 5 6 (         % 7 < < < < < ^ 8 9 #   0 a ) b , c               ( d e < ' f       + g h ; a 0         i b ) j ~ k [ < < < < < < ) l m n o < < < < h j p q .                                                         ",
"                                                    . p r s t g (           3 u v s w x { y ; v z $       ( A B s C   * 7 s t D (       $ E o F F ; s v t F F ^ = q G s h H (         % I s v ; F h ; J t K $ L M s [ k c               c I r s v N #     c O P s ' C .     Q R s B g c n 1 s B F F F F ' S L 6 < s B F h ; T T U V                                                         ",
"                                                    . p r s v P 3         . W < s s w x { y ; v z $       ( A B s C   * 7 s t D (         . & &   X s < Y . & & . Q G s h H (         % I s Z p   3 } h v ' ` V M s [ k c             c  .j s t J ..m       ( = h s +.q   . @.t s > #.c n 1 J $.* & & & & .   %.< T N $ 3 &.*.s < =..                                                       ",
"                                                    . p r s -.; y c       0 ;.v T s w x { y ; v z $       ( A B s C   * 7 s t D (               ( 2 s ; %.c       Q G s h H (         % I s ' >.(   c S r T ,.V M s [ k c             ( 2 ; B '.).T !..       3 $.J B ~.. q $.s {.Y ( c n 1 J +.&             %.< T ]..   { : B s ^.#                                                       ",
"                                                    . p r r b s j /.c     } r r *.s w x { y ; v z $       ( A B s C   * 7 s t D (               ( 2 s ; %.c       Q G s h H (         % I s ' >.(     = < T (.V M s [ k c             3 l s *._.;.J j &       c =...s 8 m W ; T l :.  c n 1 J +.  { { ( c     %.< T ]..   { } ; s y #                                                       ",
"                                                    . p r t G Z B 7 +   /.w J b <.s w x { y ; v z $       ( A B s C   * 7 s t D (               ( 2 s ; %.c       Q G s h H (         % I s ' >.(   ( [.r T ,.V M s [ k c           c @.[ s }.% I r ' x         { 4 B B D |.s e _ c   c n 1 v e 1.4 4 2.3.c   %.< T (.(   ` > v t _.c                                                       ",
"                                                    . p r t p U s *.x { I r ; = 4.s w x { y ; v z $       ( A B s C   * 7 s t D (               ( 2 s ; %.c       Q G s h H (         % I s ' 5.6.7.W 8.v - _.V M s [ k c           + y v h @.c 9.h T U           0.*.-...T < A {     c n 1 s s s s s -.a.(   %.< v 5 b.c.;.J B 4.q                                                         ",
"                                                    . p r t 9 @.{.-.7 d.e v e.0 4.s w x { y ; v z $       ( A B s C   * 7 s t D (               ( 2 s ; %.c       Q G s h H (         % I s T ;.f.g.[ v T G . L M s [ k c           /.8 s $.q {   h.J 8.m         c 5.t v v ! V       c n 1 v i.j.k.k.2 f c   %.< s s s s s 5 : 0 c                                                         ",
"                                                    . p r t d # I v ;.e.) )._ Q 4.s w x { l.; v z $       ( A B s C   * 7 s t D (               ( 2 s ; %.c       Q G s h H (         % I s s s s s B b j.V   L M s [ k c         c =.; s o m.m.m.h v < D c         Q P -.< j.c       c n 1 J +.  ( ( ( c     %.< J 8 X n.s ' o.(                                                           ",
"                                                    . p r t 9 ( , p.J T v a % % 4.s w x q.r.h v s.%       ( 4 -.-.i   * 7 s t D (               ( 2 s ; %.c       Q G s h H (         % I s t I _ C t.f *     L M s [ k c         q U s v v v v v v s -.> c         . u.J ; 9         c n 1 J +.&             %.< T (.+ 9 {.s ! v.                                                          ",
"                                                    . p r t 9 c + 1.T s {.~ . % 4.s w x c V i.v w.v.&   . d.! s [ v.  * 7 s t D (               ( 2 s ; %.c       Q G s h H (         % I s ' >.(             L M s [ k c         v...s c./.f f f ~ +.v ^ k c       . N J ; 6         c n 1 J +.&             %.< T ].. :.4.v v R 3                                                         ",
"                                                    . p r t 9 c c 3.m.r x.:.  % 4.s w x c   z t -.b y.z.A.8 T r B.:.  * 7 s ; 7 0 L L L 3 .     ( 2 s ; %.c       Q G s h H (         % I s ' >.(             L M s w.Y 0 L L L 0 g v ; / (       . C.T r S c       . N J ; 6         c n 1 -.D.z.L L L L @ . %.< T ].. c ` n.s ).=..                                                       ",
"                                                    . p r t 9 c   . E.C.3     % 4.s w x c   $ F.- T T T T T ; G V     * 7 v s J r r r r e.q     ( 2 s < %.c       Q G s h = (         % I s Z >.(             L M s v T r r r < G.n.s b H.c         m b s *./.c     . u.J ; 6         c n 1 s v r r r r T c.m 6 < T ]..   c X - s n.f .                                                     ",
"                                                    . d w I.,         .       # / J.K.9.c     + 9 L.w J.M.E &.*       $ 2 5 J.J.J.J.J.5 (.3     c o.[ *.~.c       % y J.j W c         # / J.! n (             q 4 J.J.J.J.J.J.8.l i.8.N.c           # B.J.! 9 (     . O.8.I.=.          , m.J.J.J.J.J.J.J.4.0 @.P.M.N..     * I 8.5 } *                                                     ",
"                                                                                                                                                                                                                                                                                                                                                                                            ",
"                                                                                                                                                                                                                                                                                                                                                                                            ",
"                                                                                                                                                                                                                                                                                                                                                                                            ",
"                                                                                                                                                                                                                                                                                                                                                                                            ",
"                                                                                                                                                                                                                                                                                                                                                                                            ",
"                                                                                                                                                                                                                                                                                                                                                                                            ",
"                                                                                                                                                                                                                                                                                                                                                                                            ",
"                                                                                                                                                                                                                                                                                                                                                                                            ",
"                                                                                                                                                                                                                                                                                                                                                                                            ",
"                                                                                                                                                                                                                                                                                                                                                                                .           "};
