/* XPM */
static xpm_row_t const score_close_active_xpm[] = {
"40 40 783 2",
"  	c None",
". 	c #FDF6D9",
"+ 	c #FDF3D0",
"@ 	c #FEF3CF",
"# 	c #FEF3D0",
"$ 	c #FDF3D1",
"% 	c #FEF2CD",
"& 	c #FEF8E5",
"* 	c #FDF0C7",
"= 	c #FDEAAD",
"- 	c #FAE698",
"; 	c #F9DE78",
"> 	c #F9DA69",
", 	c #FCD86B",
"' 	c #FDD86A",
") 	c #FDD86B",
"! 	c #FAD870",
"~ 	c #F9D870",
"{ 	c #FCD96C",
"] 	c #FDDD80",
"^ 	c #FEE6A4",
"/ 	c #FDEEC1",
"( 	c #FEF5D9",
"_ 	c #FDF7DE",
": 	c #FDF0CB",
"< 	c #FBE39D",
"[ 	c #FAD867",
"} 	c #FBD458",
"| 	c #FBD44E",
"1 	c #F8D44A",
"2 	c #F4D44E",
"3 	c #FAD34A",
"4 	c #FDD247",
"5 	c #FED247",
"6 	c #FCD249",
"7 	c #FAD34B",
"8 	c #FCD14A",
"9 	c #FDCF48",
"0 	c #FDD14E",
"a 	c #FCD661",
"b 	c #FADE87",
"c 	c #FCEAB1",
"d 	c #FDF3D2",
"e 	c #FBEFC0",
"f 	c #F8E189",
"g 	c #FCD762",
"h 	c #FDD052",
"i 	c #FBD051",
"j 	c #FBD04E",
"k 	c #FDD048",
"l 	c #FDD146",
"m 	c #FDCF4A",
"n 	c #FED04D",
"o 	c #FED04A",
"p 	c #FECF49",
"q 	c #FECF4A",
"r 	c #F9D446",
"s 	c #FCD246",
"t 	c #F9D251",
"u 	c #FDD14D",
"v 	c #FCD457",
"w 	c #F9DC7D",
"x 	c #FAE9B0",
"y 	c #FDF4D4",
"z 	c #FBE5A6",
"A 	c #F8DA68",
"B 	c #F8D44B",
"C 	c #FDD04B",
"D 	c #FED04C",
"E 	c #FCD447",
"F 	c #FBD448",
"G 	c #FBD14C",
"H 	c #FDD248",
"I 	c #FDD147",
"J 	c #FBD446",
"K 	c #FBD546",
"L 	c #FAD446",
"M 	c #FBD347",
"N 	c #FCD14B",
"O 	c #FCD148",
"P 	c #FBD149",
"Q 	c #F9D460",
"R 	c #FAE293",
"S 	c #FDEEBD",
"T 	c #FEF3D1",
"U 	c #FCDE86",
"V 	c #F9D356",
"W 	c #FBD14F",
"X 	c #FBD147",
"Y 	c #FBD24B",
"Z 	c #FAD24B",
"` 	c #F9D449",
" .	c #FAD356",
"..	c #FED466",
"+.	c #FDCF52",
"@.	c #FED047",
"#.	c #FBD04A",
"$.	c #FDD347",
"%.	c #FCD346",
"&.	c #FCD247",
"*.	c #FED048",
"=.	c #FAD34C",
"-.	c #FCD248",
";.	c #FECE46",
">.	c #FBDA6D",
",.	c #FDEBB4",
"'.	c #FEF2CE",
").	c #FDDD81",
"!.	c #FBD253",
"~.	c #FAD24A",
"{.	c #FBD04B",
"].	c #FAD44B",
"^.	c #FCD860",
"/.	c #FED76F",
"(.	c #FCD55E",
"_.	c #FBD057",
":.	c #F6CC4E",
"<.	c #F0C54C",
"[.	c #EBBC51",
"}.	c #E6B753",
"|.	c #E4B655",
"1.	c #EABC51",
"2.	c #F1C351",
"3.	c #F8CB54",
"4.	c #FACF4D",
"5.	c #FECE47",
"6.	c #FAD14B",
"7.	c #F8D34D",
"8.	c #FBDA69",
"9.	c #FAEBB5",
"0.	c #FDF1CB",
"a.	c #FCDE80",
"b.	c #FECF4C",
"c.	c #FBD249",
"d.	c #FDD249",
"e.	c #FBD459",
"f.	c #FDD96B",
"g.	c #FCD773",
"h.	c #FBD763",
"i.	c #F8CF4F",
"j.	c #EDBC54",
"k.	c #D3A255",
"l.	c #B88954",
"m.	c #A6755D",
"n.	c #9D6F5A",
"o.	c #9A6C5A",
"p.	c #9A6B5B",
"q.	c #9D7056",
"r.	c #A87B54",
"s.	c #BB8953",
"t.	c #D4A556",
"u.	c #ECBF52",
"v.	c #FBCF4E",
"w.	c #FBD049",
"x.	c #F9D14F",
"y.	c #F9D348",
"z.	c #F7D54A",
"A.	c #F6D675",
"B.	c #F8E7B5",
"C.	c #EEDDB8",
"D.	c #FADC83",
"E.	c #FCD34F",
"F.	c #FDD346",
"G.	c #FBD659",
"H.	c #FCDC6E",
"I.	c #FBD671",
"J.	c #F9D255",
"K.	c #EBC351",
"L.	c #C79955",
"M.	c #A3734E",
"N.	c #90655A",
"O.	c #8B6365",
"P.	c #8C6362",
"Q.	c #8C6363",
"R.	c #8C6364",
"S.	c #8A645F",
"T.	c #89665C",
"U.	c #8F645F",
"V.	c #A47455",
"W.	c #CC9C52",
"X.	c #F2C456",
"Y.	c #FAD151",
"Z.	c #F8D448",
"`.	c #FBD348",
" +	c #FBD24A",
".+	c #F9D14C",
"++	c #FDCE4D",
"@+	c #F4D475",
"#+	c #E6C46D",
"$+	c #FAD14D",
"%+	c #FED147",
"&+	c #FCD24A",
"*+	c #FBD460",
"=+	c #FDDA6A",
"-+	c #FDD65F",
";+	c #F7D054",
">+	c #DBB157",
",+	c #A57754",
"'+	c #906260",
")+	c #8D6369",
"!+	c #8B6364",
"~+	c #8A6363",
"{+	c #8B6463",
"]+	c #8A6563",
"^+	c #8C6365",
"/+	c #8D6264",
"(+	c #906362",
"_+	c #A77A54",
":+	c #E1B453",
"<+	c #FDCE4E",
"[+	c #FDCF4C",
"}+	c #FCD347",
"|+	c #FBD247",
"1+	c #F9D34A",
"2+	c #FECD46",
"3+	c #FCCD4C",
"4+	c #F7D880",
"5+	c #DFA97B",
"6+	c #FCCD52",
"7+	c #FDD86E",
"8+	c #FAD769",
"9+	c #F9D054",
"0+	c #D3A954",
"a+	c #976A5C",
"b+	c #8D616A",
"c+	c #8A6462",
"d+	c #886560",
"e+	c #8B655C",
"f+	c #8C6360",
"g+	c #8B6368",
"h+	c #8B6366",
"i+	c #8A6369",
"j+	c #8A6464",
"k+	c #896462",
"l+	c #896465",
"m+	c #9A6858",
"n+	c #D9A755",
"o+	c #FED046",
"p+	c #FBD34A",
"q+	c #FAD24C",
"r+	c #FAD35C",
"s+	c #FAE6AB",
"t+	c #F0C858",
"u+	c #F8D446",
"v+	c #FCD863",
"w+	c #F9D25B",
"x+	c #D7AE59",
"y+	c #96695D",
"z+	c #89655D",
"A+	c #8A6463",
"B+	c #8E6165",
"C+	c #8D6265",
"D+	c #8A6461",
"E+	c #8B6363",
"F+	c #8A6364",
"G+	c #8A6367",
"H+	c #8A6366",
"I+	c #8B6461",
"J+	c #8B635E",
"K+	c #946A57",
"L+	c #DAAF5B",
"M+	c #FCD04E",
"N+	c #FECF47",
"O+	c #FCD04B",
"P+	c #FAD249",
"Q+	c #FCDA6C",
"R+	c #E0B785",
"S+	c #FDD250",
"T+	c #FDD148",
"U+	c #FDD04C",
"V+	c #FBD24E",
"W+	c #FCD967",
"X+	c #EBBA5C",
"Y+	c #986C5A",
"Z+	c #8D6362",
"`+	c #8B6464",
" @	c #8B6462",
".@	c #8A6365",
"+@	c #8B6367",
"@@	c #8C6268",
"#@	c #8C6366",
"$@	c #8D6364",
"%@	c #8D6363",
"&@	c #8C6564",
"*@	c #896466",
"=@	c #8A655C",
"-@	c #9B6C53",
";@	c #E9B85A",
">@	c #FBC552",
",@	c #FDC14E",
"'@	c #FAC54F",
")@	c #F9C54B",
"!@	c #FCC648",
"~@	c #FAC55B",
"{@	c #F6D599",
"]@	c #F0C161",
"^@	c #FED146",
"/@	c #FDD149",
"(@	c #FCCF55",
"_@	c #F6CC5B",
":@	c #B18550",
"<@	c #8D6360",
"[@	c #937B7C",
"}@	c #9F9B9B",
"|@	c #906F70",
"1@	c #8D6263",
"2@	c #93797A",
"3@	c #917878",
"4@	c #8E6265",
"5@	c #8B655D",
"6@	c #89636A",
"7@	c #8D616B",
"8@	c #B0815B",
"9@	c #F5BA5B",
"0@	c #FDBB50",
"a@	c #FBBE53",
"b@	c #F9BD51",
"c@	c #FDBB4A",
"d@	c #F6BE5F",
"e@	c #F5CA7E",
"f@	c #DAAE7E",
"g@	c #FBD34F",
"h@	c #FCD049",
"i@	c #FDD246",
"j@	c #FDCE4C",
"k@	c #DDB15D",
"l@	c #8A685A",
"m@	c #998A8A",
"n@	c #A2A2A2",
"o@	c #9E9797",
"p@	c #8C6465",
"q@	c #8E696A",
"r@	c #A09D9D",
"s@	c #968383",
"t@	c #8E6168",
"u@	c #886563",
"v@	c #896469",
"w@	c #8E645D",
"x@	c #DEA863",
"y@	c #FCBA53",
"z@	c #FEBA56",
"A@	c #FDBA56",
"B@	c #FDB84F",
"C@	c #F4BD62",
"D@	c #FCBF64",
"E@	c #E8BD7E",
"F@	c #FCD348",
"G@	c #FDCE52",
"H@	c #FED246",
"I@	c #FBCF52",
"J@	c #B48B54",
"K@	c #896366",
"L@	c #927777",
"M@	c #988788",
"N@	c #9B9091",
"O@	c #A19F9F",
"P@	c #8F6D6E",
"Q@	c #8C6267",
"R@	c #8B6362",
"S@	c #8B645D",
"T@	c #8B645E",
"U@	c #B2845D",
"V@	c #F9BB5A",
"W@	c #FEB959",
"X@	c #FDBA53",
"Y@	c #F7BC56",
"Z@	c #FCBD5D",
"`@	c #F8DDAC",
" #	c #EBBF6B",
".#	c #FCD24D",
"+#	c #FDD053",
"@#	c #FED346",
"##	c #FDD14A",
"$#	c #FBD14B",
"%#	c #EEC858",
"&#	c #946F50",
"*#	c #8D6464",
"=#	c #98898A",
"-#	c #A2A1A1",
";#	c #958080",
">#	c #8C6266",
",#	c #8D6168",
"'#	c #96695A",
")#	c #F0B65C",
"!#	c #FEBB52",
"~#	c #FABC52",
"{#	c #FBBA4B",
"]#	c #F9BC5D",
"^#	c #F8D59D",
"/#	c #F2C55A",
"(#	c #FCD04C",
"_#	c #FDD348",
":#	c #DEB756",
"<#	c #8A6756",
"[#	c #8B645F",
"}#	c #8D6366",
"|#	c #8D6566",
"1#	c #9E9999",
"2#	c #9C9293",
"3#	c #8B6361",
"4#	c #91615D",
"5#	c #E0A759",
"6#	c #FEBA54",
"7#	c #FDBB51",
"8#	c #F9BD52",
"9#	c #FEB84E",
"0#	c #FBB95D",
"a#	c #FAD29B",
"b#	c #F7CB54",
"c#	c #D0A855",
"d#	c #89645E",
"e#	c #8C6464",
"f#	c #907071",
"g#	c #A1A0A0",
"h#	c #A09E9E",
"i#	c #8E6B6C",
"j#	c #8C6462",
"k#	c #8E6162",
"l#	c #D39A58",
"m#	c #FDBA57",
"n#	c #FEBB53",
"o#	c #F7BD58",
"p#	c #FDB852",
"q#	c #FBBB5C",
"r#	c #FBD091",
"s#	c #FACF52",
"t#	c #FBD04C",
"u#	c #CAA057",
"v#	c #8C6265",
"w#	c #9A8C8D",
"x#	c #978787",
"y#	c #8B6264",
"z#	c #CC955F",
"A#	c #FDBB57",
"B#	c #FEBA51",
"C#	c #FEB852",
"D#	c #FABD5A",
"E#	c #FAD18F",
"F#	c #FBCE56",
"G#	c #FDD24A",
"H#	c #C99F58",
"I#	c #896367",
"J#	c #8B6460",
"K#	c #8F6E6F",
"L#	c #CB9561",
"M#	c #FDBC53",
"N#	c #FEBB4D",
"O#	c #FEB74E",
"P#	c #FABD58",
"Q#	c #FAD28E",
"R#	c #F9CD56",
"S#	c #FDD24B",
"T#	c #FDD24C",
"U#	c #FDD546",
"V#	c #FCD250",
"W#	c #CEA459",
"X#	c #89655F",
"Y#	c #9D9696",
"Z#	c #9C9494",
"`#	c #8C6463",
" $	c #CB9B60",
".$	c #FCBB50",
"+$	c #FEB854",
"@$	c #FEBA4B",
"#$	c #F9BD5B",
"$$	c #FDD38C",
"%$	c #F8CC58",
"&$	c #FDD446",
"*$	c #FCCF48",
"=$	c #D8A75F",
"-$	c #8B6360",
";$	c #978585",
">$	c #998B8B",
",$	c #D9A566",
"'$	c #FABC55",
")$	c #FEB954",
"!$	c #FDBB4C",
"~$	c #FABC59",
"{$	c #FDD494",
"]$	c #F3C66A",
"^$	c #FDD447",
"/$	c #FDCF4B",
"($	c #FDC44B",
"_$	c #EBB065",
":$	c #946659",
"<$	c #8B6265",
"[$	c #907172",
"}$	c #A1A1A1",
"|$	c #998C8C",
"1$	c #9A8E8E",
"2$	c #956657",
"3$	c #EDB067",
"4$	c #F7BC59",
"5$	c #FCBB53",
"6$	c #FEB855",
"7$	c #FBBC52",
"8$	c #FCB955",
"9$	c #FCD295",
"0$	c #F1C680",
"a$	c #FCD24B",
"b$	c #FDD14F",
"c$	c #FBCA4B",
"d$	c #FDBA52",
"e$	c #F9BA59",
"f$	c #AC7C54",
"g$	c #8D6266",
"h$	c #8D6767",
"i$	c #8D6768",
"j$	c #9E9899",
"k$	c #AD7E56",
"l$	c #FAB95E",
"m$	c #FAC867",
"n$	c #F9BD53",
"o$	c #FDB758",
"p$	c #F8BD57",
"q$	c #FDD59D",
"r$	c #EDC582",
"s$	c #F9D14D",
"t$	c #FCCE52",
"u$	c #F9C050",
"v$	c #FEB856",
"w$	c #FBBA52",
"x$	c #D1A258",
"y$	c #8E655F",
"z$	c #917575",
"A$	c #958081",
"B$	c #906165",
"C$	c #876564",
"D$	c #8E635E",
"E$	c #D5A162",
"F$	c #F6BC58",
"G$	c #F7BE55",
"H$	c #FBBC54",
"I$	c #F5BD5C",
"J$	c #FBBF64",
"K$	c #F8CF59",
"L$	c #FCC948",
"M$	c #FABD53",
"N$	c #FBBA53",
"O$	c #EFBA5E",
"P$	c #A57756",
"Q$	c #8A6460",
"R$	c #8A645D",
"S$	c #947E7E",
"T$	c #8F6D6D",
"U$	c #8C626A",
"V$	c #906161",
"W$	c #8A6561",
"X$	c #886661",
"Y$	c #A9765C",
"Z$	c #F0C275",
"`$	c #FCD474",
" %	c #FBBD57",
".%	c #FEB953",
"+%	c #F9BB56",
"@%	c #F8C675",
"#%	c #F1CA86",
"$%	c #F9C14F",
"%%	c #FABD51",
"&%	c #FDBA50",
"*%	c #FABB58",
"=%	c #E0A363",
"-%	c #946657",
";%	c #89665B",
">%	c #8F6168",
",%	c #876469",
"'%	c #946559",
")%	c #DDA95F",
"!%	c #F9D87D",
"~%	c #FBD376",
"{%	c #FBBB5B",
"]%	c #FCBB51",
"^%	c #FCCD88",
"/%	c #FBCB56",
"(%	c #F9BE52",
"_%	c #FCBC52",
":%	c #FCBB52",
"<%	c #FDBA4F",
"[%	c #FDBA54",
"}%	c #FCB85E",
"|%	c #CC9261",
"1%	c #966657",
"2%	c #8A6368",
"3%	c #8C6367",
"4%	c #8F645B",
"5%	c #916262",
"6%	c #CB945D",
"7%	c #F7CC69",
"8%	c #FDDB7F",
"9%	c #F5C967",
"0%	c #FDB956",
"a%	c #FABB53",
"b%	c #FDC268",
"c%	c #F4C375",
"d%	c #FCBA52",
"e%	c #FCBC50",
"f%	c #FDBB56",
"g%	c #F9B75A",
"h%	c #C68D5D",
"i%	c #92645A",
"j%	c #8C6264",
"k%	c #8E645F",
"l%	c #C79053",
"m%	c #F7C163",
"n%	c #FCD789",
"o%	c #F8D07A",
"p%	c #F4BF56",
"q%	c #FEB94E",
"r%	c #FDB857",
"s%	c #FBBD5A",
"t%	c #FBCF93",
"u%	c #F5BA62",
"v%	c #FCBB55",
"w%	c #FCBC53",
"x%	c #FDBC50",
"y%	c #FEBA57",
"z%	c #F9B761",
"A%	c #D0945D",
"B%	c #996A57",
"C%	c #876461",
"D%	c #896461",
"E%	c #8C606A",
"F%	c #8E6465",
"G%	c #9A6A5B",
"H%	c #CD9C57",
"I%	c #F4C167",
"J%	c #FCD482",
"K%	c #F9D878",
"L%	c #F5C25E",
"M%	c #FBBC56",
"N%	c #FABB5A",
"O%	c #FAC36D",
"P%	c #F0BE8D",
"Q%	c #FBBA5A",
"R%	c #FEB95B",
"S%	c #FEB95A",
"T%	c #FABB55",
"U%	c #FCBC4D",
"V%	c #F8BB52",
"W%	c #DFA85C",
"X%	c #B58257",
"Y%	c #976459",
"Z%	c #906065",
"`%	c #8C616A",
" &	c #8D635F",
".&	c #886561",
"+&	c #956660",
"@&	c #B48752",
"#&	c #E8A759",
"$&	c #F7C768",
"%&	c #FADA83",
"&&	c #FCD480",
"*&	c #FBC058",
"=&	c #FDBA4E",
"-&	c #FBBB50",
";&	c #F6BD5E",
">&	c #F9C061",
",&	c #FBD49D",
"'&	c #F3BF7E",
")&	c #FEB94F",
"!&	c #FBBC50",
"~&	c #FCB958",
"{&	c #FDB95C",
"]&	c #FCBC56",
"^&	c #F5B852",
"/&	c #DFA458",
"(&	c #C28A5B",
"_&	c #A7755B",
":&	c #956954",
"<&	c #906557",
"[&	c #8F645C",
"}&	c #8F645D",
"|&	c #906559",
"1&	c #956859",
"2&	c #AB775C",
"3&	c #C18D51",
"4&	c #DEA65B",
"5&	c #F1B75E",
"6&	c #F8D480",
"7&	c #FCDA7C",
"8&	c #FDD16C",
"9&	c #F9C05D",
"0&	c #FBBB59",
"a&	c #FABB54",
"b&	c #F8BC56",
"c&	c #FDBA58",
"d&	c #F8D499",
"e&	c #F3BC7B",
"f&	c #FCBB54",
"g&	c #FCBA56",
"h&	c #FEBA53",
"i&	c #F6B857",
"j&	c #EDB15B",
"k&	c #E5AA5E",
"l&	c #DBA258",
"m&	c #D69C5A",
"n&	c #D79D5D",
"o&	c #DAA25A",
"p&	c #E5AB5C",
"q&	c #EEB256",
"r&	c #F4BA57",
"s&	c #FCC76D",
"t&	c #F7C369",
"u&	c #F8CD73",
"v&	c #F8C567",
"w&	c #FABC51",
"x&	c #FCBB4F",
"y&	c #FABB59",
"z&	c #F9BB57",
"A&	c #FBBA5E",
"B&	c #FBD092",
"C&	c #F3BF79",
"D&	c #FABA5A",
"E&	c #FCB957",
"F&	c #FEBB50",
"G&	c #FDBB4E",
"H&	c #FCB954",
"I&	c #FDBB52",
"J&	c #FCBA54",
"K&	c #FCBC54",
"L&	c #FBC461",
"M&	c #F7BE5C",
"N&	c #FBC464",
"O&	c #F8C357",
"P&	c #F9BB55",
"Q&	c #F7BB5B",
"R&	c #F9BD4D",
"S&	c #FDBC4A",
"T&	c #FCBD59",
"U&	c #FDCB8D",
"V&	c #F2BD84",
"W&	c #F9BC54",
"X&	c #FDB85E",
"Y&	c #FEBA52",
"Z&	c #FEBB4F",
"`&	c #FEBA55",
" *	c #FABE58",
".*	c #FABD56",
"+*	c #FABC53",
"@*	c #FEB84B",
"#*	c #FABB50",
"$*	c #F7BB60",
"%*	c #FABA64",
"&*	c #F8C36B",
"**	c #FDD69E",
"=*	c #F0C58C",
"-*	c #F9BA61",
";*	c #FCBA59",
">*	c #FCBA58",
",*	c #FCBB56",
"'*	c #FDBA55",
")*	c #FCBA51",
"!*	c #FDBA51",
"~*	c #F6BC5B",
"{*	c #F6BC5E",
"]*	c #FDC056",
"^*	c #FBC881",
"/*	c #F2C28D",
"(*	c #F5BD5A",
"_*	c #FCB95A",
":*	c #FEB952",
"<*	c #FBBA54",
"[*	c #F8BD59",
"}*	c #F8CC83",
"|*	c #FBD8A4",
"1*	c #F7C590",
"2*	c #F9BE76",
"3*	c #FCBA5D",
"4*	c #FDBA59",
"5*	c #FEB956",
"6*	c #FDB954",
"7*	c #FDBB54",
"8*	c #FBBA59",
"9*	c #F9BB63",
"0*	c #F8C37C",
"a*	c #F5CB93",
"b*	c #F8BF86",
"c*	c #F8B87A",
"d*	c #F9C484",
"e*	c #F9C278",
"f*	c #F8C27A",
"g*	c #F6BD70",
"h*	c #F8C287",
"                                . + @ @ # $ $ %                                 ",
"                        & * = - ; > , ' ) ! ~ { ] ^ / (                         ",
"                    _ : < [ } | 1 2 3 4 5 6 7 8 9 0 a b c d                     ",
"                  e f g h i j k l m n o p q 8 r s 8 t u v w x                   ",
"              y z A B C D E F G H I J K K L M N O s s 8 P 8 Q R S               ",
"            T U V W X Y Z `  ...+.@.#.j j G O H $.%.&.*.=.-.;.W >.,.            ",
"          '.).!.~.{.].^./.(.G _.:.<.[.}.|.1.2.3.4.P #.5.6.~.&.7.C 8.9.          ",
"        0.a.b.c.d.e.f.g.h.i.j.k.l.m.n.o.p.q.r.s.t.u.v.w.x.-.l 6.y.z.A.B.        ",
"      C.D.E.F.G G.H.I.J.K.L.M.N.O.P.Q.R.R.R.S.T.U.V.W.X.Y.Z.`.k  +.+++@+        ",
"      #+$+%+&+*+=+-+;+>+,+'+)+!+~+Q.R.R.R.R.{+]+^+/+(+_+:+<+[+}+|+1+2+3+4+      ",
"    5+6+w.l  .7+8+9+0+a+b+c+d+e+f+g+^+R.R.R.h+i+j+k+l+^+m+n+{.%.o+p+q+~.r+s+    ",
"    t+p+u+7 v+7+w+x+y+j+z+A+f+B+C+D+E+R.R.R.E+F+G+H+I+J+{+K+L+M+&+N+O+P+-.Q+    ",
"  R+S+T+U+V+W+G.X+Y+Z+`+ @.@+@@@#@]+Q.R.R.$@%@&@.@*@O./+=@h+-@;@>@,@'@)@!@~@{@  ",
"  ]@T+^@/@d.(@_@:@<@R.R.R.!+!+R.[@}@|@R.R.1@2@}@3@E+1@4@5@6@7@8@9@0@a@b@c@d@e@  ",
"f@g@h@%+i@i@j@k@l@O.R.R.R.R.R.m@n@n@o@p@R.q@r@n@n@s@%@t@I+u@v@w@x@y@z@A@B@C@D@  ",
"E@F@G@H@4 N I@J@K@O.R.R.R.R.R.L@n@n@n@M@R.N@n@n@O@P@R.^+Q@R@S@T@U@V@W@z@X@Y@Z@`@",
" #.#+#@###$#%#&#*#R.R.R.R.R.R.R.=#n@n@-#m@n@n@n@;#R.R.R.>#,#C+Q@'#)#A@!#~#{#]#^#",
"/#(#%._#N |+:#<#[#}#R.R.R.R.R.R.|#1#n@n@n@n@n@2#R.R.R.R.R.R.R.3#4#5#6#7#8#9#0#a#",
"b#}+%.H N ##c#d#e#}#R.R.R.!+R.R.R.f#g#n@n@n@h#i#R.R.R.R.R.R.R.j#k#l#m#n#o#p#q#r#",
"s#F.%.&.P t#u#*@E+v#R.R.R.R.R.R.R.R.w#n@n@n@x#R.R.R.^+^+R.R.R.I+y#z#A#B#V@C#D#E#",
"F#G#&.s &.#.H#I#J#v#R.R.R.R.R.R.R.K#g#n@n@n@h#i#R.R.O.^+R.R.R.[#~+L#M#N#m#O#P#Q#",
"R#S#T#U#V#`.W#X#X#R.R.R.R.R.R.R.p@Y#n@n@n@n@n@Z#R.R.R.$@R.R.R.`#R@ $.$+$X@@$#$$$",
"%$|+G#&$(#*$=$-$c+R.R.R.R.R.R.R.;$n@n@n@>$n@n@n@s@R.!+R.R.R.R.O.<@,$'$)$)$!$~${$",
"]$^$N %./$($_$:$<$R.R.R.R.R.R.[$}$n@n@|$R.1$n@n@g#f#R.R.R.R.R.O.2$3$4$5$6$7$8$9$",
"0$a$b$6 c$d$e$f$g$R.R.R.R.R.|#1#n@n@}@h$R.i$}@n@n@j$|#R.R.R.R.`+k$l$m$n$o$p$m#q$",
"r$s$t$9 u$v$w$x$y$R@@@@@O.R.p@;$g#-#z$R.R.R.z$-#O@A$R.J#B$>#C$D$E$F$G$H$o$I$J$  ",
"  K$C L$M$)$N$O$P$5@.@Q$R$R.R.R.|@;#R.R.R.R.R.S$T$R.R.U$V$W$X$Y$Z$`$ %6#.%+%@%  ",
"  #%T+$%%%X@&%*%=%-%[#;%Q$R.R.R.R.R.R.R.R.R.R.R.R.R.R.>%Q$,%'%)%!%~%{%B#]%B#^%  ",
"    /%(%_%:%<%[%}%|%1%I+2%3%R.!+!+R.!+!+!+F+!+R.R.R.R.4%.@5%6%7%8%9%0%C#a%b%    ",
"    c%b@d%.$e%f%X@g%h%i%D+A+E+R@Q.R..@.@F+F+O.^+Q.R.R.j%k%l%m%n%o%p%q%r%s%t%    ",
"      u%.$v%w%x%y%_%z%A%B%C%u@D%R@g$3%^+Q.P.Q.f+P.E%F%G%H%I%J%K%L%d$M%N%O%      ",
"      P%Q%R%S%y%x%T%U%V%W%X%Y%Z%`%l+Q.%@Z+ &T@.&v#+&@&#&$&%&&&*&=&-&;&>&,&      ",
"        '&:%)&S%w%!&~&{&]&^&/&(&_&:&<&[&}&|&1&2&3&4&5&6&7&8&9&0&a&b&c&d&        ",
"          e&5$R%f&y@g&c&h&x%7$i&j&k&l&m&n&o&p&q&r&s&t&u&v&w&x&y&z&A&B&          ",
"            C&D&E&F&G&7#W@R%H&I&d$J&n#A@z@6#K&L&M&N&O&P&Q&R&S&A@T&U&            ",
"              V&W&X&S%Y&Z&!#`&`&`&`&`&`&`&`&v% *.*+*:%@*#*$*%*&***              ",
"                =*-*;*>*,*'*`&`&`&`&`&`&`&`&[%)*I&!*I&~*{*]*^*                  ",
"                    /*(*a&_*`&`&`&`&`&`&`&`&6#:*X@<*M%[*}*|*                    ",
"                        1*2*3*4*`&`&5*z@5*5*6*7*8*9*0*a*                        ",
"                                b*c*d*e*e*f*g*h*                                "};
