/* XPM */
static xpm_row_t const singleplayer_active_xpm[] = {
"190 33 82 1",
" 	c #FFB2FF",
".	c #FFB0FF",
"+	c #FFB1FF",
"@	c #FFBBFF",
"#	c #FFC3FF",
"$	c #FFC6FF",
"%	c #FFC4FF",
"&	c #FFC0FF",
"*	c #FFB7FF",
"=	c #FFB3FF",
"-	c #FFBCFF",
";	c #FFC1FF",
">	c #FFB5FF",
",	c #FFB4FF",
"'	c #FFC5FF",
")	c #FFBDFF",
"!	c #FFBFFF",
"~	c #FFB6FF",
"{	c #FFB9FF",
"]	c #FFC7FF",
"^	c #FFBEFF",
"/	c #FFBAFF",
"(	c #FFE4FF",
"_	c #FFF8FF",
":	c #FFFFFF",
"<	c #FFFBFF",
"[	c #FFF0FF",
"}	c #FFD7FF",
"|	c #FFF3FF",
"1	c #FFEAFF",
"2	c #FFB8FF",
"3	c #FFDCFF",
"4	c #FFF2FF",
"5	c #FFCAFF",
"6	c #FFFEFF",
"7	c #FFFAFF",
"8	c #FFD8FF",
"9	c #FFCFFF",
"0	c #FFE9FF",
"a	c #FFF7FF",
"b	c #FFF9FF",
"c	c #FFEFFF",
"d	c #FFFDFF",
"e	c #FFE1FF",
"f	c #FFCEFF",
"g	c #FFE3FF",
"h	c #FFEDFF",
"i	c #FFEBFF",
"j	c #FFE2FF",
"k	c #FFD9FF",
"l	c #FFE0FF",
"m	c #FFFCFF",
"n	c #FFDBFF",
"o	c #FFD5FF",
"p	c #FFDEFF",
"q	c #FFD3FF",
"r	c #FFE8FF",
"s	c #FFE7FF",
"t	c #FFF5FF",
"u	c #FFE6FF",
"v	c #FFF6FF",
"w	c #FFD0FF",
"x	c #FFF4FF",
"y	c #FFD2FF",
"z	c #FFF1FF",
"A	c #FFC8FF",
"B	c #FFEEFF",
"C	c #FFE5FF",
"D	c #FFD6FF",
"E	c #FFC9FF",
"F	c #FFCBFF",
"G	c #FFCDFF",
"H	c #FFD4FF",
"I	c #FFECFF",
"J	c #FFDDFF",
"K	c #FFD1FF",
"L	c #FFAFFF",
"M	c #FFAEFF",
"N	c #FFCCFF",
"O	c #FFDAFF",
"P	c #FFDFFF",
"Q	c #FFC2FF",
"   .......................................................................................................................................................................+       +.+         ",
"                                                                                                                                                                                              ",
"                                                                                                                                                                                              ",
"                                                                                                                                                                                              ",
"                                                                                                                                                                                              ",
"                                                                                                                                                                                              ",
"                                                                                                                                                                                              ",
"                                                                                                                                                                                              ",
"                        +@#$$%&*  *#$&==-$;>     ,$'@    =)#$$$#!~  {'$)      {'$$$$$$]^,      >;]$$$$#^,  *#$&=         -$$;+   ,;$'{     @'$&,-$$$$$$$$/=)]$$$$%&>                          ",
"+                      +;(_::<[}{+$|:12*3:45     -678+ +-90a:::bc8-=9<de      f7:::::::g/     +;h:::::bif~+$|:12        =j6:[@   *(d<k    ,lmd3{n:::::::6o{p:::::b[q/                         ",
"+                      )i:ars|m[;+$|:12*3::1!+   -d78++-j<:tiu0v6mw=9<dl      f76xuuuuuy*     +;h:b0u1a:vw $|:12        {4::7}+   #|6z)  +Ax:B2~n:mcCuuu(A2p:mBC0t6mn=                        ",
"+                     +o7dD, E8f++$|:12*3::dj@+  -d78.*p<6CF/.*Glj& 9<dl      f7de+....+      +;h:B-.2Hb:I^'|:12        y<m|6s>    8mmJ+ 2(6<G,~n:_KL....+*p:afM*Nv6t@                        ",
"+                     .367%+ +.+ +$|:12*3:::<O*  -d78.Ft:[^+   +*{= 9<dl      f7dj=           +;h:c^  {s:tN'|:12       +idz}:x5+   -c6x%.Nv:g{ ~n:_y+     *p:a9+ +r675                        ",
"+                     .nd60K{+   +$|:12*3:_v:aN, -d78Ln66K,         9<dl      f7dj++++        +;h:c^  2l:af'|:12       Ead3#amn.   =F7me^C:v]= ~n:_KL+++  *p:a9+  16a^                        ",
"+                     +Nt:6_cP'  +$|:12*3:zpv:[#=-d782u:b#          9<dl      f76_hhh0A+      +;h:c^  -B:|]'|:12      +em_!/(:I!+   ~j:|jb6}>  ~n:dxhhhC{ *p:a9.@nb60=                        ",
"+                      ~}v6::m|D++$|:12*3:[$n<60/-d7}^i:aQ   !i44|n{9<dl      f7::66679+      +;h:c!,!gm6j,$|:12      -[6s~=FdbK+   =Qtd7:i&+  ~n:::666x- *p:dv4x<6c&                         ",
"+                       ~QJcm6:|F.$|:12*3:[#>(ddp&d78@0:aQ   ;xd6:g/9<dl      f7du!!!^~       +;h:d_a_mdc'.$|:12     +ob6N2~%[:j2    ~Dd:7y    ~n:bk^!!)= *p::dd::l^                          ",
"+                        =~2$h:mO.$|:12*3:[%+@I6<8678.J:dA   =2'I:g/9<dl      f7dj=           +;h:677bzp)=+$|:12      (6:<77<6:xA+    ;4:h;+   ~n:_y+     *p:_qN|:t^                          ",
"+                      >~=  =%:mn.$|:12*3:[%+ $|6<:78LK_:r)    ^1:g/9<dl      f7dj=           +;h:c;~~~,  +$|:12    +5x:_vvvv_ddH=    !c:I&+   ~n:_y+     *p:a9+}b6r{                         ",
"+                      FO$* *K:aw.$|:12*3:[%+  y_::78.{u6d3&>+,$h:g/9<dl++++  f7dj ++++       +;h:c^      +$|:1*++++ nm<Q====&i:I!    !c:I&+   ~n:_K.++++ *p:a9+*16mH                         ",
"+                     2C:x3fkx6r{+$|:12*3:[%+  =Jm:78++]IddB}Fqi7:e{9<d0FFFN$*f76iNFFFN;,     +;h:c^      +$|:[9FFNAAI:c)    =k:7N=   !c:I&+   ~n:7lFFFFF-2p:a9+ Ev6x;                        ",
"+                     -Oz7:::71$++$x:i2*J:z%+   ,(d<8+ +%j|<:::6_BG>wm::::::|#f<:::::::(/     +;B:c^      +$x::::::_Ib:O*    +Fv:j{   ![:I&+   ~3::::::::o{p:_9+  O<61-                       ",
"+                      =$DPepo&+  )keq>>Fe}-     /nJA+  +>E}Pel3y!= #peeeeee8@QJeeeeeee9~      /oeD{       )keeeeeen}Pp)      @De}{   {}eH/    ,5eeeeeeeP$~Nen#+  *Oe3&                       ",
"+                       +....++    ..+  +..       ..+     +.....++  +........ +........+        +..         ...........        ...     ..+      +........+ +..+    ...+                       ",
"+                                                                                                                                                                                             ",
"+                                                                                                                                                                                             ",
"+                                                                                                                                                                                             ",
"+                                                                                                                                                                                             ",
"                                                                                                                                                                                              ",
"                                                                                                                                                                                              ",
"                                                                                                                                                                                              ",
"                                                                                                                                                                                              ",
"                                                                                                                                                                                              "};
