/* XPM */
static xpm_row_t const cursor_temp_xpm[] = {
"30 30 312 2",
"  	c None",
". 	c #C72209",
"+ 	c #C72705",
"@ 	c #BC1608",
"# 	c #C20905",
"$ 	c #D73C02",
"% 	c #BC1E05",
"& 	c #CE1005",
"* 	c #DA1401",
"= 	c #BF1105",
"- 	c #DA5B00",
"; 	c #E53D00",
"> 	c #DE0B01",
", 	c #D32B00",
"' 	c #C11808",
") 	c #BE3714",
"! 	c #C71F1B",
"~ 	c #C7260E",
"{ 	c #DA5401",
"] 	c #F49A00",
"^ 	c #E05700",
"/ 	c #E01B01",
"( 	c #CA1600",
"_ 	c #BB0F04",
": 	c #C23602",
"< 	c #ECA100",
"[ 	c #DB6200",
"} 	c #DF5600",
"| 	c #F59800",
"1 	c #F18700",
"2 	c #EC8800",
"3 	c #D64100",
"4 	c #C32302",
"5 	c #BB1A08",
"6 	c #D86202",
"7 	c #E37100",
"8 	c #DC5900",
"9 	c #FA9200",
"0 	c #EF8700",
"a 	c #EE9700",
"b 	c #FABA00",
"c 	c #E79900",
"d 	c #D23700",
"e 	c #C82902",
"f 	c #B91611",
"g 	c #CA2203",
"h 	c #DA5E00",
"i 	c #F79700",
"j 	c #ED8400",
"k 	c #ED9800",
"l 	c #F9C100",
"m 	c #FAD000",
"n 	c #DD8400",
"o 	c #E22100",
"p 	c #E91F02",
"q 	c #CD2101",
"r 	c #C22103",
"s 	c #DB6502",
"t 	c #FB9200",
"u 	c #F08700",
"v 	c #F4BA00",
"w 	c #F8C300",
"x 	c #FED000",
"y 	c #F9BB00",
"z 	c #FDB500",
"A 	c #E26E00",
"B 	c #E71A01",
"C 	c #F01C01",
"D 	c #D12103",
"E 	c #D93D03",
"F 	c #D95901",
"G 	c #FA9700",
"H 	c #F08800",
"I 	c #ED9B00",
"J 	c #F9BA00",
"K 	c #F6C200",
"L 	c #F6CD00",
"M 	c #F7BE00",
"N 	c #FEB800",
"O 	c #FBA700",
"P 	c #FC9B00",
"Q 	c #E76600",
"R 	c #E61902",
"S 	c #EE2000",
"T 	c #CB2100",
"U 	c #BC1914",
"V 	c #DA5802",
"W 	c #FA9400",
"X 	c #EE8700",
"Y 	c #EC9200",
"Z 	c #F8BB00",
"` 	c #F9C000",
" .	c #FED100",
"..	c #F6BE00",
"+.	c #FBA500",
"@.	c #FE9B00",
"#.	c #FD9A00",
"$.	c #FC9800",
"%.	c #E97A00",
"&.	c #DB2704",
"*.	c #CE1A00",
"=.	c #D11501",
"-.	c #D21701",
";.	c #B60B05",
">.	c #D85003",
",.	c #F79900",
"'.	c #F18600",
").	c #EF9000",
"!.	c #D25101",
"~.	c #F0AD00",
"{.	c #FDD000",
"].	c #F8BE00",
"^.	c #FDB600",
"/.	c #FAA500",
"(.	c #F89C00",
"_.	c #FE9900",
":.	c #FD9B00",
"<.	c #FCA600",
"[.	c #F5AB00",
"}.	c #D74701",
"|.	c #D42002",
"1.	c #E11601",
"2.	c #BA0806",
"3.	c #D41305",
"4.	c #E06501",
"5.	c #F08600",
"6.	c #EB9B00",
"7.	c #D34F01",
"8.	c #E08A00",
"9.	c #F9BC00",
"0.	c #F6A700",
"a.	c #DB6300",
"b.	c #F99700",
"c.	c #FD9700",
"d.	c #FCA900",
"e.	c #F9B900",
"f.	c #EB9400",
"g.	c #F18A00",
"h.	c #ED8100",
"i.	c #C01C03",
"j.	c #E31800",
"k.	c #DA3801",
"l.	c #ED9900",
"m.	c #F9B600",
"n.	c #DE7C00",
"o.	c #D75900",
"p.	c #F8B400",
"q.	c #CB4104",
"r.	c #DB4300",
"s.	c #D44802",
"t.	c #E35B01",
"u.	c #F79300",
"v.	c #F7AD00",
"w.	c #FBB800",
"x.	c #EA9500",
"y.	c #EF8900",
"z.	c #F18C00",
"A.	c #CC2E0F",
"B.	c #CA0802",
"C.	c #D01601",
"D.	c #EF9900",
"E.	c #FABE00",
"F.	c #F9D000",
"G.	c #F0B100",
"H.	c #C72101",
"I.	c #D63F01",
"J.	c #D64101",
"K.	c #DC5B00",
"L.	c #CF1508",
"M.	c #E90105",
"N.	c #D74F01",
"O.	c #FAB400",
"P.	c #E89100",
"Q.	c #F18900",
"R.	c #F08C00",
"S.	c #C82C02",
"T.	c #BF0705",
"U.	c #CF3F00",
"V.	c #EFBD00",
"W.	c #FABD00",
"X.	c #DE5A00",
"Y.	c #CC1F02",
"Z.	c #F68800",
"`.	c #D03E01",
" +	c #D63501",
".+	c #E60101",
"++	c #DC0803",
"@+	c #DC6F00",
"#+	c #F18800",
"$+	c #F08D01",
"%+	c #D25002",
"&+	c #D65900",
"*+	c #C81802",
"=+	c #CD5400",
"-+	c #F5B300",
";+	c #FCA700",
">+	c #F99200",
",+	c #F28900",
"'+	c #ED7D00",
")+	c #C81C08",
"!+	c #DE0A02",
"~+	c #E40600",
"{+	c #F10406",
"]+	c #E46A01",
"^+	c #F28400",
"/+	c #D44904",
"(+	c #E58B02",
"_+	c #C72D04",
":+	c #B6090E",
"<+	c #CE1C06",
"[+	c #D64F00",
"}+	c #FA8F00",
"|+	c #FB9700",
"1+	c #DE5800",
"2+	c #CA3407",
"3+	c #EA0201",
"4+	c #E70201",
"5+	c #E40803",
"6+	c #E76500",
"7+	c #D54001",
"8+	c #E98100",
"9+	c #D62703",
"0+	c #D83800",
"a+	c #BB080F",
"b+	c #B22107",
"c+	c #DC1805",
"d+	c #F11100",
"e+	c #DB4400",
"f+	c #F68F00",
"g+	c #F79D00",
"h+	c #FDA400",
"i+	c #F7B300",
"j+	c #DC5400",
"k+	c #D83A01",
"l+	c #DA4D00",
"m+	c #CA3108",
"n+	c #BF2410",
"o+	c #BF1A01",
"p+	c #DB1C01",
"q+	c #F11F00",
"r+	c #D62101",
"s+	c #B0080E",
"t+	c #C02302",
"u+	c #D81401",
"v+	c #EE1200",
"w+	c #DB3701",
"x+	c #F48A00",
"y+	c #F4BB00",
"z+	c #EE8A00",
"A+	c #F18D00",
"B+	c #C9390A",
"C+	c #BA260C",
"D+	c #E02303",
"E+	c #ED2300",
"F+	c #E32B02",
"G+	c #B61909",
"H+	c #D20D02",
"I+	c #F22402",
"J+	c #D72501",
"K+	c #D45C00",
"L+	c #E86B00",
"M+	c #F08000",
"N+	c #C7300D",
"O+	c #BA0B14",
"P+	c #DE1800",
"Q+	c #FA1800",
"R+	c #D83001",
"S+	c #B10A04",
"T+	c #BA0F04",
"U+	c #D41901",
"V+	c #EA0E00",
"W+	c #DE1001",
"X+	c #BA070F",
"Y+	c #BB0905",
"Z+	c #DB1301",
"`+	c #F41900",
" @	c #D32800",
".@	c #B20C03",
"+@	c #C21D01",
"@@	c #BC1805",
"#@	c #C40907",
"$@	c #DB1601",
"%@	c #EF1900",
"&@	c #E32904",
"*@	c #B21D06",
"=@	c #BC0515",
"-@	c #DF1901",
";@	c #F51300",
">@	c #DE2901",
",@	c #AF070D",
"'@	c #C0120D",
")@	c #DE2202",
"!@	c #F51100",
"~@	c #B01E01",
"{@	c #BE150E",
"]@	c #E11D00",
"^@	c #F11800",
"/@	c #D82D05",
"(@	c #BA1A03",
"_@	c #B51009",
":@	c #E61804",
"<@	c #ED1B00",
"[@	c #DB2F06",
"}@	c #BA2B14",
"|@	c #C3170C",
"1@	c #E41A02",
"2@	c #F01C00",
"3@	c #C41706",
"4@	c #B91407",
"5@	c #E51E01",
"6@	c #DB0D04",
"7@	c #BA4110",
"                          . + @                             ",
"                        #       $ %                         ",
"                      & *           =                       ",
"                    - ; > ,           '                     ",
"            ) ! ~ { ] ^ / (             _                   ",
"          : < [ } | 1 2 3   4             5                 ",
"          6 7 8 9 0 a b c d   e             f               ",
"          g h i j k b l m n o p q           r               ",
"          s t u k v w x y z A B C D         E               ",
"        F G H I J K L M N O P Q R S T         U             ",
"      V W X Y Z `  ...v +.@.#.$.%.&.  *.=.-.;.              ",
"    >.,.'.).!.~.{.].^./.(.$._.:.<.[.}.|.1.2.                ",
"  3.4.5.6.Z 7.8.9.0.a.b.G ,.c.d.e.f.g.h.i.                  ",
"  j.k.l.m.l n.o.p.q.r.s.t.u.v.w.x.y.z.A.                    ",
"  B.C.D.E.F.G.H.I.J.K.L.M.N.O.P.Q.R.S.                      ",
"  T.  U.V.W.b X.Y.Z.`. +.+++@+#+$+%+&+                      ",
"    *+  =+-+;+>+,+'+)+!+~+{+]+^+/+(+_+:+                    ",
"      <+  [+}+#.|+1+2+3+4+5+6+7+8+9+  0+a+                  ",
"      b+c+d+e+f+g+h+i+j+k+l+m+n+o+p+q+  r+s+                ",
"        t+u+v+w+x+y+f.z+A+B+      C+D+E+  F+G+              ",
"            H+I+J+K+L+M+N+          O+P+Q+  R+S+            ",
"              T+U+V+W+X+              Y+Z+`+   @.@          ",
"                  +@@@                  #@$@%@  &@*@        ",
"                                          =@-@;@  >@,@      ",
"                                            '@)@!@  J+~@    ",
"                                              {@]@^@  /@(@  ",
"                                                _@:@<@  [@}@",
"                                                  |@1@2@  3@",
"                                                    4@5@6@7@",
"                                                            "};
