/* XPM */
static xpm_row_t const cursor_xpm[] = {
"47 38 286 2",
"  	c None",
". 	c #102800",
"+ 	c #163600",
"@ 	c #1D4700",
"# 	c #245601",
"$ 	c #2E6A02",
"% 	c #317502",
"& 	c #378402",
"* 	c #3B8A03",
"= 	c #3F9303",
"- 	c #0C1E00",
"; 	c #132E00",
"> 	c #1C4100",
", 	c #235201",
"' 	c #48AB01",
") 	c #4CB501",
"! 	c #449F02",
"~ 	c #3D9002",
"{ 	c #3C8D03",
"] 	c #3D8F02",
"^ 	c #3D8D02",
"/ 	c #3C8C03",
"( 	c #3E8E03",
"_ 	c #1F4900",
": 	c #3C8A04",
"< 	c #61EC00",
"[ 	c #6BFF01",
"} 	c #6CFF02",
"| 	c #68F901",
"1 	c #65EF01",
"2 	c #60E502",
"3 	c #5CD902",
"4 	c #57CD03",
"5 	c #50BF02",
"6 	c #4AAD02",
"7 	c #419A02",
"8 	c #3E9103",
"9 	c #3B8903",
"0 	c #3B8B03",
"a 	c #3E9003",
"b 	c #193A00",
"c 	c #204E00",
"d 	c #368001",
"e 	c #61E701",
"f 	c #6BFE01",
"g 	c #6AFD02",
"h 	c #6DFF03",
"i 	c #69F902",
"j 	c #63EE02",
"k 	c #5FE102",
"l 	c #58D103",
"m 	c #51C103",
"n 	c #4AAC03",
"o 	c #3F9403",
"p 	c #398603",
"q 	c #3B8803",
"r 	c #224F00",
"s 	c #2B6402",
"t 	c #49AC04",
"u 	c #65F401",
"v 	c #6AFB03",
"w 	c #68F304",
"x 	c #68F504",
"y 	c #6AF803",
"z 	c #6CFE02",
"A 	c #69FC02",
"B 	c #66F202",
"C 	c #60E602",
"D 	c #5CD802",
"E 	c #54C503",
"F 	c #4DB302",
"G 	c #429B03",
"H 	c #388503",
"I 	c #388003",
"J 	c #388103",
"K 	c #347C02",
"L 	c #347902",
"M 	c #235401",
"N 	c #2A6201",
"O 	c #347802",
"P 	c #55C407",
"Q 	c #62E802",
"R 	c #68FB01",
"S 	c #6AFC03",
"T 	c #6CFF04",
"U 	c #6BFA04",
"V 	c #67F303",
"W 	c #67F603",
"X 	c #6AF903",
"Y 	c #6BFE03",
"Z 	c #69F602",
"` 	c #5CDA02",
" .	c #57CB03",
"..	c #4AB202",
"+.	c #409702",
"@.	c #347B02",
"#.	c #306F02",
"$.	c #2A6102",
"%.	c #235001",
"&.	c #1A3F01",
"*.	c #275E01",
"=.	c #317302",
"-.	c #3E9302",
";.	c #5DD903",
">.	c #60E302",
",.	c #64ED03",
"'.	c #6AFD03",
").	c #67F403",
"!.	c #67F503",
"~.	c #69F702",
"{.	c #62E901",
"].	c #5BD701",
"^.	c #56CD01",
"/.	c #173601",
"(.	c #2C6801",
"_.	c #4DB104",
":.	c #5DDF02",
"<.	c #5FDF04",
"[.	c #62E404",
"}.	c #6BFB04",
"|.	c #6CFF05",
"1.	c #67F103",
"2.	c #66F502",
"3.	c #69FA02",
"4.	c #1A3D01",
"5.	c #122A00",
"6.	c #2A6501",
"7.	c #2F6E01",
"8.	c #378102",
"9.	c #58CA07",
"0.	c #5EE003",
"a.	c #61E503",
"b.	c #60DE05",
"c.	c #64EF03",
"d.	c #63EC02",
"e.	c #64F200",
"f.	c #307401",
"g.	c #1A3E01",
"h.	c #295F01",
"i.	c #2F6F01",
"j.	c #3C8F01",
"k.	c #5DDA01",
"l.	c #5FE002",
"m.	c #5EDC04",
"n.	c #63E803",
"o.	c #63E903",
"p.	c #69F802",
"q.	c #6BFC04",
"r.	c #69FB02",
"s.	c #51C102",
"t.	c #2B6502",
"u.	c #275D01",
"v.	c #4BAD06",
"w.	c #5DDC02",
"x.	c #5EDD03",
"y.	c #64EB03",
"z.	c #64EA03",
"A.	c #44A002",
"B.	c #317102",
"C.	c #2B6302",
"D.	c #245701",
"E.	c #58C807",
"F.	c #5DDE02",
"G.	c #5EDC03",
"H.	c #6BFD04",
"I.	c #6AFA03",
"J.	c #57CF02",
"K.	c #3A8A02",
"L.	c #235101",
"M.	c #2A6401",
"N.	c #398801",
"O.	c #62E702",
"P.	c #67F003",
"Q.	c #3B8703",
"R.	c #347702",
"S.	c #245501",
"T.	c #2B6702",
"U.	c #4BAC06",
"V.	c #5DDB02",
"W.	c #60E402",
"X.	c #61E703",
"Y.	c #65EB04",
"Z.	c #67F203",
"`.	c #6BFE04",
" +	c #58CF03",
".+	c #265801",
"++	c #57C706",
"@+	c #5DDA03",
"#+	c #62E804",
"$+	c #64EC03",
"%+	c #66F402",
"&+	c #4BAD04",
"*+	c #2E6B02",
"=+	c #214E01",
"-+	c #3A8802",
";+	c #5AD602",
">+	c #60E202",
",+	c #61E603",
"'+	c #64EE03",
")+	c #5BD703",
"!+	c #419603",
"~+	c #378302",
"{+	c #317202",
"]+	c #4BAE06",
"^+	c #5DDB03",
"/+	c #61E403",
"(+	c #51BD03",
"_+	c #377E02",
":+	c #2E6E02",
"<+	c #2D6802",
"[+	c #57CA06",
"}+	c #5EDA04",
"|+	c #60E103",
"1+	c #5AD203",
"2+	c #2A6002",
"3+	c #3B8C02",
"4+	c #60E203",
"5+	c #5DDD02",
"6+	c #479F05",
"7+	c #347A02",
"8+	c #4DB205",
"9+	c #61E303",
"0+	c #5AD502",
"a+	c #3E8E05",
"b+	c #2D6D01",
"c+	c #2C6701",
"d+	c #265B01",
"e+	c #307301",
"f+	c #59CD05",
"g+	c #5BD901",
"h+	c #368201",
"i+	c #235301",
"j+	c #59D202",
"k+	c #275C01",
"l+	c #4DB505",
"m+	c #52C203",
"n+	c #337601",
"o+	c #59CE05",
"p+	c #4CB404",
"q+	c #2A6202",
"r+	c #409502",
"s+	c #59D004",
"t+	c #48A704",
"u+	c #4EB606",
"v+	c #5CD804",
"w+	c #58CF04",
"x+	c #439E01",
"y+	c #265901",
"z+	c #337801",
"A+	c #58D003",
"B+	c #5BD604",
"C+	c #57CE03",
"D+	c #3F9501",
"E+	c #5AD503",
"F+	c #59D102",
"G+	c #59D401",
"H+	c #4DB405",
"I+	c #59CC07",
"J+	c #55CC01",
"K+	c #214F01",
"L+	c #2D6C01",
"M+	c #55C903",
"N+	c #58D101",
"O+	c #58D001",
"P+	c #4FBB01",
"Q+	c #204C01",
"R+	c #204D01",
"S+	c #3A8B01",
"T+	c #48AF00",
"U+	c #204901",
"V+	c #1E4801",
"W+	c #1D4301",
"X+	c #1D4701",
"Y+	c #4EB703",
"Z+	c #55C901",
"`+	c #47A900",
" @	c #173801",
".@	c #225000",
"+@	c #2B5C09",
"@@	c #143001",
"#@	c #122B00",
"$@	c #132C00",
"%@	c #0F2400",
"&@	c #0D1F00",
"*@	c #0C1D00",
"=@	c #0C1B00",
"                                                                                              ",
"      . + @ # $ % & * =                                                                       ",
"    - ; > , ' ) ! ~ { ] ] ^ / * ( { =                                                         ",
"      + _ : < [ [ } | 1 2 3 4 5 6 7 8 { 9 0 * { a                                             ",
"      b c d e f f g } h h h h h h h i j k l m n o ( * p * q 0 /                               ",
"        r s t u } } g h h v w x y z h h h h h h A B C D E F G ( * H I J K L                   ",
"        M N O P Q R } h S h h T T T T T U V W X Y h h h h h h Z Q `  ...+.@.#.$.%.&.          ",
"          *.=.-.;.>.,.f h '.S T T T T T T T T T T T S ).!.X Y h h h h h } ~.{.].^.# /.        ",
"            (.K _.:.<.[.i h h }.T T T T |.|.|.|.|.|.|.T T T T T T X 1.2.3.} } } [ d 4.5.      ",
"            6.7.8.9.0.a.b.c.g h Y }.T T |.|.|.|.|.|.|.|.|.|.|.T T T T h h d.} } e.f.g.        ",
"              h.i.j.k.l.m.n.o.p.h h q.T T |.|.|.|.|.|.|.|.|.|.|.T T T h i } r.s.t.%.          ",
"                u.i.v.w.x.a.n.y.c.A h T }.T T |.|.|.|.|.|.|.|.|.T T y z h z.A.B.C.            ",
"                D.h.f.E.F.G.C n.y.n.2.z h H.q.T |.|.|.|.|.|.|.T T I.h '.J.K.O #.              ",
"                  L.M.N.D :.>.O.o.y.y.,.3.h h }.T T |.|.|.T T I.'.h P.F Q.R.R.                ",
"                    S.T.U.V.G.W.X.o.z.Y.X.Z.g h `.U T T T T X h h  ++.I B.                    ",
"                    %..+7.++w.@+a.X.o.y.y.#+$+~.Y h S T }.A h %+&+9 L *+                      ",
"                      =+*.-+;+F.>+,+n.z.y.y.y.X.'+3.h h h h )+!+~+{+T.                        ",
"                        , s ]+` ^+/+,+o.y.y.y.z.[.n.B f } (+^ _+:+<+                          ",
"                        %..+i.[+V.}+/+n.o.y.z.o.n.,+|+d.1+-+L $                               ",
"                          %.2+3+;+w.4+a.n.z.z.o.n.W.;+5+6+7+*+                                ",
"                            M T.8+` ^+9+X.o.z.o.X.W.0+V.a+b+c+                                ",
"                            # d+e+f+w.}+a.X.o.n.,+9+g+3 h+M.h.                                ",
"                              i+$.~ D 5+4+,+X.X.a.|+F.j+#.k+                                  ",
"                                S.<+l+` ^+9+a.,+/+k w.m+$ S.                                  ",
"                                D.k+n+o+w.}+9+/+9+V.V.p+t.i+                                  ",
"                                  S.q+r+D w.l.|+k s+` t+q+S.                                  ",
"                                    # <+u+` v+F.F.w+D x+h.y+                                  ",
"                                    .+u.z+A+3 B+V.C+;+K.d+                                    ",
"                                      S.q+D+0+E+D F+G+e+#                                     ",
"                                        S.C.H+G+I+G+J+*.K+                                    ",
"                                        # # L+M+N+O+P+S.Q+                                    ",
"                                          R+L.S+^.J+T+U+V+                                    ",
"                                            W+X+Y+Z+`+4.                                      ",
"                                               @.@+@W+@@                                      ",
"                                                #@$@. %@                                      ",
"                                                &@*@=@                                        ",
"                                                                                              ",
"                                                                                              "};
