/* XPM */
static xpm_row_t const enter_score_xpm[] = {
"600 24 2 1",
" 	c None",
".	c #000000",
"                                                                                                                                                                                                                                                                                                                                                                                                                                                                                                                                                                                                                        ",
"                                               .....      ......                                                                                                                                                                                                                                                                                                    .....                                                                                                                                                                                                                                               ",
"        ........      .......     .......... .........   ........           ...............  ..... ............. ..........   ........           ............   .......           .............   ...............   ....            ........   .........     .........    ..... ......  .....   ........        .......   ....   ........   .....  .....          .........    .......     ........       .......     .........        .............  .......           .....       ..........   ........   .........      ..........   ........     .........     .......        .......      ........    .........    ",
"      ......  ...  ......  .... ........  .....     ......     ....       .......  .... ....... ...........   .........  .........  ...        ..........  .......  ....        ..........   .........  .....  ... ......           ...  ..........  .....  .....  .....  .. ..... ....... ........  ....       ...  ... ...... ....  ....  .............        ...     ... ....  ....   ....  ....   ......  .... .......  ...     ..........   ....... .....         .. ....   ........  ..  ...  ...........  .....  ........  ......... ....  ......  ....   .... .....     ...  .....  ......  ... .....  .....   ",
"     ...        ......       .....         ...       ....        ..      ...        ..    ....   ...           ...        ....        ..      ...           ....       ..       ..            ....       ...    .....   ..         ..       ....        ......        .....    ...    ...    ....      ...      ..    .....   ....      .....   ....    ..      ...        ....       .. ...      ... ....       .....        ..     ..            ....      ...       ..    ..  ...         .. ..       ...         ......         ....       ......         .....       ...   ..       .. ...       .....        ...  ",
"    ..          ....          ...         ...         ..          ..     ..         ...    ...   ...          ...         ...         ...     ..             ..         ..      ..            ...         ...    ...     ..       ...       ...          ....          ....    ...     ..    ...        ...     ..    ....    ...        ....    ...    ..     ...         ...         ....        .....          ...          ..    .             ...        ..       ..     .. ..          ....        ...          ....          ..          ...            ...         ..  ...       ....          ...          ... ",
"    ..           ..           ...         ...        ...          ..     ..        ....    ..    ...          ...         ..           ..     ..            ...         ..      ..            ..           ..    ...    ..        ..        ...           ...           ...    ...     ..    ..          ..     ..     ..     ..          ..     ..     ..     ..          ..          ...          ...           ...          ..    ..           ...          ..      ..     .. ..          ....        ..            ...          ..           ..            ...         ..  ..        ....           ..           .. ",
"   ..            ..            ..      ......    .   ...          ..    ..       ......     .    ...        .....     ......           ..      ..        ......    .    ..      ...        .....           ..    ..     ..       ..         ..            ..            ..    ...      .    ...     .    ..     ..     ..    ...     .    ..     ..     ..    ..      .   ...     .    ..      .    ...           ...      ......    ..        ......          ..     ..     .. ..       .......         ..            ...      ......           ..      ..    ..     .     ....         ...           ...           .. ",
"   ..     ...    ..     ..    ...    .......    .   ....    .     ..    ..     .......      .    .....     .....     ......     ...     .      .....     .....    ..     .       ....     .....     ...    ..    .     ...       ..         ..     ...    ..     ...    ..    ...      .    ...    ..    ..      ..    .     ..     ..    ..     ..     ..    ..     ..   ...    ..   ...     ..    ..      ..    ...    .......      ....     .....     .     ..     ..     .. ..     .........         ..     ...    ..      ......     ...    ..     ..    ...     .     ....         ...     ...   ...    ...     ..",
"   ..     ..    ...    ...    ...    .....     ..   ....   ..    ..     ..     ......            .....     ....     .......     ..     ..       ...     .....     ..    ..        ...     .. ..     ..     ..          ..       ..          ..     ...    ...    ...    ...   ...      .   ...     ..    ..      ..         ...    ...   ...    ..     ..     ..     .   ....    ..   ...    ...    ..     ...    ...    ....          ...     ....     ..     ..     ..    ..  ..     ....  ..          ..     ...    ..     .......     ..     ..     .     ...    ..     ...          ...     ..    ...    ...     ..",
"   ..    ..     ...    .      ..       ...     ..   ....   ..    ..    ..        ...             .. ..     ....       .....     .      ..        ..     ....     ...    ..         ..     .. .     ..      ..         ..       ...    .     ..     ...    ...    ...    ...   ..           ...    ...    ..      ..         ..     ...   ...    ..     ..     .     ..   ....   ...   ...    ...    ..     .     ...       ..          ..     ....      ..     ..    ..     ..  ..       ......    .     ..    ....    ..       ....     ..     ...          ....   ...     ...     .    ..     ..     ...    ...     ..",
"  ..            ..           ...        ..      ..  ...    ..    ..    ..         ..             ....     .. ..        ...            ...        ..     ....     ...    ..        ..     .. ..            ....       ...       ..     .    ...    ....   ...    ....   ...   ...          ....    ....  ...      ..        ...     ..    ...    ..     ..     ..     ..  ...    ........    ...     ..           ...        ..         ..     ....     ...     ..    ..     .. ..         ....     .    ...    ...     ..        ...            ..           ...    ...     ..     ..    ..            ..    ....     . ",
"  ..           ...          ...         ...      ......     ... ..     ..         ..            .. ..     .. ..         ..           ...        ..     .....    ...     ..        ..     .. ..           .....       ..       ...    ..    ...    ...    ...    ...    ...   ...          ...          ...       ..       ...     ...    ...   ...    ..      ..      ......   ..  .....    ...    ...          ...         ..         ..     ....     ...    ..     ..     .  ..         ...     ..    ...    ...    ...        ...           ...          ...     ...    ...     ..    ..           ...    ...     .. ",
"  ..          ...          ....         ....      .....       ....     ..         ..            .. ..     ....          ..          ...         ..     ....     ...     ..        ..     .. ..         .... ..      ..        ..           ...    ..     ...    ..     ...   ..           ...           ..        ..      ...     ...   ....   ..     ..      ...      ....    .. .....     ...    ..          ....         ..         ..    .....     ...    ..     ..    ..  ..         ...           ...    ..     ...        ...         .....           ..    ...     ..            ..         ....     ...     .. ",
"  ..        .....        ......      ........      .....       ..     ..       .....            .. ..    .. ..      ......        ....          ..     ....     ...     .         ..    ..  .         ...   ..     ...       ...           ...   ...     ..    ...     ..    ..    .      ...   .       ..        ..     ....     ..    ...    ..     ..    ......      ...    ........     ..     ..        .....       .....        ..     .. ..    ...     ..    ..     ......      .....            ..    ..      ..      .....         .....     ..     ..    ...    ...            ..        .....    ...     ... ",
"  ..      .......         ....     ......  ...    ........      ..    ..     ......     .      .. ..     .. ..    .......         ...           ..    .....     ..     ..        ..     .. ..         ...   ..     ..        ..            ...   ..      ..    ..     ...   ...    .      ...   ..      ..       ..     .....     ..    ...    .     ..     ..  ...     ...    ...  ...    ...     ..         ....     ......         ..     .. ..    ...     ..    ..     .....     .......           ...    .      ...    .......         .....     ..     ..    ..     ..            ...        .....    ..      ..  ",
" ..     ....  ..           ...        ...    ..   .. .   ..     ..    ..        ...    ..      .. ..     .. ..        ...          ...         ..     .. ..     ..     ..        ..     .. ..          ...  ..    ..        ..            ....          ..            ..    ...    .      ..    ..      ..       ..     .. ..     .     ..    ..     ..    ..     ...   ....  ...    ..    ..     ..           ...        ...         ..     .. ..    ..     ..     ..        ..         ..            ...           ..         ...          ....    ..      ..    ..     ..            ...         ...            ..   ",
" ..    ...    ..    ..     ...        ...         ....          ..    ..         ..    ..      .. ..    .....          ..    ..     ...        ..     ..  ..    .     ..         ..    ... ..    ..     .....     ..        ..     ....   ...          ...           ...    ..    ..      ..    ..     ..        ..     .. ..           ..          ...     ..          ....   .     ..           ..    ..     ...         ..         ..    ..  ..           ..     ..        ...        ..     ....   ...          ...         ...    ..     ...           ...          ...    .....   ...   ..     ...          ...   ",
" ..    ..     ..    ...     ...        ...        ....         ...    ..        ...    ..      .. ..    .. ..          ..    ...     ..        ..     ..  ..          ..         ..    ..  ..    ..      ....     ..        ..    .....   ...         ....          ....    ..    ...     ..          ...        ..    ..   ..         ....         ..      ...         ...         ....         ...    ...     ...        ..        ..     ..  ..          ..      ..        ...        ...   .....   ...         ....          ..    ..      ..          ....          ..    ......   ...   ..     ...         ...    ",
" ..    ..     ..    ....    ...        ...         ...         ..     ..        ...   ....    ..  ..    ..  ..         ..    ....     ..       ..    ..   ...        ..          ..    ..  ..   ....     ....    ..         ..    .. ..    ..        ... ..        .....    ..    ...     ...        ...         ..    ..   ..        .....        ..        ...        ...         ....        ....    ....    ...        ..        ..     ..   ..        ..       ..        ...       ....  ... ..   ...       .......        ...   ....     ...        ......        ...    ..  ..   ...  ....     ..        ...     ",
" ..   ..      ...  ......   ....    ........     .......     ...       ..    .......  .....   ..  ...   ..  ...    .......  .. ...  ...        ...   ..    ...     ...           ...   ..  ..   .. ...  ......   ..         ...  ..   ..   ...     ...   ...     ...  ...   ...  .....   .....      ...          ...   ..    ...     ...  ...     ...         ...      .....      ... ....     ......  ......   ...    ......         ...  ..    ....     ...       ...    ......     ......  ..  ...   ...     ...   ...    ......   .. ...  .....     ....  ....     .....  ..   ..   ...  .. ...  ....     ....      ",
" .......       ......  .................  ..........  .........        ................. .......   ......    .................  ......          .......     .........             ......   .......  ......  .......          ......   ...............     .........    ............ ....... ..........            ......      .........    .........           .......... ..........    .........  ......  .................           ......     ..........         ..........................    ...............     .................  ...... .........     .........  ......   ............  ...............        ",
"   ....          ...     ..    ....         ......      .....            ....       ...    ....      ...      .....       ...     ..              ....        .....                 ...      ....     ..      ....            ....      ....  .....         .....        ...   ...    ....    .......              .....        .....       ......               ......     .......       .....      ...     ..    ....                  ...         .....             ....      ....      ...       .... ......        .....      ....     ..    ......         ......     ...      .........     ..    .....          ",
"                                                                                                                                                                                                                                                                                                                                                                                                                                                                                                                                                                                                                        "};
