/* XPM */
static xpm_row_t const font_small_xpm[] = {
"260 42 53 1",
" 	c None",
".	c #C9C9C9",
"+	c #B6B6B6",
"@	c #B3B3B3",
"#	c #B7B7B7",
"$	c #C0C0C0",
"%	c #B4B4B4",
"&	c #B2B2B2",
"*	c #C7C7C7",
"=	c #BBBBBB",
"-	c #B5B5B5",
";	c #BCBCBC",
">	c #C4C4C4",
",	c #B9B9B9",
"'	c #B1B1B1",
")	c #BDBDBD",
"!	c #C2C2C2",
"~	c #BABABA",
"{	c #CBCBCB",
"]	c #BFBFBF",
"^	c #B8B8B8",
"/	c #B0B0B0",
"(	c #C1C1C1",
"_	c #A7A7A7",
":	c #A8A8A8",
"<	c #ABABAB",
"[	c #A9A9A9",
"}	c #A0A0A0",
"|	c #ADADAD",
"1	c #A1A1A1",
"2	c #A4A4A4",
"3	c #A5A5A5",
"4	c #AEAEAE",
"5	c #A2A2A2",
"6	c #A6A6A6",
"7	c #AFAFAF",
"8	c #A3A3A3",
"9	c #AAAAAA",
"0	c #E3E3E3",
"a	c #CACACA",
"b	c #ACACAC",
"c	c #C6C6C6",
"d	c #C8C8C8",
"e	c #C3C3C3",
"f	c #CDCDCD",
"g	c #9F9F9F",
"h	c #E4E4E4",
"i	c #D2D2D2",
"j	c #CECECE",
"k	c #C5C5C5",
"l	c #BEBEBE",
"m	c #CCCCCC",
"n	c #D0D0D0",
"                                                                                                                                                                                                                                                                    ",
"                                                                                                                                                                                                                                                                    ",
"                                                                                                                                                                                                                                                                    ",
"                                                                                                                                                                                                                                                                    ",
"                                                                                                                                                                                                                                                                    ",
"        .+@#              $%&&#$                 *=-;             #@&#>                -@@@&&,             +@@@&'               >)%+=            !+-    ~@;             {+@                  $%+              ]-^   ]&,             +%              )/,      ('%>   ",
"        +_:<              '[}}:[|;             .%_123_,          4|5363<'              7223337             4_1558/             +[1163_|          @<5    43[             ;48                  &95              496  ,9:              |60             |2[/    a4398   ",
"        &:@:#             '[   %[&             %36   %           4b_   b:|             72                  46                 %26    #           @<5    43[             ;48                  &95              496 c/5               |60             b<&_    ^:#95   ",
"       =b&'[<             '[8   9|             |5                4b_    /:             72                  46:               ~b3                 @<5    43[             ;48                  &95              496 +8                |60             b4([%   @:d95   ",
"       +_, <9             '[[  #5             ):/                4b_    7[/            72                  46                ~63                 @<6    43[             ;48                  &95              499e_'                |60             bb 94  )b&=95   ",
"       &2  @:             '[[99[~             &_2                4b_    ~<6            73_9<<              46<7/7            &6,  747/&          @<[[9<<|3[             ;48                  &95              49:|[                 |60             bb %:~ ;6+~95   ",
"      )b7  |:%            '[/f>b[|            %:                 4b_    #<<            72|'',              43366:            &_&  b[<_:          @<8/''&|3[             ;48                  &95              49_#[/                |60             b4 7[b /: ~95   ",
"      %[7///9[            '[8   &_b           ][7                4b_    &:@            72                  46:               ^:9    4_:          @<5    43[             ;48                  &95              496 b[-               |60             b4  <9;98 ~95   ",
"      &83gg}[:%           '[8   -34           ;9[(               4b_    &8             78                  46:               ^[<d   /_:          @<5    43[             ;48                  +9_              496 ,[<               |6h             b4  +['3  ~95   ",
"      |7    =:@           '[+ij,<g             '_|$j(4[          4b_  k%3[             73@                 46:                %_|~!c-_:          @<5    43[             ;48                ;(#_~              496  +:%              |6^++)          b4  @b_9  ~95   ",
"     72_    !_6           &588852               723655           &:6:_21<              |2:::_6             b5:                 +32_318           @65    b59             ;[1                @658               436   93&             6}1}}3          :4   [g6  ,65   ",
"                                                                                                                                                                                                                                                                    ",
"                                                                                                                                                                                                                                                                    ",
"                                                                                                                                                                                                                                                                    ",
"                                                                                                                                                                                                                                                                    ",
"                                                                                                                                                                                                                                                                    ",
"                                                                                                                                                                                                                                                                    ",
"                                                                                                                                                                                                                                                                    ",
"                                                                                                                                                                                                                                                                    ",
"                                                                                                                                                                                                                                                                    ",
"                                                                                                                                                                                                                                                                    ",
"      (l     ,              c,-;               +&&,{                k^-)               %&&^                  )-,              -@@@&&&@            %     )%           ,+      #,        +#    ,+     +         #+    e-            #+    e-             &&&&&@       ",
"     '<[|   ;|8            +:}53|7            %|883<'              +_156|-            7<883</              ]7112_             988:_8889          4[8    -65          #[[    %93        |_    |[l   ,:<        797   /8            ~9'   @3            c:8888[|      ",
"     4[6[,  ;<5           %51  c<[,           @<8  #[<            @55  ;[9)           7:6  %[/             '8)  $                |22             4:8    -35          ,[4    ,3         7:;  +[:7   -2          9[  ,_:             <9  -9'                 @2|      ",
"     49^b9  ;<5          !9_    ^<:           @<5   b3&          ,[@    +9<           7:5  *|8            &b6                    425             4:8    -35           96    73         ^:_  )396   /9          '[/ /3              ,[9 %2                 eb_       ",
"     49|)[' ;<5          +6      |6=          @<5   78l          @3      |3           7:5  m<6             <[/                   425             4:8    -35           #_<  ^<3          9@  &[~:% )<,           <[@6b               <<db|                 @1        ",
"     498 b[ ;<5          '6;     '3[          @<5  l<6           /3l     429          7:|-#|1              +2_4^                 425             4:8    -35            [4  +6%         fb_  |[4[[ /:            -[<_                l:73                 +68        ",
"     498 7[%;<5          /6;     '2/          @<_//:5!           76$     72@          7:116<                 +8:b                425             4:8    -35            <:  /6           '_~,[4$</ -2            +_:9                m<[|                =48         ",
"     498  <[lb5          -_<     /5           @<2'-              '_/     75           7:7 %9|                  4_<               425             7[2    %39            +_7,b3           %:/=_k 4_ /b           !7_;[7                +6                 %8,         ",
"     498  +[4<5          ]:4    !b9           @<5                ^:%     <_           7:5  ':|                 ,:|               425             #94    '8              [7~_+           =9|+[  -:,b_           ~64n<[                ^6,               =[5          ",
"     498   b:<5          k[9#  (&1@           @<5                ,:9,  $&14           7:5  ~[|            ,+;  -29               425              [9^ >]9<              <_7_            ib9|'   :|:@          ~4:  ][-               ,6,               75(cccd      ",
"     4:8   l_:8           $669<_}7            &[5                 %8_b|_2<            435   <3-           l6[b916                b55              $669928               +3[9             '6:   l[93           +27   [6;              ,2~              736_6663      ",
"                                                                     )& +64^                                                                                                                                                                                        ",
"                                                                         k<8:                                                                                                                                                                                       ",
"                                                                                                                                                                                                                                                                    ",
"                                                                                                                                                                                                                                                                    ",
"                                                                                                                                                                                                                                                                    "};
