/* XPM */
static xpm_row_t const game_over_numbers_xpm[] = {
"310 47 4 1",
" 	c None",
".	c #9A00FF",
"+	c #9900FF",
"@	c #9800FF",
"                                                                                                                                                                                                                                                                                                                      ",
"                                                                                                                                                                                                                                                                                                                      ",
"                                                                                                                                                                                                                                                                                                                      ",
"                                                                                                                                                                                                                                                                                                                      ",
"                                                                                                                                                                                                                                                                                                                      ",
"                                                                                                                                                                                                                                                                                                                      ",
"                                                                                                                                                                                                                                                                                                                      ",
"         .++++++++++++.                +++++++++++++.@                +@+++++++++++.+                +++++++++++++++                ..+++++++++++@+                @.++++++++++++                 .@++++++++++++                +++++++++++++.@                @@+++++++++++.+                +++++++++++++++         ",
"      +++++++++++++++++++@           ++++++++++++++++++++           +++++++++++++++++++@          ++++++++++++++++++++@          @+++++++++++++++++++           ++++++++++++++++++++           ++++++++++++++++++++           ++++++++++++++++++++          +++++++++++++++++++++          +++++++++++++++++++++      ",
"    .++++++++++++++++@++++++       @++++++++++++++++++++++.       ++++++++.++++++++.+++++        ++++++@++++++++.+++++++        +++++@+++++++++++++++++       ++++++++++++++++++++++++       .+++++++.@++++++++++++++       @+++++++++++++++++++++++       +++++++@++++++++@++++++        +++++++@++++++++.++++++     ",
"   +++++++              +++++     +++++++++.     ++++++++++.     +++++++             +++++      ++++++             .+++++     +++++++   ++++++   +++++++     .++++++              +++++     ++++++++             +++++     ++++++++            +++++.     +++++++             .++++      ++++++              +++++    ",
"  +++++++                +++++   +++++++++.      +++++++++++.   +++++++               +++++    ++++++               ++++++    +++++++   ++++++   ++++++++   +++++++               ++++++   +++++++.              ++++++   +++++++++            ++++++    +++++++               .++++    ++++++                +++++   ",
"  +++++++   +@......++   +++++  ++++++++++.      ++++++++++++  ++++++++   .......++   ++++++  +++++++   @@@@@@@@.    ++++++  ++++++++   ++++++   +++++++++  +++++++   +...........++++++   +++++++    +++++++   @++++++  @++++++++++.......   ++++++++  ++++++++   @.......+    +++++  +++++++   ++........   ++++++  ",
" ++++++++   ++++++++++   ++++++ ++++++++++++++   +++++++++++++ ++++++++  @+++++++++   ++++++  +++++++  @++++++++++   ++++++ .++++++++   ++++++   +++++++++ .+++++++   +++++++++++++++++++ ++++++++   +++++++++++++++++++ ++++++++++++++++++   +++++++++ +++++++   +++++++++++   +++++  +++++++   ++++++++++   ++++++  ",
" ++++++++   +++++++++++  .++++++++++++++++++++   +++++++++++++@++++++++@++++++++++++  .++++++.+++++++@ +++++++++++   ++++++++++++++++   ++++++   ++++++++++++++++++   ++++++++++++++++++++++++++++   +++++++++++++++++++.++++++++++++++++++   +++++++++@+++++++   +++++++++++   ++++++++++++++   +++++++++++  .+++++@ ",
" ++++++++   +++++++++++  .++++++++++++++++++++   +++++++++++++++++++++++++++++++++++  .+++++++++++++++++++++++++++   ++++++++++++++++   ++++++   ++++++++++++++++++   ++++++++++++++++++++++++++++   +++++++++++++++++++++++++++++++++++++   .+++++++++++++++++   +++++++++++   ++++++++++++++   +++++++++++  .++++++ ",
"+++++++++   +++++++++++  .++++++++++++++++++++   +++++++++++++++++++++++++++++++++++  .+++++++++++++++++++++++++++   ++++++++++++++++   ++++++   ++++++++++++++++++   ++++++++++++++++++++++++++++   +++++++++++++++++++++++++++++++++++++   ++++++++++++++++++   +++++++++++   ++++++++++++++   +++++++++++  .++++++ ",
"+++++++++   +++++++++++  .++++++++++++++++++++   ++++++++++++++++++++++++++++++++++   .+++++++++++++++++++++++++++   ++++++++++++++++   ++++++   ++++++++++++++++++   ++++++++++++++++++++++++++++   ++.......+++++++++++++++++++++++++++.   ++++++++++++++++++   +++++++++++   ++++++++++++++   +++++++++++  .++++++ ",
"+++++++++   +++++++++++  .++++++++++++++++++++   ++++++++++++++++++++++++++++++++++   ++++++++++++++++++++++++++++   ++++++++++++++++   ++++++   ++++++++++++++++++              .++++++++++++++++               ++++++++++++++++++++++++   ++++++++++++++++++++   @@@@@@@@+    ++++++++++++++   ++++++++++   .++++++ ",
"+++++++++   +++++++++++  .++++++++++++++++++++   +++++++++++++++++++++++++            ++++++++++++++++++.           @++++++++++++++++   ++++++   ++++++++++++++++++               .+++++++++++++++                ++++++++++++++++++++++@   ++++++++++++++++++++               .++++++++++++++   +++++++++@   .++++++ ",
"+++++++++   +++++++++++  .++++++++++++++++++++   +++++++++++++++++++++++             .++++++++++++++++++.           +++++++++++++++++   ++++++   ++++++++++++++++++                +++++++++++++++                ++++++++++++++++++++++   +++++++++++++++++++++               +++++++++++++++                .++++++ ",
"+++++++++   +++++++++++  .++++++++++++++++++++   ++++++++++++++++++++++            ++++++++++++++++++++++++++++++    ++++++++++++++++   ++++++   +++++++++++++++++++++++++++++++   +++++++++++++++   +++++++++++  ++++++++++++++++++++++   +++++++++++++++++++++    +++++++     +++++++++++++++               .++++++ ",
"+++++++++   +++++++++++  .++++++++++++++++++++   +++++++++++++++++++++@   ++++++++++++++++++++++++++++++++++++++++   ++++++++++++++++   @+++++   +++++++++++++++++++++++++++++++   +++++++++++++++   ++++++++++.   ++++++++++++++++++++@   ++++++++++++++++++++   +++++++++++   +++++++++++++++++             .++++++ ",
"+++++++++   +++++++++++  .++++++++++++++++++++   ++++++++++++++++++++++  @++++++++++++++++++++++++++++++++++++++++   +++++++++++++++++               +++++++++++++++++++++++++++   +++++++++++++++   ++++++++++.   ++++++++++++++++++++   +++++++++++++++++++++   +++++++++++   ++++++++++++++++++++++++++++  .++++++ ",
"+++++++++   +++++++++++  .++++++++++++++++++++   +++++++++++++++++++++@  @++++++++++++++++++++++++++++++++++++++++   +++++++++++++++++               +++++++++++++++++++++++++++   +++++++++++++++   ++++++++++.   ++++++++++++++++++++   +++++++++++++++++++++   +++++++++++   ++++++++++++++++++++++++++++  .++++++ ",
"+++++++++   +++++++++++  .++++++++++++++++++++   +++++++++++++++++++++@  @++++++++++++++++++++++++++++++++++++++++   ++++++++++++++++++              +++++++++++++++++++++++++++   +++++++++++++++   ++++++++++.   ++++++++++++++++++++   +++++++++++++++++++++   +++++++++++   ++++++++++++++++++++++++++++  .++++++ ",
"+++++++++   ++++++++++   .++++++++++++++++++++   +++++++++++++++++++++@  @+++++++++++++++++++++++++++  @++++++++++   +++++++++++++++++++++++++   +++++++++++++++++++++++++++++++   +++++++++++++++   +++++++++++   +++++++++++++++++++   ++++++++++++++++++++++   +++++++++++   +++++++++++++++++++++++++++   .++++++ ",
"+++++++++   ++++++++++   +++++++++++++++++++++   +++++++++++++++++++++@  @+++++++++++++++++++++++++++   ++++++++++   +++++++++++++++++++++++++   ++++++++++++++++++   ++++++++++   +++++++++++++++   +++++++++++  ++++++++++++++++++++   ++++++++++++++++++++++   .++++++++++   +++++++++++++++++++++++++++   +++++++ ",
"+++++++++                +++++++++++++++++++++   +++++++++++++++++++++@              +++++++++++++++.                +++++++++++++++++++++++++   +++++++++++++++++++               +++++++++++++++                @++++++++++++++++++.   ++++++++++++++++++++++.               +++++++++++++++++              +++++++ ",
"+++++++++.              ++++++++++++++++++++++   ++++++++++++++++++++++              @+++++++++++++++               ++++++++++++++++++++++++++   +++++++++++++++++++              .++++++++++++++++               +++++++++++++++++++   ++++++++++++++++++++++++               ++++++++++++++++.             ++++++++ ",
"++++++++++.            +++++++++++++++++++++++   ++++++++++++++++++++++.             @++++++++++++++++             +++++++++++++++++++++++++++   ++++++++++++++++++++            .++++++++++++++++++             ++++++++++++++++++++   +++++++++++++++++++++++++             ++++++++++++++++++            +++++++++ ",
"+++++++++++++++++++++++++++++++++++++++++++++++++++++++++++++++++++++++++++++++++++++++++++++++++++++++++++++++++++++++++++++++++++++++++++++++++++++++++++++++++++++++++++++++++++++++++++++++++++++++++++++++++++++++++++++++++++++++++++++++++++++++++++++++++++++++++++++++++++++++++++++++++++++++++++++++++++++ ",
"+++++++++++++++++++++++++++++++++++++++++++++++++++++++++++++++++++++++++++++++++++++++++++++++++++++++++++++++++++++++++++++++++++++++++++++++++++++++++++++++++++++++++++++++++++++++++++++++++++++++++++++++++++++++++++++++++++++++++++++++++++++++++++++++++++++++++++++++++++++++++++++++++++++++++++++++++++++ ",
"+++++++++++++++++++++++++++++++++++++++++++++++++++++++++++++++++++++++++++++++++++++++++++++++++++++++++++++++++++++++++++++++++++++++++++++++++++++++++++++++++++++++++++++++++++++++++++++++++++++++++++++++++++++++++++++++++++++++++++++++++++++++++++++++++++++++++++++++++++++++++++++++++++++++++++++++++++++ ",
" ++++++++++++++++++++++++++++++++++++++++++++++++++++++++++++++++++++++++++++++++++++++++++++++++++++++++++++++++++++++++++++++++++++++++++++++++++++++++++++++++++++++++++++++++++++++++++++++++++++++++++++++++++++++++++++++++++++++++++++++++++++++++++++++++++++++++++++++++++++++++++++++++++++++++++++++++++++ ",
" ++++++++++++++++++++++++++++++ ++++++++++++++++++++++++++++++@++++++++++++++++++++++++++++++.++++++++++++++++++++++++++++++++++++++++++++++++++++++++++++.++++++++++++++++++++++++++++++ ++++++++++++++++++++++++++++++ +++++++++++++++++++++++++++++++++++++++++++++++++++++++++++++@+++++++++++++++++++++++++++++@ ",
" ++++++++++++++++++++++++++++++ +++++++++++++++++++++++++++++@ +++++++++++++++++++++++++++++  +++++++++++++++++++++++++++++  +++++++++++++++++++++++++++++ .+++++++++++++++++++++++++++++ +++++++++++++++++++++++++++++@ ++++++++++++++++++++++++++++++ +++++++++++++++++++++++++++++  +++++++++++++++++++++++++++++  ",
"  ++++++++++++++++++++++++++++  +++++++++++++++++++++++++++++  .++++++++++++++++++++++++++++  +++++++++++++++++++++++++++++  ++++++++++++++++++++++++++++@  ++++++++++++++++++++++++++++   ++++++++++++++++++++++++++++  +++++++++++++++++++++++++++++  .++++++++++++++++++++++++++++  ++++++++++++++++++++++++++++@  ",
"  ++++++++++++++++++++++++++++   +++++++++++++++++++++++++++    +++++++++++++++++++++++++++    +++++++++++++++++++++++++++    +++++++++++++++++++++++++++   ++++++++++++++++++++++++++++   @+++++++++++++++++++++++++++   +++++++++++++++++++++++++++    +++++++++++++++++++++++++++    +++++++++++++++++++++++++++   ",
"   ++++++++++++++++++++++++++     +++++++++++++++++++++++++.     +++++++++++++++++++++++++      +++++++++++++++++++++++++     @+++++++++++++++++++++++++     .+++++++++++++++++++++++++     ++++++++++++++++++++++++++     ++++++++++++++++++++++++++     +++++++++++++++++++++++++      +++++++++++++++++++++++++    ",
"    ++++++++++++++++++++++++       .++++++++++++++++++++++        +++++++++++++++++++++++        +++++++++++++++++++++++        +++++++++++++++++++++++       +++++++++++++++++++++++@       ++++++++++++++++++++++++       +++++++++++++++++++++++        +++++++++++++++++++++++        +++++++++++++++++++++++     ",
"      ++++++++++++++++++++           +++++++++++++++++++.           ++++++++++++++++++++          +++++++++++++++++++++          ++++++++++++++++++++           ++++++++++++++++++++           .+++++++++++++++++++           ++++++++++++++++++++           ++++++++++++++++++++          @++++++++++++++++++++      ",
"         @.++++++++++.@                 +.+++++++++@++                +..++++++++++++                @@.+++++++++.++                ++++++++++++..                 .+@+++++++++.+                 @.++++++++++.+                 +.+++++++++@++                ++.++++++++++++                @@.+++++++++.++         ",
"                                                                                                                                                                                                                                                                                                                      ",
"                                                                                                                                                                                                                                                                                                                      ",
"                                                                                                                                                                                                                                                                                                                      ",
"                                                                                                                                                                                                                                                                                                                      "};
