/* XPM */
static xpm_row_t const leaderboard_crown_xpm[] = {
"45 35 254 2",
"  	c None",
". 	c #EFD386",
"+ 	c #F0D07E",
"@ 	c #F3DE9C",
"# 	c #F3D78E",
"$ 	c #F2C553",
"% 	c #FCC110",
"& 	c #FDBF0E",
"* 	c #F9C02A",
"= 	c #F2CF79",
"- 	c #F3C635",
"; 	c #FEC106",
"> 	c #FEC105",
", 	c #FFBE0B",
"' 	c #F6C51D",
") 	c #F7CF86",
"! 	c #F1D27D",
"~ 	c #FCC20A",
"{ 	c #FCC207",
"] 	c #F5C446",
"^ 	c #EECA6A",
"/ 	c #FEC005",
"( 	c #FEC103",
"_ 	c #FEC007",
": 	c #F7C42E",
"< 	c #F5D38C",
"[ 	c #FBC021",
"} 	c #FEC107",
"| 	c #FEC104",
"1 	c #FFC004",
"2 	c #FDC207",
"3 	c #F5C649",
"4 	c #F7CC64",
"5 	c #FDC10E",
"6 	c #FDC201",
"7 	c #FFC007",
"8 	c #FFC009",
"9 	c #F9C322",
"0 	c #F8DC8A",
"a 	c #F9D07B",
"b 	c #FCC011",
"c 	c #FDC105",
"d 	c #FFC107",
"e 	c #FDC104",
"f 	c #FDC24D",
"g 	c #F4C760",
"h 	c #FCC10A",
"i 	c #FDC202",
"j 	c #FBC216",
"k 	c #EFD588",
"l 	c #F4D189",
"m 	c #FBC01D",
"n 	c #FDC303",
"o 	c #FEC203",
"p 	c #FEC00E",
"q 	c #FBC547",
"r 	c #EFCA57",
"s 	c #FCC303",
"t 	c #FDC00F",
"u 	c #F5D579",
"v 	c #EFD188",
"w 	c #FBC020",
"x 	c #FFBE0E",
"y 	c #F2C838",
"z 	c #F3C44A",
"A 	c #FDC204",
"B 	c #FFC003",
"C 	c #FBC20B",
"D 	c #F7D17C",
"E 	c #F3CC89",
"F 	c #FEC215",
"G 	c #FCC108",
"H 	c #FFBF05",
"I 	c #FEC108",
"J 	c #FEC008",
"K 	c #FDC203",
"L 	c #F7C43B",
"M 	c #F5C653",
"N 	c #FCC109",
"O 	c #FFBF04",
"P 	c #FCC00C",
"Q 	c #F1CF77",
"R 	c #F1D581",
"S 	c #F4C542",
"T 	c #F5C32D",
"U 	c #EEC944",
"V 	c #EFD481",
"W 	c #EFD179",
"X 	c #FCC114",
"Y 	c #FCC10B",
"Z 	c #FDC205",
"` 	c #F8BC32",
" .	c #EFC56E",
"..	c #F4C238",
"+.	c #F7C22A",
"@.	c #F1C55D",
"#.	c #F3D999",
"$.	c #F4D491",
"%.	c #F8C125",
"&.	c #FFBC13",
"*.	c #F9C113",
"=.	c #F0CE7B",
"-.	c #F6DD9B",
";.	c #F7C32F",
">.	c #FEC202",
",.	c #FFBC0E",
"'.	c #F2C875",
").	c #EFC64B",
"!.	c #FEBF08",
"~.	c #F9C22B",
"{.	c #F9DB8E",
"].	c #F4C640",
"^.	c #FBC302",
"/.	c #F8C505",
"(.	c #FEBF0B",
"_.	c #F6C42B",
":.	c #F0D069",
"<.	c #FEBE08",
"[.	c #FFC006",
"}.	c #FEBF0A",
"|.	c #F6C334",
"1.	c #F3CF7E",
"2.	c #FBBF1C",
"3.	c #FDC107",
"4.	c #FCC206",
"5.	c #FCC203",
"6.	c #F5CF57",
"7.	c #FBC10F",
"8.	c #FCC10C",
"9.	c #FDC108",
"0.	c #FAC00B",
"a.	c #F4D286",
"b.	c #F4C43A",
"c.	c #FFC005",
"d.	c #F5CD7F",
"e.	c #F0CC6B",
"f.	c #F7C53A",
"g.	c #FAC219",
"h.	c #FFC001",
"i.	c #FEC00C",
"j.	c #FFC104",
"k.	c #FDC10A",
"l.	c #FEC006",
"m.	c #F6CB5D",
"n.	c #F4D386",
"o.	c #F1CC68",
"p.	c #FDC008",
"q.	c #FFBF0A",
"r.	c #F7C136",
"s.	c #F2C9A0",
"t.	c #FADE98",
"u.	c #F7C648",
"v.	c #FDC301",
"w.	c #F9C436",
"x.	c #EFCC68",
"y.	c #FBC20E",
"z.	c #FEC204",
"A.	c #FDC10B",
"B.	c #FEC10D",
"C.	c #FCC00F",
"D.	c #F7C335",
"E.	c #F5CC68",
"F.	c #F1C979",
"G.	c #F3CB70",
"H.	c #FAC519",
"I.	c #FFBD0C",
"J.	c #FEC00B",
"K.	c #F9C13A",
"L.	c #F9CA6A",
"M.	c #F7C374",
"N.	c #F7C558",
"O.	c #F9BE27",
"P.	c #FFBE07",
"Q.	c #FEBF0C",
"R.	c #FEC10A",
"S.	c #FDC00E",
"T.	c #F3D26E",
"U.	c #F7E5A7",
"V.	c #EECD5C",
"W.	c #F9C325",
"X.	c #FDC10D",
"Y.	c #FFC008",
"Z.	c #FFC103",
"`.	c #FCC009",
" +	c #FBC203",
".+	c #FFBF0C",
"++	c #FEC009",
"@+	c #FEC205",
"#+	c #FDC20F",
"$+	c #FCC10E",
"%+	c #F7CC57",
"&+	c #F4D597",
"*+	c #F5CB5C",
"=+	c #FDC003",
"-+	c #FAC11B",
";+	c #F6D566",
">+	c #F7D385",
",+	c #F0DA96",
"'+	c #F8C225",
")+	c #FFC00A",
"!+	c #F7C559",
"~+	c #F3C651",
"{+	c #FBC402",
"]+	c #F6D67F",
"^+	c #F2CE70",
"/+	c #FCC00E",
"(+	c #FDC304",
"_+	c #FBC306",
":+	c #FBC221",
"<+	c #F4D788",
"[+	c #FBC00F",
"}+	c #FAC307",
"|+	c #F5C544",
"1+	c #F4C73A",
"2+	c #F4D375",
"3+	c #F2CF75",
"4+	c #FFBF0F",
"5+	c #F1D787",
"6+	c #F5D592",
"7+	c #FCC01A",
"8+	c #F6C433",
"9+	c #F7C32C",
"0+	c #F9D373",
"a+	c #F3CC58",
"b+	c #F2D387",
"c+	c #F5D57A",
"d+	c #F8C228",
"e+	c #F7C22D",
"f+	c #FDC00A",
"g+	c #FAC306",
"h+	c #FEC004",
"i+	c #FDC005",
"j+	c #F6D065",
"k+	c #F2DA8F",
"l+	c #F5CD5F",
"m+	c #FBC64E",
"n+	c #FBCB53",
"o+	c #F9CC57",
"p+	c #FACC53",
"q+	c #F9CB53",
"r+	c #FACA55",
"s+	c #F9C958",
"t+	c #FCCC55",
"u+	c #F9CA57",
"v+	c #FACD56",
"w+	c #F9CB57",
"x+	c #FACD55",
"y+	c #F7C955",
"z+	c #F9CC56",
"A+	c #FACD57",
"B+	c #FACC54",
"C+	c #FBCC54",
"D+	c #F8CA57",
"E+	c #F4D46D",
"                                          . + @                                           ",
"                                      # $ % & * =                                         ",
"                                      - ; > ; , ' )                                       ",
"                                    ! ~ ; ; ; > { ]                                       ",
"                                    ^ / ; ; ; ( _ :                                       ",
"                                    < [ } | ; 1 2 3                                       ",
"                                      4 5 6 7 8 9 0                                       ",
"                                      a b c d e f                                         ",
"                                      g h e d i j k                                       ",
"                                    l m n o ; p i q                                       ",
"                                    r , ; ; ; 7 s t u                                     ",
"                                  v w c ; ; ; ( ; x y                                     ",
"                                  z 7 A ; ; ; } 1 B C D                                   ",
"                                E F G H ; ; ; I 1 J K L                                   ",
"                                M ( N O ; ; ; ; ; ; ; P Q                                 ",
"  R S T U V                   W X B Y | ; ; ; ; ; ; ; Z `                    ...+.@.#.    ",
"$.%.o , &.*.=.              -.;.>.| I Z ; ; ; ; ; ; ; Z ,.'.              )._ | , !.~.{.  ",
"]./ ~ ^./.(._.              :.<.G Z [.; ; ; ; ; ; ; ; ( }.|.            1.2.Z 3.n 4.5.6.  ",
"7./ 8.1 G 9.0.a.            b.c.; ; ; ; ; ; ; ; ; ; ; 1 { p d.          e.Z J } ; ; > f.  ",
"g.h.i.j.k.l.G m.n.        o.p.c.; ; ; ; ; ; ; ; ; ; ; 3.s q.r.s.      t.u.v.} ; ; } I w.  ",
"x.y.z.>.Z > A.B.C.D.E.F.G.H.I.K ; ; ; ; ; ; ; ; ; ; ; Z ; | J.K.L.M.N.O.P.Q.Z ( ; R.S.T.  ",
"U.V.W.X.s _ 4.Y.; Z.l.`. +3..+A ; ; ; ; ; ; ; ; ; ; ; | 8 A ++[.| @+I #+o 2 } [.B.$+%+    ",
"    &+R *+& k.z.} ; | =+=+; } } ; ; ; ; ; ; ; ; ; ; ; ; ; ; ; ; ; ; ; ; ; ; ; -+;+>+      ",
"        ,+'+)+; } ; | =+| ; } } ; ; ; ; ; ; ; ; ; ; ; ; ; ; ; ; ; ; ; ; ; ; ; !+          ",
"          ~+{+J.} ; | | | ; } } ; ; ; ; ; ; ; ; ; ; ; ; ; ; ; ; ; ; ; ; ; ; } ]+          ",
"          ^+/+(+; ; > > > ; ; ; ; ; ; ; ; ; ; ; ; ; ; ; ; ; ; ; ; ; ; / _+> :+            ",
"          <+[+A ; ; ; ; ; ; ; ; ; ; ; ; ; ; ; ; ; ; ; ; ; ; ; ; ; ; ; c.}+; |+            ",
"            1+q.; ; ; ; ; ; ; ; ; ; ; ; ; ; ; ; ; ; ; ; ; ; ; ; ; ; ; 1 { c 2+            ",
"            3+4+; ; ; ; ; ; ; ; ; ; ; ; ; ; ; ; ; ; ; ; ; ; ; ; ; ; ; | J { 5+            ",
"            6+7+; ; ; ; ; ; ; ; ; ; ; ; ; ; ; ; ; ; ; ; ; ; ; ; ; ; ; s ++8+              ",
"              9+; ; ; ; ; ; ; ; ; ; ; ; ; ; ; ; ; ; ; ; ; ; ; ; ; ; ; N l.0+              ",
"              a+; ; ; ; ; ; ; ; ; ; ; ; ; ; ; ; ; ; ; ; ; ; ; ; ; ; ; _ { b+              ",
"              c+; ; ; ; ; ; ; ; ; ; ; ; ; ; ; ; ; ; ; ; ; ; ; ; ; ; ; i d+                ",
"                e+| f+g+l./ | | h+/ l./ | / l.l.i+/ ; ; l.; | _ / | > / j+                ",
"                k+l+m+n+o+o+p+q+r+s+t+u+v+w+x+x+w+x+y+z+A+w+B+C+D+A+w+E+                  "};
