/* XPM */
static xpm_row_t const moles_hitted_xpm[] = {
"155 25 2 1",
" 	c None",
".	c #000000",
"                                                                                                                                                           ",
"                                                                                                                                                           ",
"                                                                                                                                                           ",
"                                                                                                                                                           ",
"                                                                                                                                                           ",
"         ..                                                                    .                                                                           ",
"        ....       ..                                                   .      ..                                                                          ",
"        .....     ....       .                                         ...     ..                                                                          ",
"       ......    .....      ...      ..         ......    ......       ...     ...   ..  .................... ...... ...                                   ",
"       ......  .......     .....    ...      ......... .........       ...     ...   .. ............................ .....                                 ",
"      ................    ......    ...      ......   ......           ...    ....  ...  .......  ......   ......    ......                                ",
"      ................   .......    ...       ...     .....            ...    ....  ...     ...      ...    ...      ..  ...         ...                   ",
"     ............ ...   ...   ...  ...        ......  .......          ... .......  ...     ..       ..     ......   ..    ..        ...                   ",
"     .... ......  ...  ...     ..  ...       .......      ...         ...........   ..     ...      ...    .......   ..    ..        ..                    ",
"     ...   ..     ...  ...     ..  ..        ......         ..        ...........  ...     ...      ...    ......    ..  ....                              ",
"    ....          ...  ..     ... ...       ...            ..         ...... ....  ...     ..       ..    ...        .......                               ",
"    ....          ...  .......... ......... .........   .....        .....   ...   ...    ...      ...    ......... .......         ...                    ",
"     ..           ..   .........   ..................  .....         ....    ...    ..     ..       ..     ........ .....           ...                    ",
"     ..                 ......     .....     .......   ...            ..      .     ..     ..       ..     .......   ..             ..                     ",
"                                                                                                                                                           ",
"                                                                                                                                                           ",
"                                                                                                                                                           ",
"                                                                                                                                                           ",
"                                                                                                                                                           ",
"                                                                                                                                                           "};
