/* XPM */
static xpm_row_t const name_length_warning_xpm[] = {
"150 24 435 2",
"  	c None",
". 	c #E9E8E8",
"+ 	c #E7E6E6",
"@ 	c #ECEBEB",
"# 	c #E8E7E7",
"$ 	c #EAE9E9",
"% 	c #E0DFDF",
"& 	c #DAD9D9",
"* 	c #DBDADA",
"= 	c #E4E3E3",
"- 	c #B5B4B4",
"; 	c #9C9B9B",
"> 	c #D1D0D0",
", 	c #B3B3B3",
"' 	c #B1B0B0",
") 	c #B3B2B2",
"! 	c #ACACAC",
"~ 	c #969595",
"{ 	c #504F4C",
"] 	c #C4C3C3",
"^ 	c #AAA9A9",
"/ 	c #000000",
"( 	c #191818",
"_ 	c #4A4A4A",
": 	c #6B6A6A",
"< 	c #212020",
"[ 	c #5C5C5C",
"} 	c #9B9B9B",
"| 	c #A7A6A6",
"1 	c #A5A4A4",
"2 	c #010101",
"3 	c #9A9999",
"4 	c #A3A2A2",
"5 	c #959494",
"6 	c #C5C4C4",
"7 	c #716112",
"8 	c #DDBB25",
"9 	c #595855",
"0 	c #E2E1E1",
"a 	c #E6E5E5",
"b 	c #4D4C4C",
"c 	c #616161",
"d 	c #A6A5A5",
"e 	c #C3C2C2",
"f 	c #585858",
"g 	c #DEDDDD",
"h 	c #D9D8D8",
"i 	c #ACABAB",
"j 	c #BBBABA",
"k 	c #C1C0C0",
"l 	c #E5E4E4",
"m 	c #D4D3D3",
"n 	c #BAB9B9",
"o 	c #C9C8C8",
"p 	c #A8A8A8",
"q 	c #CBCACA",
"r 	c #C7C6C6",
"s 	c #B6B5B5",
"t 	c #BEBDBD",
"u 	c #D1D1D1",
"v 	c #D0CFCF",
"w 	c #BFBEBE",
"x 	c #CCCBCB",
"y 	c #E1E0E0",
"z 	c #CAC9C9",
"A 	c #C2C1C1",
"B 	c #DDDCDC",
"C 	c #AFAEAE",
"D 	c #BCBBBB",
"E 	c #B5B5B5",
"F 	c #BDBDBD",
"G 	c #D6D6D6",
"H 	c #BDBCBC",
"I 	c #C3C3C3",
"J 	c #B4B3B3",
"K 	c #E3E2E2",
"L 	c #A8A7A7",
"M 	c #A5A5A5",
"N 	c #020202",
"O 	c #AAAAAA",
"P 	c #C6C5C5",
"Q 	c #A7A7A7",
"R 	c #C8C7C7",
"S 	c #ABAAAA",
"T 	c #B7B6B6",
"U 	c #CDCCCC",
"V 	c #CBCBCB",
"W 	c #626261",
"X 	c #DCB924",
"Y 	c #FFD42A",
"Z 	c #9E8618",
"` 	c #777777",
" .	c #3B3B3B",
"..	c #DFDEDE",
"+.	c #4D4D4D",
"@.	c #ADACAC",
"#.	c #A9A9A9",
"$.	c #CFCECE",
"%.	c #7E7D7D",
"&.	c #0C0C0C",
"*.	c #313131",
"=.	c #575656",
"-.	c #1F1E1E",
";.	c #6C6B6B",
">.	c #080808",
",.	c #3F3F3F",
"'.	c #959595",
").	c #302F2F",
"!.	c #6D6C6C",
"~.	c #6C6C6C",
"{.	c #B9B8B8",
"].	c #373636",
"^.	c #1B1B1B",
"/.	c #8F8F8F",
"(.	c #585757",
"_.	c #D8D7D7",
":.	c #4F4F4F",
"<.	c #706F6F",
"[.	c #B0AFAF",
"}.	c #343434",
"|.	c #757575",
"1.	c #3D3D3D",
"2.	c #747474",
"3.	c #404040",
"4.	c #505050",
"5.	c #2D2C2C",
"6.	c #949494",
"7.	c #7B7A7A",
"8.	c #686767",
"9.	c #121212",
"0.	c #BBBBBB",
"a.	c #1D1D1D",
"b.	c #989898",
"c.	c #B8B7B7",
"d.	c #6D6D6D",
"e.	c #A6A6A6",
"f.	c #767575",
"g.	c #E3E3E3",
"h.	c #858484",
"i.	c #5E5D5D",
"j.	c #B6B6B6",
"k.	c #292929",
"l.	c #A4A3A3",
"m.	c #201F1F",
"n.	c #807F7F",
"o.	c #545454",
"p.	c #7F7E7E",
"q.	c #737272",
"r.	c #605F5F",
"s.	c #5F5E5E",
"t.	c #454444",
"u.	c #5C5B5B",
"v.	c #787777",
"w.	c #4E4E4E",
"x.	c #030303",
"y.	c #424141",
"z.	c #CECDCD",
"A.	c #484747",
"B.	c #979696",
"C.	c #141313",
"D.	c #947E16",
"E.	c #F0C928",
"F.	c #4E4838",
"G.	c #949393",
"H.	c #929292",
"I.	c #666565",
"J.	c #777676",
"K.	c #383737",
"L.	c #313030",
"M.	c #DCDBDB",
"N.	c #1F1F1F",
"O.	c #9A9A9A",
"P.	c #4C4C4C",
"Q.	c #898888",
"R.	c #D2D1D1",
"S.	c #717171",
"T.	c #696868",
"U.	c #878787",
"V.	c #8D8C8C",
"W.	c #141414",
"X.	c #D5D4D4",
"Y.	c #242424",
"Z.	c #9C9C9C",
"`.	c #9B9A9A",
" +	c #101010",
".+	c #939292",
"++	c #656565",
"@+	c #424242",
"#+	c #696969",
"$+	c #0F0F0F",
"%+	c #969696",
"&+	c #9E9D9D",
"*+	c #D3D2D2",
"=+	c #8F8E8E",
"-+	c #858585",
";+	c #C0BFBF",
">+	c #191919",
",+	c #1E1E1E",
"'+	c #222222",
")+	c #AEADAD",
"!+	c #D7D6D6",
"~+	c #3E3E3E",
"{+	c #0D0D0D",
"]+	c #919090",
"^+	c #727272",
"/+	c #5F5F5F",
"(+	c #353434",
"_+	c #5D5D5D",
":+	c #908F8F",
"<+	c #4F4B40",
"[+	c #EDC727",
"}+	c #FED42A",
"|+	c #FBD22A",
"1+	c #B79B1D",
"2+	c #515050",
"3+	c #2A2A2A",
"4+	c #484848",
"5+	c #4E4D4D",
"6+	c #7D7D7D",
"7+	c #111111",
"8+	c #2F2F2F",
"9+	c #808080",
"0+	c #434242",
"a+	c #848383",
"b+	c #272727",
"c+	c #CACACA",
"d+	c #060606",
"e+	c #2D2D2D",
"f+	c #767676",
"g+	c #4A4949",
"h+	c #181818",
"i+	c #D6D5D5",
"j+	c #B4B4B4",
"k+	c #515151",
"l+	c #797878",
"m+	c #909090",
"n+	c #3A3A3A",
"o+	c #848484",
"p+	c #6A6969",
"q+	c #989797",
"r+	c #B3971C",
"s+	c #927B16",
"t+	c #252003",
"u+	c #BC9F1E",
"v+	c #F8D029",
"w+	c #5C501D",
"x+	c #414141",
"y+	c #8C8B8B",
"z+	c #C4C4C4",
"A+	c #CFCFCF",
"B+	c #676666",
"C+	c #818181",
"D+	c #242323",
"E+	c #282828",
"F+	c #525252",
"G+	c #A09F9F",
"H+	c #D0D0D0",
"I+	c #8D8D8D",
"J+	c #0C0B0B",
"K+	c #9D9C9C",
"L+	c #626161",
"M+	c #919191",
"N+	c #303030",
"O+	c #A3A3A3",
"P+	c #A1A0A0",
"Q+	c #6B6B6B",
"R+	c #7E7E7E",
"S+	c #2C2C2C",
"T+	c #878686",
"U+	c #676767",
"V+	c #7B7B7B",
"W+	c #999898",
"X+	c #444444",
"Y+	c #8B8B8B",
"Z+	c #757474",
"`+	c #2B2B2B",
" @	c #B1B1B1",
".@	c #5B5B5B",
"+@	c #686868",
"@@	c #595959",
"#@	c #464646",
"$@	c #5A4E1F",
"%@	c #F7CF29",
"&@	c #FDD42A",
"*@	c #4D4107",
"=@	c #977F16",
"-@	c #CCAC21",
";@	c #4C4B4B",
">@	c #AEAEAE",
",@	c #BFBFBF",
"'@	c #DBDBDB",
")@	c #7A7A7A",
"!@	c #CBAC21",
"~@	c #FFD52A",
"{@	c #65570D",
"]@	c #A38B19",
"^@	c #FDD32A",
"/@	c #786613",
"(@	c #080707",
"_@	c #C0C0C0",
":@	c #7A6712",
"<@	c #836F12",
"[@	c #B2971C",
"}@	c #DEBB24",
"|@	c #60605F",
"1@	c #5C5C5A",
"2@	c #E0BD25",
"3@	c #968016",
"4@	c #C0A11E",
"5@	c #957F16",
"6@	c #9B8417",
"7@	c #A98F1A",
"8@	c #C9AA20",
"9@	c #ECC627",
"0@	c #4F4B41",
"a@	c #CDCDCD",
"b@	c #A2A1A1",
"c@	c #4E4938",
"d@	c #D1B022",
"e@	c #514508",
"f@	c #E7C226",
"g@	c #AF941B",
"h@	c #C2C2C2",
"i@	c #C9C9C9",
"j@	c #929191",
"k@	c #B99C1D",
"l@	c #EFC827",
"m@	c #C8AA20",
"n@	c #F7CE29",
"o@	c #F6CE29",
"p@	c #554B26",
"q@	c #040404",
"r@	c #1C1B1B",
"s@	c #090909",
"t@	c #444343",
"u@	c #707070",
"v@	c #7C7B7B",
"w@	c #0B0B0B",
"x@	c #ADADAD",
"y@	c #050505",
"z@	c #5A5A5A",
"A@	c #1C1C1C",
"B@	c #3C3C3C",
"C@	c #353535",
"D@	c #232323",
"E@	c #383838",
"F@	c #D7D7D7",
"G@	c #121111",
"H@	c #434343",
"I@	c #D5D5D5",
"J@	c #8A8A8A",
"K@	c #323232",
"L@	c #6A6A6A",
"M@	c #555454",
"N@	c #131313",
"O@	c #161616",
"P@	c #61531A",
"Q@	c #F9D029",
"R@	c #75630F",
"S@	c #9F8718",
"T@	c #C5A71F",
"U@	c #838282",
"V@	c #626262",
"W@	c #5B5A5A",
"X@	c #C6C6C6",
"Y@	c #504F4F",
"Z@	c #3F3E3E",
"`@	c #828282",
" #	c #A1A1A1",
".#	c #D9D9D9",
"+#	c #8E8E8E",
"@#	c #373737",
"##	c #B2B1B1",
"$#	c #636262",
"%#	c #6E6E6E",
"&#	c #8A8989",
"*#	c #A9A8A8",
"=#	c #747373",
"-#	c #D0B022",
";#	c #957E16",
">#	c #020200",
",#	c #B79A1D",
"'#	c #FCD22A",
")#	c #6D5E14",
"!#	c #616060",
"~#	c #6F6F6F",
"{#	c #171717",
"]#	c #151414",
"^#	c #040303",
"/#	c #565555",
"(#	c #262626",
"_#	c #151515",
":#	c #666666",
"<#	c #555555",
"[#	c #4B4A4A",
"}#	c #888888",
"|#	c #7F6C13",
"1#	c #EEC727",
"2#	c #D7B523",
"3#	c #0E0E0E",
"4#	c #ABABAB",
"5#	c #868585",
"6#	c #9F9F9F",
"7#	c #939393",
"8#	c #979797",
"9#	c #7F7F7F",
"0#	c #494949",
"a#	c #646464",
"b#	c #7A7979",
"c#	c #737373",
"d#	c #B9B9B9",
"e#	c #363535",
"f#	c #2F2E2E",
"g#	c #535353",
"h#	c #828181",
"i#	c #999999",
"j#	c #7B6910",
"k#	c #C1A21E",
"l#	c #AD931B",
"m#	c #898989",
"n#	c #8B8A8A",
"o#	c #838383",
"p#	c #888787",
"q#	c #CECECE",
"r#	c #868686",
"s#	c #7C7C7C",
"t#	c #818080",
"u#	c #7D7C7C",
"v#	c #BABABA",
"w#	c #EAEAEA",
"x#	c #B8B8B8",
"y#	c #100F0F",
"z#	c #464545",
"A#	c #E8E8E8",
"B#	c #EBEBEB",
"      . + + + + + + + + + + + + + + + + + + + + + + + + + + + + + + + + + + + + + + + + + + + + + + + + + + + + + + + + + + + + + + + + + + + + + + + + + + + + + + + + + + + + + + + + + + + + + + + + + + + + + + + + + + + + + + + + + + + + + + + + + + + + + + + + + + + + + + + + + + + + + + . @     ",
"  . + + + + + + + + + + + + + + + + + + + + + + + + + + + + + + + + + + + + + + + + + + + + + + + + + + + + + + + + + + + + + + + + + + + + + + + + + + + + + + + + + + + + + + + + + + + + + + + + + + + + + + + + + + + + + + + + + + + + + + + + + + + + + + + + + + + + + + + + + + + + + + + + + + #   ",
"$ + + + + + + + + + + + + + + + + + + + + + + + + + + + + + + + + + + + + + + + + + + + + + + + + + + + + + + + + + + + + + + + + + + + + + + + + + + + + + + + + + + + + + + + + + + + + + + + + + + + + + + + + + + + + + + + + + + + + + + + + + + + + + + + + + + + + + + + + + + + + + + + + + + + + . ",
"# + + + + + + + + + + + + + + + + + + + + + + + + + % & & % * & & % & & = + + + + + + + + + + + + + + + + + + - ; + + + + + + + + + + + + + + + + + + + + + + + + + + + + + + + + + + + + + + + + + + > , ' + + + + + + + + + + + + > ) ! + + + + + + + + + + + + + + + + + + + + + + + + + + + + + + + + + ",
"+ + + + + + + + + + + + ~ { ] + + + + + + + + + + + ^ / ( ' _ / : , < [ * + + + + + + + + + + + + + + + + + + } | + + + + + + + + + + + + + + + + + + + + + + + + + + + + + + + + + + + + + + + + + + 1 2 3 + + + + + + + + + + + + 4 2 5 + + + + + + + + + + + + + + + + + + + + + + + + + + + + + + + + + ",
"+ + + + + + + + + + + 6 7 8 9 0 + + + + + + + + + + a b c + d / e % f g + h i ' j k l m n o p q r s t | u + v w x y z s A | 6 + + B C C D E + ] F + + + a G H o ^ v l I | J K + v L n J x + = t M w a v N ; O s l + a P Q ' y + R | ^ N , + + + a x j k S T l + % J ^ t J a U D n L D t d V + + g s 1 P + + ",
"+ + + + + + + + + + = W X Y Z ^ + + + + + + + + + + + `  ...+./ ' @.#.+ $. .%.^ &.} $.*./ =.-.;.>.,.'.).!.a ~./ {.z ].^./.(.< y _.:.<.[.}.|.= 1.2.+ + + & 3./ 4.5.6.7.8.s 9.@.0.a.5 b./ c...<.d.e./ c.j / f.;./ ] g.h.i.j.k.l.d m.| n./ x + + + g o./ p.q./ z g r.s.' t.: % u./ v.w.x.n.y._ a z.A.5 B.C._.+ ",
"+ + + + + + + + + + [.D.Y Y E.F.* + + + + + + + + + + G.9.l.H.N G.I...+ J.K...v / c.+ %.L.M.g 0 N.O.a P.Q.+ - / R.+ S.T.+ U.P.a V.W.X.% Y.Z.+ X.% + + + + `. +v ..4 / .+p.++> @+#+a {./ v `.$+X.B %+G &+N...J x.*+C / =+-+i.;+>+H.+ `.,+g + + + + ; '+y )+&.!+4 2 q K ~+.++ d {+* ]+*.= ^++++ /+(+1 _+:+l + ",
"+ + + + + + + + + B <+[+}+|+Y 1+6.+ + + + + + + + + + S / 2+M.k.3+^ + a 4+!.+ l.2 $.a 5+6++ + v N c.* 7+L + b.8+K = ].G.a =.9++ T.0+a 0./ n l U l + + + + J.(.a + a+b+c+!+h !+d+b.+ p.e+y f+g+l + % + v.i.+ ~ }.= ]+h+6 i+h P / j+l /+k+a + + + + l+c + m+n+= o+b+% ] / ' + U.P.l p+S.= ,.m+% ^.6+z.B & + + ",
"+ + + + + + + + + q+r+}+s+t+u+v+w+> + + + + + + + + + w / ^ + i.x+..+ + y+}.`.~+/ 2.z+( l.+ + c./ A+z./ B+P C+D+p.P x.) K E+F+' G+h+3 +./ H+#.2 z + + + = ~+I++ + s J+K+G+: M.L+f M+N+^.C+l.$+O+P+Q+g y.I++ R+S+T+c.$+B.l.U+v 0+V+]+k.n+W+a + + l X+Y++ Z+`+W+ @d+~ .@/ +@j (.%.0 k.3 M.7+@@) 7.#@C -+b.+ + ",
"+ + + + + + + + u $@%@&@*@/ =@Y -@7.+ + + + + + + + + M.j.y + e o + + + 0 - - & )+] B s X.+ + A+T K l T c.K X.S z & s h + z+[.!+{.c.) Z+;@= *+j.l + + + K s $.+ + + o ^ w K + M.>@F i+i z.a P ^ ,@K K T $.+ m S x + x S H 0 + i+! r z.i m + + + = T z.+ R.i m a w )+h T c.0 c.q y s R.+ t C '@0 {.i z.+ + + ",
"+ + + + + + + a )@!@Y ~@{@/ ]@Y ^@/@A + + + + + + + + + + + + + + + + + + + + + + + + + + + + + + + + + + + + + + + + + + + + ] (@V.=+N+k + + + + + + + + + + + + + + + + + + + + + + + + + + + + + + + + + + + + + + + + + + + + + + + + + + + + + + + + + + + + + + + + + + + + + + + + + + + + + + + + + ",
"+ + + + + + + _@:@^@Y Y <@/ [@Y Y }@|@= + + + + + + + + + + + + + + + + + + + + + + + + + + + + + + + + + + + + + + + + + + + + z.T H * + + + + + + + + + + + + + + + + + + + + + + + + + + + + + + + + + + + + + + + + + + + + + + + + + + + + + + + + + + + + + + + + + + + + + + + + + + + + + + + + + + ",
"+ + + + + + K 1@2@Y Y Y 3@/ 4@Y Y Y 5@' + + + + + + + + + + + + + + + + + + + + + + + + + + + + + 0 4 i++ + + + + + + + + + + + + + + + + + + + + + + + + + + + + * P ] + + + + + + + + + + + + + + + + + + l m D !++ + + + + + + + + + + + + + + + + + + + + + + + + + + + + + + + + + + + + + + + + + + + ",
"+ + + + + + S 6@Y Y Y Y 7@/ 8@Y Y Y 9@0@g + + + + + + + + + + + + + + + + + + + + + + + + + + + + a@1.U + + + + + + + + + + + + + + + + + + + + + + + + + + + + + 6+/ b@+ + + + + + + + + + + + + + + + + + _. .N > + + + + y h.K + + + + + + + + + + + + + + + + + + + + + + + + + + + + + + + + + + + + + ",
"+ + + + + * c@E.Y Y Y Y d@e@f@Y Y Y Y g@; + + + + + a g v > A !+$.A ..+ + ..e v U !+a g a@a ..R = M.z l 0 _.v r z & e > + l M.U l h o K y !+v P q & h@*++ + + + + e / t + + *+k > a g v !+] R.+ + a U 6 m i@= /.).z.A B + g M+_ o K + + + + + + + + + + + + + + + + + + + + + + + + + + + + + + + + + + + + ",
"+ + + + + j@k@Y Y Y Y Y l@m@n@Y Y Y Y o@p@X.+ + + + U k.q@P.7+r@5+s@R++ x t@u@v@w@x@U 8+y@A z@k+O A@t@= 2.{+}.B@N x+C@( m C >+:.a q+D@..#+w@E@E@q@t@*.< F@+ + + + i s@m 0 Q..@=+G@L `+x.[ H@A@I@= J@C@j@B@K@K L@^.M@N@B+a J O@=.y+0 + + + + + + + + + + + + + + + + + + + + + + + + + + + + + + + + + + + + ",
"+ + + + z.P@Q@Y Y Y Y ~@R@/ S@Y Y Y Y Y T@a++ + + + + U@n+K V@z@= 4+n.= W@:.y ;+/ X@+ t / 3.q l a Y@f++ r / j.T / ] L y@X.= Z@`@+ S.r.a A / D C / z  #N@.#+ + + + +#@#K W+s@J G.t@m J@}.y b@$+& ##/ j+a $#%#0 ].&#+ i.: + !+$+*#+ + + + + + + + + + + + + + + + + + + + + + + + + + + + + + + + + + + + + + ",
"+ + + a =#-#Y Y Y Y Y Y ;#>#,#Y Y Y Y Y '#)#r + + + a !#~#K 1.&#M.{#b@i+d+:++ ]+]#* + r ^#/#= + ..(#`.+ J N z.O+_#h y+1.K & {#l.= n+J@+ )+s@*+`.a.g a+A.l + + + + :#;.+ <#t.>@t B + B+T.+ n.[#l }#G@h _.r@B.*+N i y e+~ + k / e + + + + + + + + + + + + + + + + + + + + + + + + + + + + + + + + + + + + + + ",
"+ + + e |#}+Y Y Y Y Y Y '#1#}+Y Y Y Y Y Y 2#=#+ + + % E+B.X.3#4#o / 5#R Z@u@j.(#^.M 6#W@~ 2 7#)+$./ C+D 8#(#% 9#0#a a#H@T z / b#5 y@c#6 +#C@0 2..@a f P.d#+ + + 0 L.V@c.9+e#q j q.B f#.+a g#:.H  #>.) n./ , 0./ P > d+h#z+p N i#&++ + + + + + + + + + + + + + + + + + + + + + + + + + + + + + + + + + + + + ",
"+ + + D j#k#k#k#k#k#k#k#k#k#k#k#k#k#k#k#k#l#S.+ + + h m#I A+m#$.g n#Q.v R C+6.n 6+4 o#R K 3 p#q#y m+r#z e.W+a W+| + ##s#C % 5 t#d#q+h.z.P+K+a 5 S + )+u#) a + + a G+p.v#B 3 V+6#& & m#A + )+9#t X.3 h#n.>.v t J@B 0 .+5#q v n.:+> + + + + + + + + + + + + + + + + + + + + + + + + + + + + + + + + + + + + + ",
"w#+ + l x#! ! ! ! ! ! ! ! ! ! ! ! ! ! ! ! )+h + + + + + + + + + + + + + + + + + + + + + + + + + + + + + + + + + + + + + + + + + + + + + + + + + + + + + + + + + + + + + + + + + + + + + + + + > y#O+;+z#r#a + + + + + + + + + + + + + + + + + + + + + + + + + + + + + + + + + + + + + + + + + + + + + + + A#",
"  . + + + + + + + + + + + + + + + + + + + + + + + + + + + + + + + + + + + + + + + + + + + + + + + + + + + + + + + + + + + + + + + + + + + + + + + + + + + + + + + + + + + + + + + + + + + + + l ' o+Q., = + + + + + + + + + + + + + + + + + + + + + + + + + + + + + + + + + + + + + + + + + + + + + + + #   ",
"    @ . + + + + + + + + + + + + + + + + + + + + + + + + + + + + + + + + + + + + + + + + + + + + + + + + + + + + + + + + + + + + + + + + + + + + + + + + + + + + + + + + + + + + + + + + + + + + + + + + + + + + + + + + + + + + + + + + + + + + + + + + + + + + + + + + + + + + + + + + + + + + + + # B#    "};
