/* XPM */
static xpm_row_t const name_title_xpm[] = {
"340 19 2 1",
" 	c None",
".	c #000000",
"      ... .             ....    ......               ... .      . ....                         .......                                ... .                        ....   ...     .....                 ....         ....     ..        ... .      . .....                                 .....        ....          .......               ... .   ",
"  ...     .      ....  .        .      ...       ...     .     .       .                       ..     ....        .....           ...     .                        .         .        ..              .    ..       .  ...   .  .   ....           .      ..                         ...  ..   .     .     ..        ..      .....      ....     .  ",
" .       ..     .    . .    .  ..          ...  .       ..     .  ....  .                      .           ...    .   .   .....  .       ..                        .          .       .              .      .       .   ..   .   . ..      ...     .  ...  .                       .    . ..   .     .     ..       . .      ...   .   ..      ...  ",
"..   ......    ..    .. .   .  ...            ...   ......     .  ....                         ...                   . .      .  .   ......                        .   ....   .       . .            .  .   ..      .   ..  .   .. .   ......      . .....  .                     ..     . .   .        .   ..      . .      ..      . .    .....   ",
"..  ....        .     . .   .  ......         ...   ...        .   . .                         ......        .   .   . . .    .  .   ...                           .   .....      .   . .              ...   .       .   ...   ..  .   ...        .  .   .  .                     .      . .   .    .  ..   ..      . .      .       . ..  ...      ",
" .   .          .     . .   .     ....   .      ..  .          .   . .  .                        ....   ..   .   .   ... .    .  ..  .                             .   ..      .  .   . .           .  ...   ..      .   ...   ..  ..  .          .  .   .  .                     .      ...   .    .  ..    .      . .   .          . ..  .        ",
" ..  .....     ..      ..   .      .    ......  ..  .....      .  ...   .                          ..   ......   .      ..   .   ..  .....                         .   ....   ..  .     .           .  .     ..       .   .   ..   ..  .....      .  ....  ..                     . .     ..    .   .  .     ..           .     .      ..  .....    ",
" ..      .     ..      ..   .      .    .....   ..      .         .    ..                           .   .....                .   ..      .                         .    .     ..  .     .           .         ..      .      ..    ..      .      .        ..                     . .     ...   .             .      .    ..   ..   .  ..      .    ",
" ..     ..     .    .  ..   .      ..   .       ..     ..     .       ...                           .   .                     .  ..     ..                                   ..   .    ..           .   ..    ..       .    ..     ..     ..      .       ..                      . .  .   ..   .  .    ..    ..   . .   . .   ..   .  ..     ..    ",
" ..  .....     .    ..  .           .   .       ..  .....     .      ...                          . .   .       .   ......    .  ..  .....                                  . .   .    ..          .   ....    ..      .    ..     ..   ....      .      ..                         .  ..  ..   .  .   ...     .   . .   . .  ...   .  ..   ....    ",
" ..  ..        . .  ..  .           .   .       ..   .        .   .  ..                           .             .   . ...   . .   .   .                                 ..   .         .           .   .. .    ..      .    .       .   .            .   .                         ..   .   .   .  .  ..  .    ..  . .   ........   .   .   .       ",
" . .      ...  . .   ..      .    . .   .         .  .   ...  .   .   .                           .             .       .   .     ..  .   ...                           .  .           . .......   .   .. .    ...     .   ..       ..  .   ...      ..  .                         ..   ..  .   .     ..  .    ..  . .   . .....   ..   ..  .   ... ",
"   .  ....  .    .    .      .    .               .  ....  .  .   ..  .                            .   .        .    .  .   ..    ..  ....  .                           ..         .           .   .   .. .  .....     .   ..       ..  ..... .  .   ..   .                        ..   .       . .   ..  .  ..... . .         .   .    ..  ..... . ",
"  ..        .    .   . .     .    .    .         ..        .  .   ..   .                           .   .        .... .  .    .    ..        ..                      .   ..         .            . .    ..  ...   .     .   ..       ..        .. .   ...                           ..   . .     . .    .  ...   .. ...  .    . .   .    ..         .",
"  ..      ...   ..   . .    ..     .   .         ..      ...  .  ....  .                           .             ....   .  . .    ..      ....                      .   ..         .        ..... .   ...  .   ..      .   ..       ..      .... .   ...   .                       . .   .     .. .   ...  .  ..   ......    ...   .    ..      ....",
"  . . .......   ..   .. ......    ..   .         . . .......     .. .  ..                        ...               ..   .....     . . .......                       .   ..         .   .......... . .. ..   ...        .   ..       . . .......  .   . ..  .                       . .  .. ...... . .. ..  ...       ...     ....  .    . . ....... ",
"   ........     .............     .....           ........    .. .. ....                         ......                  ....      ........                         ..  ..         .............. ..   .               ......        ........    ... .  ....                       .............. ..   .                      .....      ........   ",
"   ....         .....               ..            ....        .. ..  ..                            ...                             ....                              .....          ......          ...                .   ..        ....         .. .  ...                         .....          ....                         ..       ....       ",
"                                                                 .                                                                                                                                                                                   .                                                                                              "};
