/* XPM */
static xpm_row_t const numbers_moles_xpm[] = {
"170 25 2 1",
" 	c None",
".	c #000000",
"                                                                                                                                                                          ",
"                                                                                                                                                                          ",
"                                                                                                                                                                          ",
"                                                                                                                                                                          ",
"                                                                                                                                                                          ",
"                                                                                                                                                                          ",
"                                                                                                                                                                          ",
"         ..             .             .....                 ..                .                                 .            ...                ...                ..     ",
"        ....            ..          ........           .........              ..            ....   .          ....         ........            ..... ..          .....    ",
"       .....            ...         .........         ..........        ..    ..           ..........         ....         .........          .........         .......   ",
"      ......            ...         ..........        ..........        ...   ..          ...........        ....          .........          ... ......       .... ...   ",
"     ........           ...              .....        .........         ...   ..          ..........         ...                 ...          ...  ....        ........   ",
"    ....  ...           ...             .....           .....            ... .....        .....             ...                   ..          .........       ..........  ",
"    ...    ...          ...            .....            ......           .........        ......            ...                  .....         ......          ........   ",
"   ....    ...          ...           .....             .......          ........          ......          ... ....          ..........        .....            .. ...    ",
"   ...     ...         ....          .....                .....           .....              .....         ........         ..........        ......                ..    ",
"   ...     ...         ...          .....     .             ....            ...                ...         .........         ......           ......               ...    ",
"  ....   .....         ...          ............       ........             ..            ........         .........           ...            ... ..               ...    ",
"   ...........        ....          ............       ........             ..            ........         ........           ...             ......               ..     ",
"   .........          ...           ..........        ........              ...            ......          .......            ...              .....               ..     ",
"    ......             ..            .....             ....                 ...             ...            ....                .                ...                ..     ",
"                                                                                                                                                                          ",
"                                                                                                                                                                          ",
"                                                                                                                                                                          ",
"                                                                                                                                                                          "};
