/* XPM */
static xpm_row_t const  score_numbers_xpm[] = {
"299 20 99 2",
"  	c None",
". 	c #5A5A5A",
"+ 	c #5D5D5D",
"@ 	c #505050",
"# 	c #6B6B6B",
"$ 	c #535353",
"% 	c #6A6A6A",
"& 	c #5E5E5E",
"* 	c #5C5C5C",
"= 	c #565656",
"- 	c #676767",
"; 	c #404040",
"> 	c #6E6E6E",
", 	c #636363",
"' 	c #616161",
") 	c #666666",
"! 	c #717171",
"~ 	c #6F6F6F",
"{ 	c #646464",
"] 	c #626262",
"^ 	c #545454",
"/ 	c #3A3A3A",
"( 	c #3B3B3B",
"_ 	c #3C3C3C",
": 	c #3D3D3D",
"< 	c #414141",
"[ 	c #5F5F5F",
"} 	c #383838",
"| 	c #3F3F3F",
"1 	c #3E3E3E",
"2 	c #373737",
"3 	c #313131",
"4 	c #606060",
"5 	c #656565",
"6 	c #707070",
"7 	c #4D4D4D",
"8 	c #787878",
"9 	c #7C7C7C",
"0 	c #575757",
"a 	c #777777",
"b 	c #757575",
"c 	c #5B5B5B",
"d 	c #6C6C6C",
"e 	c #737373",
"f 	c #6D6D6D",
"g 	c #2D2D2D",
"h 	c #7A7A7A",
"i 	c #747474",
"j 	c #7E7E7E",
"k 	c #7B7B7B",
"l 	c #484848",
"m 	c #686868",
"n 	c #797979",
"o 	c #727272",
"p 	c #595959",
"q 	c #4A4A4A",
"r 	c #585858",
"s 	c #474747",
"t 	c #515151",
"u 	c #464646",
"v 	c #4F4F4F",
"w 	c #525252",
"x 	c #4B4B4B",
"y 	c #363636",
"z 	c #434343",
"A 	c #808080",
"B 	c #444444",
"C 	c #393939",
"D 	c #333333",
"E 	c #323232",
"F 	c #494949",
"G 	c #7D7D7D",
"H 	c #4E4E4E",
"I 	c #454545",
"J 	c #898989",
"K 	c #696969",
"L 	c #555555",
"M 	c #292929",
"N 	c #424242",
"O 	c #2A2A2A",
"P 	c #8B8B8B",
"Q 	c #7F7F7F",
"R 	c #353535",
"S 	c #767676",
"T 	c #303030",
"U 	c #838383",
"V 	c #2B2B2B",
"W 	c #868686",
"X 	c #1F1F1F",
"Y 	c #4C4C4C",
"Z 	c #343434",
"` 	c #9C9C9C",
" .	c #8D8D8D",
"..	c #9B9B9B",
"+.	c #2C2C2C",
"@.	c #2F2F2F",
"#.	c #828282",
"$.	c #8A8A8A",
"%.	c #878787",
"                                                                                                                                                                                                                                                                                                                                                                                                                                                                                                                                                    . + @                                                             ",
"                                                                                                                                                                                                                                                                                                                                                                                                                                                                                                                                                    + # $                                                             ",
"                  % & * =                                       - * ;                                   > , + ' )                                   ! ~ + + {                                         ] ^ * #                               / ( ( _ : ; <                                     ) ] [ + @                             } ; | 1 2 } } } 3                                 ~ 4 & 5 '                                       # 6 4 * )                                                                                                     # 7 8                         9 , ) 0             # * [           ",
"              % a b ] 5 ! c *                               d e e f g                               h b 9 i e j h =                               6 b d , f k { l                                   4 ' m ~ e                               > n n n n n ! $                               & e 8 5 + ' 0                             6 9 k 9 9 9 9 j '                             n 8 o + p - ! +                                   m j > [ { ! $                                                                                                 , 6 (                         d m q r [ s         ~ % 1             ",
"              6 [ : < h t m s                             o ! < ) [ g                               u v | o @ w b m s                             q : ; c r . 6 x                                 0 ~ y 5 [ e                               ] z : ; ; < < A                             > 8 c B C z i -                             ( D D D D E q o z                             ~ [ B m A ) + 4 &                               . j F y | % @ ) ^                                                                                               + 4 =                         [ |     = 7         d s               ",
"            ] e C       G ) p m                           F H n 4 [ g                               4 r       v # f I                                       r 6 7 J                               5 @ K * [ e                               , |                                         - m 7                                                   4 K ;                           6 o u         L ] o                               4 , L       ' - v                                                                                               ~ l !                         [ <     $ ^       ! + $               ",
"            ' 5 {         + ' d                                 4 [ g                                         j d d 1                                       ! 6 z                               + d x   c [ e                               , 1                                         d x =                                                 % n H w                           n # @ >       [ p [                               ] c *       9 { . !                                         e [ -                                             [ ~ :                           * 1     r w     [ - q                 ",
"            [ [ x         0 5 ^                                 4 [ M                                         d b [ z                                       % * B                               m u n   c [ e                               , |                                       K > :                                                   & 6 C                               @ 4 .     x > C                                 ] & L         ' * ;                                         4 k B                                             + & @                           w B     0 N     K 1                   ",
"            , + H         . ) (                                 4 [ O                                         ' a B *                               P P a ! = u                               c ) 0     c [ e                               ] ' d # K K w                             ^ # _ j ! 6 e ) $                                     { i 0 c                               Q l ' 4 5 d ( )                                 L { t       * ] c E                                         t 7 z                                             6 u {                           { $ 4 ~ & =   ~ t .                   ",
"            5 * ^         & - 2                                 4 [ O                                       = h r B                                 , f ! { v 6                               # 1       * [ e                               F l B F + e K '                           u m % d N R z - 5 v                                   - S :                                   j ' [ m { 7                                   ] ' { ' L G ~ % + T                                         9 8                                             5 d N                               ) m & 4   6 { t     U               ",
"            , + ;         + ) }                                 4 [ V                                     W ! K R                                   X & # Y { b 0                           ] [ &       + [ e                                       , v f @                           I # l q     P 0 - B                                   6 4 |                                 S e - ( t ^ K ^                                   l l * { = s 5 c N                                                                                         4 . 7                                       ) m (   > - = c ^           ",
"            & [ Z         c , @                                 4 [ g                                     ! ~ / !                                           5 % K 0                         , < W ` `  .[ [ ] ..                                      . f = B                         I d ;         = d z                                 [ h I !                               e n r 3     ! $ ) l                                     7 ^     , $ b                                                                                       t o <                                         m u     ) Y   Q * v         ",
"            = , ^         4 c [                                 4 [ +.                                  m b C j                                             % m f :                         - h 8 8 a h a { a -                                       b o w O                         ] d u         ) f ;                                 ) m _                                 c ~ N         . % u                                           w f N                                                                                         - % F                                       ~ . =   ; ' _     0 B         ",
"            ) - u       v o q r                                 ' [ V                                 - S } G                                               q i 5 q                         C @.T E D D . [ _ E                                       , S u K                         [ 5 = m       * K }                               L 9 v ,                                 @ m q         & ~ |                                           * % (                                                                                         , p .                                     o m I     @.4 l     r N         ",
"            # ] + $   #.f % /                                 7 ] [ R                               5 b q c                                     | r ]     # a h s t                                     * 4 e                             + >       [ j ' D                             H , H     b a t -                               ) ~ /                                   4 ) ^ e       ! 5 l                               a )       f 9 B d                                           + Q H                                       * ! |                                       K (       < + I     c x         ",
"              l r f o j 6 ( 6                             d a a o c S a % V                         L { h n a 8 8 8 6 D                         7 { o b n #.6 B V                                       c * e                             l > e b Q Q * | G                             k w , > e 9 p y                               e b = r                                   9 F * % > ! k % C k                               l ! 6 ! h b I |                                             * - |                                       c - w                                     K v f         7 7 & K + w         ",
"                t ; _ ( @ 9                               T V O V V V V V 0                         p g g g g +.+.V +.w                           d s : _ ( ; =                                         u } n                             ~ = B _ / : N                                   8 F _ _ 2 B                                 v 1 }                                         [ B | ; z 0                                   $.l | : : Y -                                               @ C t                                       - ^ L                                   , = Y           %.Y ^ ^ 4           ",
"                                                                                                                                                                                                                                                                                                                                                                                                                                                                                                                                        r ! _                                                                         ",
"                                                                                                                                                                                                                                                                                                                                                                                                                                                                                                                                        p { 0                                                                         ",
"                                                                                                                                                                                                                                                                                                                                                                                                                                                                                                                                        x : K                                                                         "};
